<svg width="9" height="16" viewBox="0 0 9 16" fill="none" xmlns="http://www.w3.org/2000/svg">
<path d="M6.46497 8.09482C4.99575 9.67774 3.55849 11.2236 2.12694 12.7734C1.78446 13.1423 1.44198 13.5163 1.12348 13.9057C0.666847 14.4597 0.666847 15.2001 1.12348 15.6711C1.58012 16.1422 2.16918 16.1064 2.65207 15.569C4.63538 13.3674 6.61185 11.1585 8.58147 8.94245C9.15227 8.30417 9.134 7.6659 8.53923 6.99699C6.59092 4.8141 4.63881 2.63631 2.68289 0.463628C2.15548 -0.122307 1.50934 -0.150391 1.07668 0.365335C0.644017 0.881059 0.68968 1.60231 1.20454 2.17931C2.82863 3.99796 4.45425 5.81661 6.0814 7.63526C6.16131 7.7259 6.23551 7.82036 6.46497 8.09482Z" fill="#F2672A"/>
</svg>
