<svg width="121" height="110" viewBox="0 0 121 110" fill="none" xmlns="http://www.w3.org/2000/svg">
<path d="M70.9811 49.1996C70.5085 48.6099 70.0794 48.1108 69.6997 47.5759C69.6031 47.3811 69.5643 47.1627 69.5871 46.9458V41.5906C69.5924 41.43 69.5871 41.2695 69.5719 41.1097C69.5726 40.997 69.5277 40.889 69.4471 40.8098C69.3664 40.7315 69.2576 40.6889 69.1458 40.6919C69.0309 40.6881 68.9198 40.7307 68.8368 40.8091C68.7539 40.8882 68.706 40.997 68.7037 41.1112C68.6854 41.271 68.6793 41.4307 68.6862 41.5905C68.6862 42.9335 68.6915 44.2773 68.7014 45.6226V46.1042C68.6953 46.1438 68.6854 46.1818 68.6702 46.2191C68.6192 46.2039 68.5507 46.2039 68.5241 46.1682C68.1642 45.7261 67.7906 45.3152 67.4702 44.8556C67.3744 44.6577 67.3355 44.4386 67.3561 44.2195V40.488C67.3569 40.2879 67.3439 40.0885 67.318 39.8899C67.3165 39.7872 67.2716 39.6898 67.1955 39.6213C67.1202 39.5521 67.019 39.5171 66.9163 39.5254C66.704 39.5216 66.5259 39.686 66.5145 39.8983C66.4932 40.0573 66.4864 40.2179 66.4925 40.3784C66.4925 41.3615 66.51 42.3447 66.5145 43.3278C66.5062 43.4176 66.4879 43.5066 66.459 43.5926C66.3821 43.5332 66.3083 43.4701 66.2383 43.4024C65.4896 42.5608 65.485 42.5608 65.4941 41.4316C65.4941 40.7689 65.5337 40.1061 65.5451 39.4434C65.5505 39.2638 65.5345 39.0835 65.5002 38.9069C65.4751 38.6992 65.2917 38.5478 65.0825 38.5623C64.9805 38.563 64.8824 38.6049 64.8116 38.6779C64.7401 38.7517 64.702 38.8506 64.7051 38.9534C64.6899 39.1124 64.6899 39.2737 64.6899 39.4327V41.1806C64.6807 41.2559 64.664 41.3289 64.6412 41.4012C64.5727 41.3746 64.5088 41.3381 64.4509 41.2932C64.0507 40.8975 63.7882 40.4584 63.8635 39.8528C63.8917 39.3917 63.8917 38.9298 63.8635 38.4694C63.8628 38.3089 63.846 38.1491 63.8125 37.9923C63.7684 37.796 63.6185 37.6454 63.426 37.7009C63.2685 37.7641 63.1391 37.8805 63.0592 38.0296C63.0166 38.1635 63.006 38.3043 63.028 38.4428C63.028 39.0257 63.0592 39.6093 63.028 40.1883C62.9938 40.6913 63.1711 41.1859 63.5165 41.5534C64.3581 42.5494 65.1822 43.5592 66.0041 44.5711C67.5814 46.5183 69.1566 48.4686 70.7294 50.421C70.7933 50.4986 70.8511 50.58 70.9173 50.6553C71.2285 51.0069 71.4583 51.0312 71.8654 50.79C73.633 49.7407 75.3999 48.6824 77.2031 47.6618C77.5904 47.496 77.8271 47.101 77.7921 46.681C77.7723 44.1335 77.821 41.5844 77.7921 39.0369C77.7807 38.3163 78.031 37.91 78.6534 37.563C80.6417 36.4582 82.6101 35.2742 84.5831 34.123C84.6539 34.0834 84.7224 34.0393 84.8038 34.0058C85.2101 33.8133 85.4133 33.9259 85.4491 34.3657C85.4605 34.505 85.4491 34.6465 85.4491 34.7857C85.4491 37.194 85.4544 39.6016 85.4643 42.0098V42.2503C85.4772 42.8423 85.5084 42.8621 86.0213 42.5684C87.3468 41.8082 88.6549 41.0328 89.9849 40.291C90.354 40.1183 90.5762 39.7348 90.5419 39.3285C90.5419 36.1783 90.5419 33.0281 90.5594 29.8771C90.5594 29.1923 90.3053 28.7859 89.7042 28.4458C86.4589 26.612 83.2333 24.7387 80.0033 22.8782C79.9858 22.8782 79.966 22.8607 79.9477 22.8516C79.5056 22.5883 79.5056 22.5883 79.9477 22.3258C80.0847 22.2444 80.2216 22.1599 80.3609 22.0831C80.7231 21.8799 80.7078 21.889 80.8775 22.2862C80.9445 22.4202 81.0647 22.5229 81.2078 22.5678C81.2976 22.5891 81.3927 22.5716 81.4695 22.5191C81.5456 22.4673 81.5966 22.3852 81.6095 22.2931C81.6514 22.1378 81.6643 21.9765 81.6476 21.816C81.5905 21.52 81.7495 21.2255 82.0273 21.1091C82.7806 20.7073 82.7714 20.6914 82.7714 21.5291V22.7953C82.7494 22.933 82.7654 23.0738 82.8163 23.2039C82.9115 23.3424 83.056 23.4398 83.2204 23.4755C83.3239 23.4755 83.4943 23.3211 83.5476 23.197C83.5993 23.0235 83.6183 22.8425 83.6046 22.6621C83.6046 22.0808 83.6381 21.4979 83.6046 20.9189C83.5712 20.4151 83.7043 20.0682 84.1989 19.8802C84.4173 19.7798 84.6273 19.6618 84.8267 19.5272C84.9659 19.4473 85.0473 19.4655 85.061 19.6421V20.0644V23.977C85.061 24.4632 85.1805 24.6397 85.4697 24.6397C85.7588 24.6397 85.9117 24.4655 85.9117 23.977C85.9117 22.5122 85.9292 21.0475 85.8942 19.5826C85.8813 19.0744 86.0137 18.7388 86.4999 18.5531C86.6628 18.4755 86.8195 18.3865 86.9694 18.286C87.4115 18.0342 87.4359 18.0456 87.4465 18.5843V18.9442V25.746C87.4298 25.9461 87.4427 26.147 87.4861 26.3426C87.5469 26.4811 87.6618 26.5884 87.8049 26.6386C87.8924 26.669 87.989 26.6606 88.0704 26.6158C88.1519 26.5716 88.2105 26.4948 88.2333 26.405C88.2858 26.2323 88.3109 26.0527 88.3079 25.8723V19.3727C88.3079 19.0127 88.2637 18.6521 88.2592 18.2922C88.2546 17.9322 88.1907 17.5944 88.5749 17.3311C88.8291 17.1569 88.6769 16.8472 88.562 16.6128C88.1952 15.877 87.8178 15.1481 87.4442 14.4039C87.3712 14.2623 87.2981 14.1185 87.2365 13.9618C87.2274 13.9085 87.2274 13.8545 87.2365 13.8012C87.292 13.8035 87.3461 13.8149 87.3978 13.834C87.9578 14.1505 88.5141 14.4685 89.068 14.7881L115.211 29.8922C116.945 30.8951 118.669 31.92 120.41 32.9123C120.803 33.133 121.006 33.3894 120.965 33.8642C120.905 34.5582 121.002 35.2536 120.806 35.9499C120.693 36.3608 120.777 36.8333 120.777 37.2754C120.77 37.5356 120.779 37.7974 120.805 38.0561C120.88 38.6153 120.714 39.0392 120.186 39.2887C119.979 39.3831 119.858 39.6022 119.888 39.8282V40.911C119.888 41.2709 119.912 41.5737 119.698 41.8941C119.592 42.0509 119.629 42.3179 119.627 42.5348V52.8892V70.1628C119.621 70.3028 119.627 70.4428 119.643 70.582C119.738 71.1565 119.746 71.1634 119.23 71.4654C116.873 72.8336 114.513 74.1986 112.149 75.5614L96.607 84.547C91.6764 87.3951 86.7417 90.2424 81.805 93.0875C73.0522 98.1362 64.298 103.181 55.543 108.221C55.1252 108.461 54.7014 108.689 54.2928 108.941C54.0637 109.113 53.7502 109.119 53.5151 108.954C51.9248 108.019 50.3269 107.096 48.7236 106.186C48.4953 106.095 48.3561 105.863 48.3835 105.618C48.4032 105.398 48.3614 105.176 48.3949 104.956C48.4702 104.491 48.2914 104.213 47.8782 103.992C46.9263 103.479 45.9957 102.925 45.0545 102.386C43.9763 101.77 42.9049 101.14 41.816 100.545C41.4957 100.411 41.2933 100.091 41.3093 99.7441C41.3093 99.3819 41.2872 99.022 41.2941 98.6613C41.2941 98.0762 41.7361 97.8372 42.2574 98.1378C44.0775 99.197 45.8961 100.257 47.7116 101.319C48.3743 101.713 48.3546 101.71 48.401 100.93C48.4276 100.464 48.264 100.219 47.8554 99.9914C46.2293 99.0813 44.6345 98.1134 43.0107 97.1988C42.6736 97.0512 42.4727 96.7004 42.5153 96.3352C42.5351 95.8931 42.5153 95.4517 42.5153 95.0096C42.5351 94.3887 42.8205 94.2297 43.3592 94.5394C45.2394 95.613 47.115 96.6798 48.9883 97.7778C49.2402 97.9452 49.5674 97.9452 49.8192 97.7778C49.9471 97.7322 50.0399 97.6203 50.0612 97.4857C50.0825 97.3517 50.03 97.2163 49.9227 97.1326C49.7606 96.985 49.5796 96.8602 49.384 96.7613C47.7313 95.8132 46.0854 94.8567 44.4175 93.9336C44.0706 93.7411 43.9047 93.538 43.9427 93.1408C43.9762 92.8029 43.9427 92.4582 43.958 92.1181C43.993 91.5482 44.241 91.431 44.7356 91.7164L51.7741 95.7523L51.9818 95.8718C52.1743 95.9889 52.2892 95.9379 52.3044 95.715C52.3196 95.492 52.3044 95.2729 52.3242 95.0523C52.3569 94.7684 52.1964 94.496 51.9308 94.3887C50.5741 93.6134 49.2265 92.8205 47.8744 92.0314C47.0435 91.5474 46.2172 91.0528 45.378 90.5841C45.0447 90.3962 44.8636 90.1778 44.9077 89.7714C44.9427 89.4359 44.9077 89.0912 44.9077 88.7488C44.9298 88.1659 45.1687 88.0244 45.6724 88.3067C46.5559 88.7975 47.4134 89.3012 48.2838 89.7981L51.7613 91.7756C51.8671 91.835 51.9713 91.8928 52.0793 91.9476C52.2498 92.0358 52.3556 91.9849 52.3601 91.7931C52.3601 91.2719 52.3822 90.7484 52.3601 90.2287C52.3266 90.0765 52.2323 89.9449 52.0991 89.8642C51.8754 89.7227 51.7537 89.464 51.7879 89.2015C51.8229 87.9353 51.5673 88.0479 52.8395 87.3167C53.1355 87.1462 53.4224 86.9629 53.7229 86.8038C53.9451 86.6996 54.076 86.4652 54.0478 86.221C54.0258 85.037 54.0281 83.8531 54.0037 82.6683C54.0037 82.2262 53.9444 82.2019 53.5616 82.4279C51.205 83.8021 48.8539 85.1793 46.508 86.5588C45.8696 86.9347 45.2311 87.3122 44.5813 87.6637C44.2792 87.7908 44.0981 88.1035 44.1392 88.4284C44.1682 88.8484 44.1392 89.2723 44.1392 89.6923C44.1522 90.0104 44.0555 90.2668 43.755 90.3703C43.0215 90.6244 42.8335 91.1479 42.9309 91.8617C42.9659 92.1158 42.9111 92.3829 42.9309 92.6416C42.9728 93.0677 42.765 93.3043 42.4181 93.5029C41.47 94.0462 41.6115 93.7617 41.5986 94.9342C41.5986 95.4555 41.5811 95.979 41.6138 96.4987C41.661 96.8053 41.4897 97.1036 41.2014 97.217C41.1108 97.2611 41.0309 97.3273 40.9381 97.3631C40.5378 97.5152 40.4191 97.8204 40.4275 98.2183C40.461 99.61 40.372 99.3696 39.3957 99.9859C38.9932 100.302 38.4278 100.306 38.02 99.9958C37.0391 99.3749 36.0189 98.8164 34.9999 98.2617C34.6103 98.0806 34.3767 97.6735 34.417 97.2451C34.4368 95.5817 34.4345 93.9161 34.417 92.2496C34.417 91.5115 34.3554 90.7757 34.3067 90.0407C34.2671 89.6914 34.4657 89.3581 34.7922 89.228C35.0417 89.1002 35.2868 88.9647 35.5257 88.8148C35.7646 88.6649 35.7775 88.5942 35.5371 88.4458C35.0227 88.1323 34.5007 87.834 33.9795 87.5335C26.763 83.3538 19.5457 79.1688 12.3301 74.9784C11.5944 74.5478 11.0198 74.4458 10.3419 74.9914C10.0482 75.228 9.67914 75.3711 9.3702 75.5879C9.15943 75.753 8.86496 75.7629 8.64504 75.6107C7.12398 74.7182 5.59983 73.8287 4.07421 72.9423C3.84289 72.8403 3.73712 72.5702 3.83758 72.3389C3.89997 72.1083 3.93193 71.8701 3.93269 71.632C3.93269 69.1248 3.93269 66.6168 3.95704 64.1096C3.95704 63.65 3.80866 63.3784 3.38255 63.2658C2.95645 63.1532 2.8347 62.8747 2.85677 62.4546C2.88872 61.9136 2.88872 61.3719 2.85677 60.8309C2.81111 60.5037 2.99297 60.1871 3.29885 60.0623C3.36961 60.0273 3.44266 59.9916 3.51951 59.9627C3.86878 59.8371 3.98367 59.5982 3.97683 59.2246C3.95705 57.7994 3.97683 56.3749 3.97683 54.9498C3.97683 52.1421 3.95933 49.3343 3.97683 46.5242C3.97683 46.0821 3.89693 45.7534 3.4556 45.57C3.06677 45.4087 2.98307 45.0975 3.01352 44.6866C3.10406 43.2835 3.117 43.2264 1.8691 42.6169C1.24134 42.3118 1.08231 41.9192 1.10896 41.3021C1.13559 40.6857 1.09755 40.058 1.10896 39.4356C1.1432 39.1708 0.99939 38.9136 0.755898 38.8048C0.287186 38.5841 0.110645 38.1991 0.126618 37.6779C0.124335 37.2799 0.0840078 36.8842 0.00867728 36.4939C-0.0400211 36.1735 0.121291 36.0168 0.366299 35.8753C1.1858 35.4088 1.99694 34.9294 2.81193 34.4592C6.46041 32.3591 10.1114 30.2559 13.7638 28.1496C21.8022 23.5104 29.8419 18.871 37.8812 14.2318C44.6343 10.3307 51.3835 6.42724 58.13 2.52299C59.4555 1.75219 60.8031 0.976817 62.1217 0.185468C62.4687 -0.0618226 62.9351 -0.0618226 63.2821 0.185468C64.8663 1.12671 66.4679 2.03677 68.0606 2.96439C69.205 3.62714 70.3426 4.30284 71.4823 4.97252C71.5858 5.03187 71.703 5.08742 71.7935 5.1559C71.9328 5.25101 71.913 5.34385 71.776 5.42298C71.6391 5.50288 71.5554 5.5356 71.458 5.59723L50.9891 17.4165C45.7647 20.4343 40.5409 23.4536 35.3166 26.4744C32.2106 28.2725 29.1091 30.0766 26.0113 31.8868C25.802 32.0047 25.605 32.1432 25.42 32.2969C25.2496 32.4202 25.1895 32.6469 25.2762 32.8379C25.3691 33.0251 25.576 33.1263 25.7799 33.0837C25.9405 33.07 26.0988 33.0411 26.2532 32.9969L33.2231 31.2118C33.7535 31.0749 33.7603 31.0726 34.0563 31.5124C36.5392 35.1823 39.0204 38.8538 41.4988 42.525C41.5574 42.6072 41.6114 42.6932 41.6601 42.7815C41.7484 42.9496 41.6358 43.0158 41.5057 42.9892C41.3322 42.9519 41.164 42.8872 41.0103 42.7974C37.2621 40.6296 33.5146 38.4602 29.7678 36.2894C28.6705 35.6479 27.5764 35.0065 26.4845 34.3651C26.1269 34.155 25.7799 33.923 25.3553 33.665V41.0923C25.3553 42.3052 25.3553 42.3181 26.4001 42.8842C27.339 43.3879 27.3923 43.6885 27.39 42.3143C27.39 40.4478 27.425 38.5828 27.4456 36.7163C27.4456 36.0802 27.6381 35.9722 28.2164 36.2963C29.4224 36.972 30.6201 37.6659 31.8216 38.3508C31.9433 38.4216 32.0582 38.5007 32.1838 38.5715C32.6038 38.7495 32.8618 39.1787 32.8207 39.6337V39.8726C32.8207 41.9203 32.8207 43.9664 32.7986 46.0117C32.7552 46.3564 32.95 46.6867 33.2719 46.816C33.6493 46.9994 34.0031 47.2292 34.3767 47.4369C34.5358 47.5275 34.6484 47.4963 34.6598 47.2931V46.8114C34.6598 45.0659 34.653 43.3211 34.64 41.5756C34.64 41.2925 34.64 41.0125 34.6514 40.7317C34.6712 40.3695 34.7153 40.3406 35.0403 40.5263C36.4175 41.3131 37.7894 42.1044 39.1561 42.901C39.4832 43.0913 39.9208 43.2305 40.0882 43.5196C40.2563 43.8088 40.1612 44.26 40.1612 44.6374C40.1612 46.4225 40.1962 48.2099 40.146 49.995C40.1285 50.6114 40.3271 50.9606 40.8666 51.2102C41.3087 51.4111 41.6998 51.685 42.1213 51.9194C42.7841 52.2861 42.9279 52.2085 42.9325 51.4621C42.9477 49.317 42.9545 47.1698 42.9637 45.0224V44.4814C42.9355 44.1314 43.1204 43.7988 43.4339 43.6413C43.8357 43.4207 44.2245 43.1643 44.6248 42.9367C44.8835 42.7906 44.936 42.8196 44.9405 43.1178V45.7072C44.923 47.2716 44.901 48.8354 44.8652 50.4021C44.8538 50.6563 44.8036 50.9066 44.7176 51.1463C44.6362 51.3784 44.6179 51.5884 44.8211 51.7429C44.9192 51.8182 45.044 51.8486 45.1658 51.8281C45.2875 51.8068 45.3948 51.736 45.4617 51.6318C45.7303 51.3343 45.9815 51.0208 46.2135 50.6928C46.3901 50.4432 46.5537 50.4189 46.8101 50.5756C47.4416 50.9644 48.0892 51.3289 48.7276 51.7048C49.6445 52.2397 50.5614 52.7785 51.4806 53.3134C51.5909 53.3994 51.7188 53.4587 51.8557 53.4853C52.0247 53.493 52.1898 53.4321 52.3131 53.3157C52.377 53.1566 52.3648 52.9778 52.2796 52.8294C52.1662 52.6902 52.0209 52.5806 51.8557 52.5091C50.4131 51.6805 48.9635 50.8633 47.5231 50.0323C46.849 49.6435 46.9799 49.7272 47.3641 49.2372C49.5867 46.3914 51.8148 43.5515 54.0494 40.7165C54.3127 40.4106 54.4497 40.0149 54.4314 39.6117C54.4002 38.9489 54.4512 38.2861 54.4116 37.6234C54.3454 37.2779 54.5471 36.9363 54.8819 36.8282C55.0607 36.7575 55.2372 36.6783 55.4145 36.6076C55.4297 36.7841 55.4564 36.9629 55.4586 37.1402V38.7062C55.4586 39.1483 55.6222 39.3956 55.8695 39.4154C56.1168 39.4351 56.3116 39.1681 56.3291 38.6933C56.3291 38.0701 56.3177 37.4492 56.3291 36.8267C56.3291 35.8368 56.1808 36.0803 57.0847 35.5385C57.3495 35.3795 57.3761 35.397 57.3761 35.7067C57.3761 36.7293 57.3609 37.7528 57.3518 38.7755C57.3472 38.936 57.3526 39.0958 57.3701 39.2564C57.3708 39.3697 57.4188 39.4785 57.5025 39.5554C57.5862 39.6323 57.698 39.6711 57.8114 39.6627C58.0503 39.6627 58.1652 39.4968 58.1911 39.2716C58.2101 39.1331 58.2208 38.9939 58.2223 38.8539V35.1201C58.2276 35.0211 58.2238 34.9207 58.2116 34.8225C58.1211 34.2815 57.7391 34.0624 57.2574 34.3188C56.5171 34.7168 55.7927 35.1475 55.066 35.569L43.3572 42.3404C42.7629 42.6828 42.7979 42.6653 42.4737 42.0513C42.1648 41.4699 41.7775 40.9267 41.413 40.3765C39.5846 37.635 37.7591 34.8948 35.936 32.1556C35.5122 31.5218 35.0526 30.9161 34.5976 30.3021C34.3457 29.9619 34.1555 29.9178 33.7027 30.0388C32.0234 30.4892 30.3433 30.9382 28.6609 31.384C28.546 31.4046 28.4303 31.4191 28.3139 31.4267C28.5567 31.2722 28.7028 31.1748 28.8527 31.0865C31.6209 29.4719 34.3754 27.8481 37.1618 26.2442C42.3534 23.2484 47.5489 20.2595 52.7476 17.2768C57.1663 14.7361 61.578 12.1931 65.9828 9.64872C68.0153 8.47768 70.0476 7.30886 72.0937 6.16075C72.4643 5.96595 72.8607 5.82138 73.2693 5.7316C75.2576 5.24537 77.2458 4.78198 79.2341 4.31097C79.406 4.25466 79.5826 4.21814 79.7621 4.20063C80.1639 4.20063 80.5398 4.22727 80.7825 4.65795C82.9473 8.50064 85.1206 12.3371 87.3021 16.1683C87.3614 16.2718 87.4056 16.389 87.4679 16.4886C87.5874 16.6872 87.5341 16.8113 87.3333 16.9307C86.7725 17.2396 86.2178 17.5646 85.6631 17.8872C83.3787 19.2218 81.0961 20.5596 78.8149 21.9009C78.6528 22.0181 78.4337 22.0181 78.2708 21.9009C76.7376 21.0304 75.2029 20.1638 73.6665 19.3008C73.6133 19.2696 73.563 19.2369 73.5098 19.208C73.302 19.0908 73.3241 18.9873 73.5098 18.8724L75.1267 17.9464C77.7352 16.4512 80.3443 14.9559 82.9543 13.4593C83.1293 13.3634 83.2929 13.2462 83.4382 13.1101C83.5189 13.0461 83.5684 12.9503 83.5744 12.8475C83.5805 12.7448 83.5425 12.6444 83.4694 12.5713C83.3408 12.4572 83.1689 12.4047 82.9992 12.4275C82.7709 12.5036 82.5556 12.6109 82.3585 12.7478L72.6379 18.3968C72.4477 18.5072 72.2361 18.5848 72.0566 18.7103C71.7142 18.9531 71.7537 19.316 72.1159 19.523C75.2486 21.3127 78.3797 23.1031 81.5094 24.8958L88.0861 28.6516C88.1895 28.711 88.2961 28.7665 88.3973 28.8304C88.4437 28.8662 88.4886 28.9073 88.5289 28.9499C88.4673 28.9773 88.4026 28.9948 88.3364 29.0032C87.5565 28.9613 86.7743 28.9172 85.9944 28.8685C84.1743 28.7566 82.3527 28.6402 80.531 28.5192C80.334 28.5147 80.1414 28.4667 79.9657 28.3777C78.4545 27.5163 76.9456 26.6329 75.4435 25.7488C71.9365 23.7225 68.4287 21.7 64.9187 19.6819C62.922 18.5398 60.9231 17.3954 58.9235 16.2494C58.7356 16.1353 58.5408 16.0326 58.3399 15.942C58.1497 15.8462 57.9168 15.92 57.8164 16.1079C57.7601 16.1939 57.7403 16.2989 57.7623 16.3986C57.7844 16.499 57.8461 16.5865 57.9336 16.6406C58.0591 16.7425 58.1923 16.8331 58.333 16.9122C64.4729 20.4732 70.6134 24.0329 76.7531 27.5892C77.3763 27.9514 78.0101 28.2984 78.6265 28.672C79.0686 28.9414 79.0686 28.968 78.7657 29.4032C76.3994 32.7642 74.0299 36.1244 71.6589 39.4838C71.4184 39.8262 71.3431 39.8574 70.9649 39.6778C70.5875 39.499 70.2268 39.2761 69.8601 39.0661L56.6377 31.4197C56.4984 31.3398 56.3592 31.2629 56.2177 31.199C56.0389 31.1008 55.8212 31.1122 55.6538 31.2279C51.608 33.5623 47.5623 35.8954 43.5165 38.2268C43.3757 38.3029 43.2395 38.3874 43.1094 38.481C42.9146 38.6103 42.8499 38.866 42.9595 39.073C43.0059 39.1757 43.0949 39.2541 43.203 39.2876C43.311 39.3203 43.4282 39.3058 43.5248 39.2472C43.7082 39.1658 43.8863 39.0745 44.0597 38.9733C47.8551 36.7644 51.6499 34.5546 55.4437 32.3459C55.7534 32.1298 56.1658 32.1343 56.4709 32.3565C61.1247 35.0708 65.7875 37.7735 70.4573 40.464C70.824 40.6238 71.0454 41.0035 71.0051 41.4015C70.9808 43.8646 70.9808 46.3611 70.9808 48.8484L70.9811 49.1996ZM113.736 53.8055V52.7228C113.736 50.0938 113.736 47.4672 113.712 44.8381C113.712 44.396 113.818 44.0734 114.262 43.8923C114.55 43.7492 114.83 43.5917 115.1 43.4182C115.442 43.2303 115.504 43.2546 115.52 43.6632C115.544 44.3039 115.52 44.9469 115.54 45.5876C115.553 45.9589 115.505 46.2503 115.116 46.4162C115.021 46.4543 114.946 46.5288 114.91 46.6232C114.857 46.7662 114.857 46.923 114.91 47.0653C115.015 47.1748 115.163 47.2319 115.314 47.2197C115.489 47.1832 115.657 47.1117 115.804 47.0097C116.641 46.5357 117.475 46.0563 118.306 45.5716C118.434 45.5176 118.546 45.4293 118.63 45.3175C118.701 45.182 118.718 45.0238 118.676 44.8761C118.607 44.7597 118.486 44.6836 118.351 44.6707C118.196 44.6745 118.045 44.7171 117.91 44.794C117.605 44.9484 117.318 45.1295 117.026 45.2931C116.549 45.5564 116.545 45.5541 116.538 44.9842C116.538 44.3214 116.556 43.6587 116.514 42.9959C116.473 42.757 116.602 42.5211 116.825 42.426C117.454 42.0767 118.075 41.7054 118.698 41.3432C119.264 41.0137 119.361 40.822 119.273 40.1767C119.246 39.9667 119.158 39.8785 118.959 39.9561C118.756 40.0413 118.559 40.1395 118.37 40.2498L82.4691 60.9661C76.0775 64.6481 69.6857 68.3302 63.2955 72.0122C61.8901 72.8234 60.4831 73.6337 59.0648 74.4244C58.778 74.5416 58.6098 74.8413 58.66 75.1472C58.6714 75.2469 58.66 75.3458 58.673 75.4478C58.7019 75.9759 58.7217 75.9934 59.1637 75.7369C60.2039 75.1358 61.2426 74.5286 62.2836 73.9229C63.9629 72.9452 65.643 71.9674 67.3254 70.989C67.6526 70.7987 67.6853 70.8254 67.7051 71.1944V71.6144C67.7051 73.382 67.7203 75.1489 67.7051 76.9165C67.7051 77.389 67.8246 77.6812 68.2644 77.9148C69.5343 78.5951 70.7784 79.3286 72.0332 80.04C72.5461 80.3292 72.5719 80.6457 72.0903 80.9919C71.8559 81.1464 71.6117 81.2849 71.3591 81.4059C71.114 81.5405 70.8622 81.6646 70.6187 81.8038C67.5711 83.5577 64.5261 85.3093 61.4817 87.0593C61.204 87.2169 60.9118 87.347 60.6089 87.4482C60.3 87.5517 60.1539 87.4634 60.0984 87.1499C60.0641 86.9125 60.0512 86.672 60.0611 86.4316V76.921V76.501C60.0611 76.3617 59.9682 76.2803 59.8267 76.3511C59.606 76.4705 59.3846 76.6273 59.1419 76.7285C58.7576 76.8944 58.645 77.1592 58.645 77.5746C58.645 79.7836 58.6138 81.9933 58.594 84.2021C58.5826 85.625 58.5674 87.0494 58.5743 88.4747C58.61 88.7783 58.4472 89.0713 58.1702 89.1999C57.6178 89.4852 57.0768 89.7896 56.5441 90.1076C56.3471 90.253 56.0777 90.2537 55.8814 90.1084C55.0923 89.6313 54.2926 89.174 53.4928 88.7144C53.2349 88.5622 52.9686 88.423 52.6954 88.299C52.5934 88.2959 52.4976 88.3461 52.4412 88.4314C52.2708 88.9861 52.4412 89.3749 52.9579 89.6816C53.9075 90.2423 54.867 90.7864 55.8099 91.3563C56.0587 91.5374 56.3965 91.5374 56.6453 91.3563C56.8485 91.2285 57.0677 91.1357 57.2746 91.0048C57.4824 90.8747 57.5995 90.8633 57.5881 91.1684C57.5729 91.5481 57.5881 91.9308 57.5881 92.3128C57.5881 92.9755 57.5067 93.095 56.9079 93.3309C56.7466 93.3948 56.6872 93.3552 56.6872 93.1894V92.2877C56.6872 91.9871 56.4422 91.7467 56.2124 91.7817C55.9362 91.8258 55.8898 92.0488 55.8875 92.2808V93.3659C55.8875 93.5866 55.8038 93.6596 55.5983 93.5379C55.1562 93.2837 54.7347 93.0273 54.2972 92.7846C53.9373 92.586 53.6785 92.6103 53.553 92.831C53.4274 93.0516 53.5332 93.3081 53.8604 93.5158C53.9266 93.5599 54.0019 93.5911 54.0704 93.6307L55.5329 94.4677C55.7071 94.5674 55.8867 94.6663 55.8867 94.9098V96.4742C55.8867 96.6264 55.7984 96.6949 55.6478 96.5959C55.2057 96.3441 54.7819 96.0922 54.3466 95.8472C54.199 95.746 54.0346 95.6714 53.8619 95.6265C53.7105 95.6037 53.5575 95.6539 53.4487 95.7612C53.3901 95.9202 53.3901 96.0952 53.4487 96.2543C53.4754 96.3494 53.6146 96.4224 53.7158 96.4749C54.498 96.917 55.2802 97.3721 56.064 97.8202C56.2626 97.9328 56.4681 98.0188 56.6781 97.8537C56.8881 97.6878 56.8173 97.509 56.8059 97.3036C56.7641 96.4841 56.7489 95.6623 56.7062 94.8404C56.6789 94.616 56.8082 94.4021 57.019 94.3207C57.4611 94.1 57.9138 93.8786 58.3445 93.629C59.2987 93.0766 60.2422 92.5044 61.1918 91.9459C61.4505 91.7937 61.7176 91.6545 61.9786 91.5038C62.1445 91.4087 62.2502 91.4467 62.2677 91.6431C62.2807 91.7823 62.2792 91.9215 62.2792 92.0631C62.2792 93.0066 62.2792 93.9494 62.3142 94.8907C62.3644 95.2301 62.184 95.561 61.8728 95.7041C60.4941 96.484 59.1336 97.2944 57.7685 98.0964C57.6095 98.1793 57.4642 98.2881 57.3417 98.419C57.258 98.5232 57.2374 98.664 57.2876 98.788C57.3371 98.9113 57.4505 98.9988 57.5821 99.0155C57.681 99.0308 57.7822 99.0201 57.8758 98.9843C58.0858 98.9029 58.1254 99.0216 58.1277 99.1829C58.152 100.124 58.1809 101.065 58.1809 102.008C58.1634 102.157 58.0828 102.291 57.9603 102.376C56.7322 103.096 55.4987 103.805 54.26 104.503C53.9815 104.662 53.9419 104.631 53.9267 104.283C53.9153 104.002 53.9267 103.72 53.9267 103.439C53.9024 103.019 53.7213 102.787 53.4428 102.794C53.1643 102.8 53.0007 103.026 52.9855 103.456C52.9725 103.677 52.9855 103.898 52.9855 104.119C52.9702 104.49 52.9413 104.51 52.6118 104.32C51.7771 103.84 50.9531 103.346 50.1175 102.867C49.7089 102.634 49.4723 102.646 49.3155 102.882C49.1588 103.118 49.2493 103.366 49.6952 103.628C50.5079 104.103 51.3342 104.556 52.1453 105.034C53.0751 105.581 52.9671 105.314 52.9892 106.463C52.9892 106.803 53.0158 107.143 53.0485 107.481C53.0561 107.672 53.2113 107.825 53.4023 107.83C53.6101 107.874 53.8147 107.743 53.8619 107.536C53.9061 107.384 53.9319 107.227 53.9395 107.068C53.9624 106.829 53.9624 106.587 53.9395 106.348C53.8779 105.884 54.0719 105.626 54.4767 105.4C56.6462 104.189 58.8002 102.95 60.9589 101.719C61.6749 101.31 62.3818 100.893 63.0993 100.493C63.3907 100.33 63.4196 100.356 63.431 100.696C63.4424 101.036 63.431 101.339 63.4622 101.657C63.4691 101.76 63.5147 101.856 63.5923 101.924C63.67 101.991 63.7712 102.025 63.8739 102.018C64.0649 102.014 64.2201 101.864 64.23 101.673C64.2536 101.535 64.2673 101.396 64.2695 101.256C64.281 100.955 64.2772 100.654 64.2581 100.354C64.2208 99.956 64.3974 99.7353 64.7329 99.5451C66.5622 98.5049 68.3801 97.4419 70.2031 96.3881C70.7403 96.0792 71.2836 95.774 71.8201 95.4605C72.0141 95.3479 72.1115 95.37 72.1054 95.6196C72.091 95.8806 72.091 96.1415 72.1054 96.4018C72.1343 96.7335 72.2842 96.8903 72.5277 96.8903C72.7705 96.8903 72.9143 96.7404 72.9409 96.3934C72.9706 96.0533 72.9706 95.7124 72.9409 95.3722C72.8991 94.9522 73.0664 94.7209 73.4294 94.517C75.2959 93.4631 77.1496 92.3826 79.0077 91.3113C79.5464 91 80.0791 90.682 80.6186 90.3723C80.7624 90.2909 80.8818 90.2643 80.8658 90.5116C80.8461 90.8319 80.8438 91.1545 80.8544 91.4749C80.8674 91.8591 80.9937 92.0273 81.2501 92.0448C81.5065 92.0623 81.6678 91.8964 81.7051 91.4657V91.1058C81.7188 90.7847 81.7135 90.4636 81.6914 90.1433C81.6488 89.9028 81.7789 89.6647 82.0049 89.5711C84.3189 88.2455 86.6289 86.9139 88.9353 85.577C89.3287 85.3563 89.3774 85.3738 89.3774 85.7977V86.8203C89.3774 87.1605 89.5257 87.3241 89.7616 87.3332C89.9983 87.3423 90.1573 87.165 90.1794 86.7899V86.4893C90.1794 86.1096 90.2037 85.7246 90.1794 85.3472C90.1177 85.0261 90.2927 84.7057 90.5963 84.5848C91.1313 84.3131 91.6434 83.9928 92.1646 83.7013C93.3425 83.0211 94.5212 82.3408 95.6991 81.662C95.9951 81.4916 96.0042 81.5007 96.0126 81.8561C96.0217 82.2114 96.0126 82.5386 96.0347 82.8787C96.0385 82.9815 96.0841 83.0788 96.161 83.1473C96.2378 83.2158 96.3398 83.2501 96.4425 83.2417C96.6335 83.2447 96.7941 83.0986 96.8093 82.9076C96.8336 82.7501 96.8466 82.5904 96.8489 82.4306C96.8489 82.0882 96.8641 81.748 96.8489 81.4079C96.8199 81.1439 96.9622 80.8905 97.2019 80.7763C98.6819 79.9325 100.153 79.0727 101.621 78.2228C101.943 78.0371 101.978 78.0615 101.992 78.4434C102.005 78.8254 101.992 79.1656 102.012 79.5262C102.009 79.629 102.05 79.7279 102.126 79.7971C102.201 79.8671 102.303 79.9014 102.405 79.8899C102.507 79.896 102.608 79.8587 102.681 79.788C102.755 79.7172 102.797 79.619 102.796 79.5171C102.808 79.3976 102.796 79.2766 102.796 79.1572C102.796 78.7554 102.814 78.3529 102.796 77.9534C102.762 77.6894 102.912 77.4352 103.161 77.3386C103.537 77.1461 103.892 76.9209 104.266 76.7108C105.466 76.0192 106.66 75.326 107.862 74.6388C108.165 74.4669 108.198 74.4927 108.214 74.8222C108.229 75.1517 108.214 75.4233 108.247 75.7216C108.245 75.8243 108.284 75.924 108.358 75.9963C108.432 76.0678 108.532 76.1066 108.635 76.1013C108.849 76.1028 109.025 75.9369 109.037 75.7239C109.077 75.4865 109.083 75.2445 109.055 75.0056C108.916 74.1945 109.26 73.7592 109.982 73.3818C111.579 72.5471 113.117 71.5967 114.683 70.6995C115.17 70.421 115.178 70.4324 115.187 71.0046C115.181 71.2649 115.192 71.5251 115.217 71.7846C115.215 71.9976 115.386 72.1719 115.599 72.1757C115.868 72.1757 115.99 71.9991 116.027 71.7579C116.044 71.6187 116.05 71.4787 116.045 71.3379C116.045 70.978 116.056 70.6158 116.045 70.2551C116.018 70.0307 116.143 69.8169 116.352 69.7301C116.655 69.5734 116.944 69.3945 117.235 69.2218C117.478 69.0826 117.726 68.9502 117.96 68.798C118.28 68.588 118.371 68.3316 118.229 68.1002C118.088 67.8682 117.84 67.8461 117.483 68.0226C117.427 68.0493 117.377 68.0797 117.324 68.1109L114.724 69.6038C113.63 70.2354 112.539 70.8722 111.442 71.4992C111 71.758 110.987 71.7511 110.978 71.2124C110.965 70.4697 110.978 69.7256 110.936 68.9851C110.888 68.6024 111.102 68.2348 111.456 68.0842C113.46 66.9489 115.453 65.7885 117.45 64.6358C117.671 64.5056 117.892 64.3793 118.113 64.2355C118.337 64.1153 118.426 63.8391 118.314 63.61C118.225 63.4 117.967 63.327 117.686 63.4487C117.465 63.5439 117.268 63.6854 117.054 63.7957C116.798 63.9281 116.747 63.9038 116.743 63.6017C116.723 62.4968 116.723 61.3927 116.697 60.2878C116.697 60.0337 116.834 59.9386 117.012 59.8458C117.465 59.5871 117.92 59.3329 118.362 59.0567C118.753 58.814 118.855 58.5796 118.72 58.3361C118.585 58.0934 118.309 58.0622 117.918 58.2524C117.812 58.3034 117.708 58.3673 117.604 58.4267C117.098 58.7135 116.59 58.9943 116.091 59.2926C115.815 59.4539 115.551 59.635 115.3 59.8328C114.96 60.1067 115.017 60.4956 115.433 60.593C115.733 60.6569 115.771 60.7915 115.768 61.035C115.768 61.9961 115.737 62.9617 115.768 63.9227C115.818 64.3206 115.601 64.7034 115.234 64.8654C111.385 67.0613 107.547 69.2703 103.718 71.4929C99.1652 74.1347 94.6104 76.7812 90.0534 79.4323C89.9164 79.5137 89.7794 79.5982 89.6356 79.6689C89.4918 79.7397 89.415 79.6864 89.4013 79.5228C89.3883 79.2619 89.386 79.0016 89.364 78.7429C89.3701 78.6288 89.3259 78.52 89.2438 78.4416C89.1608 78.3632 89.0482 78.3252 88.9356 78.3366C88.8222 78.3358 88.7134 78.3838 88.6373 78.4682C88.5612 78.5527 88.5255 78.666 88.5376 78.7787C88.5194 79.0998 88.5194 79.4209 88.5376 79.742C88.5688 80.1529 88.4577 80.4382 88.0362 80.5752C87.8505 80.6513 87.674 80.7464 87.5081 80.8598C85.3183 82.1191 83.1298 83.3792 80.9422 84.6399C80.5709 84.8606 80.5557 84.8454 80.5534 84.439C80.5534 83.354 80.5534 82.272 80.542 81.1891C80.5154 80.9281 80.6569 80.6793 80.8943 80.5682C82.9975 79.3576 85.0915 78.1378 87.1863 76.9143C87.3712 76.7606 87.6261 76.7225 87.8491 76.8146C87.9571 76.88 88.0918 76.8823 88.2021 76.8199C88.3117 76.7575 88.3794 76.6403 88.3787 76.514C88.4137 76.0727 88.4137 75.6298 88.3787 75.1885C88.3718 75.0957 88.3277 75.0105 88.2569 74.9503C88.1854 74.891 88.0933 74.8621 88.0012 74.8704C87.8118 74.8613 87.6459 74.9968 87.617 75.1839C87.6117 75.2638 87.6025 75.3437 87.5881 75.4229C87.5394 75.5423 87.493 75.6991 87.3956 75.7585C86.85 76.0917 86.2907 76.3991 85.7299 76.7195C85.5465 76.8253 85.4666 76.7484 85.4651 76.565C85.4499 75.6816 85.4408 74.7974 85.4278 73.9141C85.4286 73.7086 85.5541 73.5245 85.7459 73.4499C86.2032 73.2003 86.6514 72.9333 87.1026 72.6723C87.2822 72.5444 87.5081 72.5033 87.7204 72.5596C88.0697 72.657 88.2371 72.511 88.2995 72.1465C88.3155 72.0072 88.3208 71.8672 88.3147 71.7265V66.7912C88.3147 66.6101 88.3147 66.4312 88.3018 66.2502C88.2843 65.996 88.2158 65.751 87.9152 65.7244C87.6147 65.6978 87.4914 65.8986 87.4732 66.1771C87.4701 66.3818 87.356 66.5682 87.1749 66.6633C86.4619 67.0697 85.7505 67.4813 85.0405 67.8983C84.8199 68.033 84.7689 67.9333 84.7689 67.7241V64.8964C84.7598 64.6933 84.8792 64.5053 85.0672 64.4277C85.6789 64.083 86.2869 63.73 86.8918 63.3761C87.0684 63.243 87.3043 63.2209 87.5021 63.3183C87.8224 63.4621 88.0393 63.3183 88.1078 62.9607C88.139 62.7621 88.1496 62.5604 88.1428 62.3596C88.1428 61.3985 88.1542 60.433 88.1298 59.472C88.1298 59.112 88.1983 58.8625 88.5582 58.7164C88.8169 58.6129 89.0422 58.431 89.294 58.3077C89.5459 58.1837 89.7886 58.1023 90.0367 58.0003C90.0587 58.2545 90.1029 58.5109 90.1006 58.7666C90.0877 64.303 90.0724 69.8394 90.0565 75.3759C90.045 75.6353 90.0641 75.8971 90.115 76.152C90.144 76.3247 90.2543 76.4716 90.4126 76.5469C90.5701 76.6215 90.755 76.6146 90.9064 76.5271C90.9977 76.4853 91.0852 76.4366 91.1689 76.3818C96.5927 73.2666 111.404 64.7657 113.393 63.6433C113.576 63.5565 113.699 63.3792 113.716 63.1768C113.738 62.9569 113.748 62.7355 113.747 62.5141C113.741 59.6173 113.738 56.7146 113.736 53.8055ZM31.3659 82.0603V81.5102V81.3907C31.388 80.9928 31.4192 80.973 31.7859 81.1807C32.7097 81.7065 33.6304 82.2392 34.5497 82.7695C35.3144 83.2116 36.0738 83.6529 36.843 84.095C37.1587 84.2693 37.4083 84.2206 37.5369 84.009C37.6648 83.7968 37.5788 83.4985 37.2828 83.3022C37.0819 83.1698 36.8696 83.0571 36.6619 82.9354C36.2441 82.6927 35.8226 82.4651 35.4155 82.2042C35.2869 82.1243 35.1956 81.9957 35.1614 81.8481C35.1324 81.3885 35.1614 80.9266 35.1614 80.4647C35.1614 80.2882 35.2496 80.2638 35.382 80.3407C35.627 80.4776 35.8705 80.6192 36.1155 80.7539C36.235 80.8277 36.3613 80.8901 36.4937 80.938C36.69 81.0133 36.913 80.9327 37.0149 80.7478C37.1344 80.5712 37.0918 80.3316 36.9175 80.2083C36.7463 80.0706 36.563 79.9473 36.3697 79.8423C35.172 79.1483 33.9727 78.4612 32.7752 77.7681C31.7875 77.1982 31.7898 77.1982 31.8651 76.0888C31.8917 75.7129 31.9115 75.6931 32.2387 75.8681C33.1647 76.3848 34.0855 76.9174 35.0069 77.4455C35.8264 77.9119 36.6436 78.3799 37.4654 78.8395C37.7378 78.9727 38.0658 78.8897 38.2431 78.6447C38.2628 78.6074 38.2187 78.5032 38.1723 78.4682C38.0597 78.386 37.9402 78.3122 37.817 78.2468C36.0075 77.2127 34.1957 76.1854 32.3886 75.1536C30.4963 74.0655 28.6046 72.9721 26.7153 71.8749L12.6247 63.7011C12.4634 63.6197 12.3112 63.5238 12.1681 63.4143C11.9779 63.2484 12.0707 63.0323 12.1681 62.8687C12.2016 62.8154 12.4132 62.8512 12.5326 62.8816C12.6452 62.9242 12.7518 62.9813 12.8507 63.0498L26.6674 70.9899L33.6457 74.9992C35.4133 76.0173 37.1938 77.0293 38.9629 78.052C39.1395 78.154 39.2985 78.2262 39.4317 78.0322C39.4986 77.9538 39.5283 77.8519 39.5146 77.7499C39.5009 77.6487 39.4438 77.5574 39.3586 77.5003C39.227 77.409 39.0908 77.3253 38.95 77.2485C33.1709 73.9095 27.3925 70.57 21.6141 67.2295C18.4579 65.4048 15.3032 63.5748 12.1499 61.7394C11.6751 61.4586 11.2665 61.4366 10.8244 61.7394C10.3823 62.0423 9.81239 62.3116 9.32465 62.6228C9.03701 62.8458 8.63601 62.8511 8.34382 62.6342C7.12408 61.9007 5.87618 61.2136 4.63885 60.5135C4.4859 60.4215 4.32307 60.3469 4.15262 60.2929C3.90761 60.2244 3.79042 60.3568 3.7927 60.6201C3.79499 60.8833 4.01336 60.9754 4.20588 61.0819C5.53139 61.8421 6.85682 62.5794 8.1672 63.3616C8.46929 63.599 8.89464 63.5983 9.19672 63.3608C9.58935 63.0846 10.0246 62.864 10.4492 62.6235C10.5139 62.5733 10.5968 62.552 10.6775 62.5664C10.7581 62.5801 10.8289 62.6273 10.873 62.6958C10.9286 62.7696 10.9506 62.8632 10.9339 62.9545C10.9172 63.045 10.8631 63.1242 10.7848 63.1736C10.7391 63.2132 10.6896 63.2482 10.6371 63.2794C10.0299 63.6264 9.4174 63.9688 8.80791 64.318C8.60322 64.4459 8.343 64.4398 8.14516 64.3021C6.88814 63.551 5.49422 62.8967 4.21968 62.1593C4.09261 62.0817 3.95184 62.0254 3.80575 61.9935C3.7814 62.1875 3.81868 62.2742 3.80575 62.4683C3.79281 62.7513 4.02641 62.8198 4.2212 62.9279C5.55965 63.6941 6.90565 64.452 8.23726 65.2319C8.46554 65.3985 8.77598 65.3993 9.00426 65.2326C9.70431 64.8065 10.4332 64.4238 11.141 64.0068C11.3563 63.8554 11.6462 63.8653 11.8501 64.0327C12.6742 64.5653 13.5226 65.0599 14.3688 65.5568C15.2522 66.0757 15.2522 66.0696 15.2218 67.0923V67.2734C15.1929 67.5473 15.1335 67.5869 14.8817 67.4454C14.1633 67.0474 13.4587 66.6259 12.7366 66.2325C12.2549 65.9715 11.7581 65.7554 11.8532 65.0508C11.8661 64.9404 11.6454 64.6931 11.5397 64.6969C11.3806 64.6969 11.2216 64.8674 11.0709 64.98C11.0375 65.0044 11.0595 65.0949 11.0443 65.152C10.9538 65.4875 9.96153 66.0887 9.5689 65.9563C9.34824 65.8786 8.81332 66.0757 8.78441 66.288C8.738 66.635 8.60103 66.5665 8.39787 66.447C7.58065 65.9783 6.76267 65.5119 5.94308 65.0462C5.7985 64.9404 5.63263 64.8659 5.45837 64.8255C5.28869 64.8194 5.12356 64.8811 4.99878 64.996C4.93866 65.0667 4.91127 65.1596 4.92345 65.2516C4.93638 65.3437 4.98812 65.4259 5.06497 65.4776C5.17454 65.5827 5.29933 65.6702 5.43629 65.7356C5.70793 65.8345 5.87002 66.1138 5.82056 66.3983C5.80534 66.7385 5.82056 67.0809 5.82056 67.421C5.82056 67.6843 5.82056 67.8631 5.44694 67.8631C5.07333 67.8631 5.00486 68.2763 5.24607 68.5388C5.34727 68.6408 5.46294 68.7275 5.58848 68.796C6.03057 69.0478 6.45668 69.2951 6.8942 69.5424C7.06465 69.6094 7.1765 69.7745 7.17498 69.9579C7.16204 70.4 7.17498 70.8413 7.17498 71.2834C7.17498 71.4493 7.10193 71.5041 6.95432 71.4135C6.55407 71.1928 6.15687 70.9516 5.75665 70.7264C5.62044 70.6389 5.47587 70.5651 5.32598 70.5058C5.23391 70.4601 5.12739 70.4555 5.03151 70.4936C4.93639 70.5309 4.86183 70.6077 4.82682 70.7043C4.81084 70.8733 4.84204 71.043 4.91737 71.1951C4.9577 71.2651 5.02313 71.3169 5.10075 71.3405C5.47436 71.4797 5.54283 71.7628 5.50099 72.1136C5.47436 72.2711 5.48958 72.4347 5.54664 72.5846C5.62578 72.7154 5.75361 72.8083 5.90275 72.8433C6.00471 72.8585 6.1371 72.7352 6.24288 72.6553C6.28244 72.6241 6.28244 72.545 6.30451 72.4894C6.44604 72.1341 6.4506 72.1273 6.78388 72.3152C7.30966 72.6089 7.82252 72.9247 8.35212 73.1986C8.60017 73.2991 8.75084 73.5517 8.72116 73.8173C8.70898 74.0585 8.71431 74.2997 8.73714 74.5394C8.73485 74.6444 8.77366 74.7463 8.84671 74.8217C8.91899 74.8977 9.01867 74.9419 9.12369 74.9442C9.35348 74.967 9.55969 74.8026 9.58708 74.5728C9.61523 74.4975 9.62512 74.4161 9.61599 74.3362C9.46153 73.6887 9.84807 73.3881 10.3518 73.1545C10.4423 73.1127 10.5238 73.0525 10.6128 73.0046C10.9202 72.841 10.9445 72.8524 10.9902 73.1728C11.0054 73.2724 10.9902 73.3759 11.0168 73.4733C11.0632 73.694 11.207 73.8644 11.4277 73.8249C11.5883 73.7701 11.7229 73.659 11.8074 73.5121C11.8668 73.3851 11.8911 73.2435 11.8782 73.1035C11.8782 72.8182 11.9999 72.8121 12.2099 72.9354C12.9853 73.3927 13.7561 73.8431 14.5451 74.2982C15.7755 75.0142 17.002 75.7386 18.2386 76.4432C18.5042 76.5482 18.6617 76.8244 18.6168 77.1067C18.5833 77.265 18.5932 77.4286 18.6449 77.5815C18.721 77.7352 18.8496 77.8547 19.0071 77.9201C19.1973 77.9795 19.3404 77.8342 19.3982 77.6348C19.4142 77.577 19.4271 77.5176 19.4363 77.4583C19.4736 77.1996 19.6151 77.2506 19.7718 77.3457C19.8753 77.4073 19.9925 77.4651 20.0853 77.5245C22.1155 78.6978 24.1394 79.8864 26.1847 81.0331C26.6732 81.307 26.9974 81.5901 26.8916 82.1867C26.8733 82.2658 26.8863 82.3487 26.9251 82.4202C27.0202 82.5351 27.1457 82.6896 27.2629 82.7033C27.4151 82.6904 27.5559 82.6166 27.654 82.4994C27.7644 82.3822 27.8108 82.1037 27.9059 82.0931C28.0558 82.0756 28.2285 82.2186 28.3853 82.3137C28.5793 82.4195 28.765 82.5344 28.9575 82.647C30.2586 83.4003 31.5514 84.1711 32.8678 84.8939C33.2809 85.1146 33.462 85.3779 33.3936 85.8398C33.3608 86.0178 33.3692 86.2004 33.4179 86.3747C33.4712 86.5162 33.5785 86.6319 33.7162 86.695C33.9102 86.7658 34.0586 86.6242 34.1362 86.4454C34.1674 86.3503 34.1849 86.2514 34.1887 86.1517C34.2397 85.7097 34.2397 85.7097 34.6437 85.9311C35.4099 86.3732 36.1747 86.8145 36.9417 87.2436C37.0794 87.3289 37.2278 87.3943 37.3838 87.4392C37.4796 87.4757 37.5869 87.4712 37.6798 87.4263C37.7726 87.3814 37.8426 87.3007 37.8738 87.2033C37.9027 87.0344 37.8631 86.8609 37.7635 86.7217C37.6371 86.5923 37.4872 86.4888 37.3214 86.4165C35.6222 85.4312 33.9193 84.4526 32.2225 83.4603C31.2378 82.8996 31.3811 83.1735 31.3659 82.0603ZM119.806 37.6357C119.813 37.5155 119.813 37.3953 119.806 37.275C119.782 37.0544 119.747 36.8177 119.713 36.5902C119.517 36.6785 119.309 36.7538 119.121 36.8596C112.957 40.4191 68.1944 66.25 62.8084 69.3492C61.5582 70.0698 60.3119 70.7987 59.0526 71.4987C58.7482 71.6258 58.5671 71.9416 58.6105 72.268C58.6326 72.5884 58.6105 72.9087 58.6257 73.2313C58.6386 73.8941 58.6592 73.907 59.2398 73.576C59.293 73.5471 59.3432 73.5144 59.3942 73.4855C61.9943 71.972 116.562 40.3959 118.867 39.1356C119.532 38.784 120.075 38.5016 119.806 37.6357ZM57.7273 72.8719H57.6809V72.5714C57.6634 71.5883 57.8065 71.8112 56.9588 71.3189C53.6321 69.3877 11.268 44.9146 4.22431 40.8318C3.53035 40.43 2.84096 40.0229 2.14099 39.6318C1.85184 39.4705 1.77879 39.51 1.76967 39.822C1.75446 40.3851 1.74989 40.9466 1.76967 41.5074C1.79859 41.6573 1.8762 41.7943 1.9911 41.8947C2.11588 41.9952 2.25362 42.0796 2.39971 42.1466C4.38797 43.2842 50.278 69.7625 56.6692 73.4402C56.9606 73.6084 57.2703 73.7476 57.5709 73.8998C57.6257 73.5559 57.6786 73.2121 57.7273 72.8719ZM11.5535 55.4965H11.5246C11.5246 56.9811 11.5512 58.4656 11.5093 59.9501C11.4964 60.4409 11.6174 60.7567 12.0617 60.953C12.2253 61.026 12.3752 61.1318 12.5305 61.2201C16.6394 63.6018 20.7498 65.9833 24.8603 68.3651C29.4906 71.0412 34.1259 73.712 38.7653 76.3783C38.8353 76.424 38.9083 76.462 38.9859 76.4932C39.6357 76.7359 39.7217 76.8972 39.7286 76.0359C39.7438 73.0668 39.7286 70.0978 39.7529 67.1301C39.794 66.7512 39.5878 66.3898 39.2416 66.2315C30.2811 61.0763 21.3258 55.9135 12.3757 50.7423C12.2037 50.6426 12.0287 50.5414 11.8499 50.4531C11.6711 50.3649 11.5851 50.4379 11.5737 50.6236V50.9835C11.5607 52.4886 11.5535 53.9929 11.5535 55.4965ZM120.001 34.9984C120.008 34.8691 120.008 34.739 120.001 34.6096C119.967 34.309 119.866 34.2649 119.61 34.4262C119.353 34.5875 119.042 34.7998 118.748 34.9695C113.502 37.9987 61.4343 68.0747 59.239 69.3603C58.4902 69.8024 58.5983 69.9256 58.6074 70.6371C58.6074 70.8776 58.7444 70.9004 58.9255 70.803C59.1066 70.7056 59.312 70.5823 59.5022 70.4781C65.7121 66.8812 115.04 38.3742 119.489 35.8146C119.836 35.616 120.078 35.4002 120.001 34.9984ZM57.6708 75.3012C57.7264 75.0098 57.5529 74.7237 57.2691 74.6385C57.1435 74.5723 57.0218 74.4984 56.9046 74.4178C50.9718 70.9877 45.0337 67.562 39.0894 64.1401C27.4908 57.4433 15.8953 50.7457 4.30119 44.0471C4.18248 43.9718 4.05997 43.9026 3.93443 43.8394C3.79975 43.7755 3.71377 43.8151 3.6917 43.9809C3.58821 44.6087 3.6917 44.8271 4.24641 45.1497C11.3443 49.238 18.442 53.3279 25.5412 57.4194C34.4402 62.551 43.3374 67.6871 52.2338 72.8285C53.8994 73.7895 55.5628 74.7551 57.2306 75.7001C57.6218 75.9208 57.6568 75.8965 57.6727 75.4597C57.6712 75.4293 57.6708 75.3895 57.6708 75.3012ZM4.69284 53.1824H4.66392V59.4409C4.62131 59.7833 4.80545 60.1136 5.11894 60.2581C5.98486 60.7223 6.82415 61.2298 7.67717 61.716C8.41754 62.1384 8.42133 62.1361 8.41526 61.3029C8.38862 57.9937 8.36275 54.6799 8.33764 51.3616C8.33764 50.52 8.32243 49.6762 8.33764 48.8345C8.37188 48.5286 8.20829 48.2357 7.93132 48.1033C6.96573 47.5729 6.00698 47.0274 5.04137 46.4993C4.78494 46.3577 4.72559 46.3958 4.70124 46.6712C4.68602 46.8303 4.70124 46.9916 4.70124 47.1529L4.69284 53.1824ZM57.7994 70.3988C57.8504 70.1782 57.7111 70.0344 57.4966 69.9195C57.3908 69.8639 57.2911 69.7954 57.1853 69.7361C51.0082 66.1788 4.98846 39.5704 1.39062 37.4802C1.23768 37.3714 1.05201 37.3189 0.864834 37.3326C0.705802 37.3836 0.822985 38.0532 1.00636 38.194C1.0893 38.2503 1.17529 38.3012 1.26431 38.3461C3.74111 39.7713 47.0583 64.7465 53.3404 68.3872C54.6659 69.158 56.0112 69.9334 57.3504 70.7004C57.7256 70.9051 57.8062 70.8577 57.7994 70.3988ZM59.2132 6.47732C59.2132 6.10601 58.9613 5.90512 58.6699 5.97817C58.4979 6.02991 58.3335 6.10295 58.1814 6.19807L52.0841 9.70825C46.0264 13.2077 39.9682 16.7072 33.9089 20.2066C28.2356 23.4893 22.5653 26.7778 16.898 30.0712C16.7352 30.148 16.5891 30.2561 16.4688 30.3892C16.3874 30.5216 16.3676 30.683 16.4141 30.8313C16.4894 30.9439 16.6149 31.0124 16.7496 31.0147C16.9277 30.998 17.0989 30.9401 17.2511 30.8465C19.2911 29.6892 21.3273 28.5258 23.3596 27.3586C27.7561 24.8302 32.1504 22.2963 36.5417 19.7585C43.7095 15.6184 50.8781 11.4759 58.0449 7.33204C58.3386 7.1616 58.646 7.00713 58.9284 6.81539C59.0394 6.71723 59.1371 6.60441 59.2132 6.47732ZM53.571 62.6889C53.523 62.5824 53.4568 62.4842 53.3762 62.399C53.2187 62.2765 53.0497 62.1677 52.8725 62.0748L41.7776 55.6679C34.536 51.4822 27.2951 47.3038 20.0542 43.1325C17.5858 41.7066 15.1152 40.2936 12.6421 38.8934C12.4953 38.7892 12.3309 38.7139 12.1559 38.672C11.9855 38.6537 11.8158 38.707 11.6857 38.8181C11.6218 38.8988 11.5959 39.003 11.6149 39.1042C11.6332 39.2047 11.6948 39.2929 11.7823 39.3462C11.9261 39.455 12.0775 39.5532 12.2358 39.6399C16.0655 41.864 19.8982 44.0866 23.7347 46.3071C30 49.9306 36.2669 53.5503 42.5354 57.1676C45.8005 59.0532 49.0633 60.9394 52.3245 62.8273C52.5262 62.9575 52.7415 63.0655 52.9667 63.1484C53.1113 63.2063 53.2749 63.1834 53.3989 63.0891C53.5222 62.9955 53.5885 62.8434 53.571 62.6889ZM56.6641 27.6748C56.6489 27.9776 56.7326 28.1655 56.9913 28.2295C57.1108 28.2614 57.2371 28.2432 57.3413 28.1777C57.4456 28.1123 57.5179 28.0058 57.5407 27.8848C57.578 27.7706 57.6076 27.6542 57.6289 27.5355C57.7659 26.9101 57.896 26.2831 58.0307 25.6553C58.227 24.7475 58.1722 24.9127 58.8456 25.3C63.2065 27.8035 67.5658 30.3075 71.9219 32.811C72.0756 32.9046 72.2377 32.9868 72.4044 33.0545C72.4942 33.104 72.5999 33.1146 72.6973 33.0827C72.7947 33.0515 72.8754 32.9815 72.9195 32.8886C72.972 32.706 72.9492 32.5097 72.8571 32.3431C72.7445 32.2038 72.5992 32.095 72.4333 32.0273C71.4966 31.4825 70.5591 30.9415 69.6208 30.4035C67.3603 29.1107 65.1003 27.8172 62.841 26.5244C61.4821 25.7505 60.1299 24.9668 58.7687 24.2044C58.4902 24.0453 58.3601 23.8955 58.4659 23.5416C58.618 23.025 58.6865 22.4855 58.8014 21.9551C58.8326 21.8197 58.8547 21.6812 58.8638 21.542C58.8851 21.3335 58.7451 21.1425 58.5389 21.1006C58.3129 21.0382 58.0785 21.1691 58.0131 21.3943C57.953 21.564 57.9073 21.7383 57.8761 21.9156C57.7727 22.4064 57.6555 22.8941 57.5802 23.3895C57.5353 23.7486 57.3078 24.0591 56.9798 24.2113C55.1978 25.2141 53.4225 26.2262 51.6534 27.2465C47.9714 29.3641 44.2892 31.4856 40.6072 33.6093C40.4596 33.6709 40.3287 33.7653 40.223 33.8855C40.1332 34.0308 40.0997 34.2051 40.1301 34.3732C40.1583 34.4729 40.2275 34.5551 40.3196 34.6007C40.4124 34.6456 40.5205 34.6487 40.6156 34.6099C40.8043 34.5444 40.9854 34.4585 41.1551 34.3535C43.2727 33.1307 45.3903 31.9086 47.5063 30.6859L56.7058 25.3398C56.8283 25.2781 56.9546 25.2226 57.0832 25.1747C57.0832 25.3268 57.1007 25.4798 57.0984 25.632C57.0878 25.6906 57.071 25.7476 57.0505 25.8039C56.9151 26.4355 56.7804 27.0762 56.6571 27.675L56.6641 27.6748ZM43.5718 74.3726H43.5604V73.3499C43.5604 71.9872 43.5406 70.6213 43.5604 69.2585C43.5962 68.8933 43.3907 68.5463 43.0529 68.4032C42.483 68.1095 41.948 67.7648 41.3804 67.4536C41.1727 67.3387 40.9383 67.2573 40.7177 67.1599C40.5411 67.08 40.4529 67.1713 40.4148 67.3304C40.3996 67.4285 40.3943 67.5282 40.3996 67.6279V77.859C40.3783 78.1215 40.5252 78.3688 40.7664 78.4746C41.5395 78.8984 42.2996 79.3451 43.0643 79.7826C43.1465 79.8412 43.2394 79.88 43.3375 79.8975C43.406 79.8975 43.53 79.8381 43.5407 79.7872C43.5665 79.6289 43.5757 79.4683 43.5673 79.3078L43.5718 74.3726ZM60.9344 84.3338H60.9633V85.237V86.1387C60.9633 86.3266 61.0713 86.3837 61.2441 86.2886L61.505 86.1402C63.125 85.1906 64.7519 84.2417 66.3856 83.2944C67.8496 82.4491 69.3083 81.6037 70.7609 80.759C71.1231 80.5383 71.1231 80.5026 70.7761 80.2971C69.8265 79.7379 68.8692 79.1923 67.9196 78.6292C67.7545 78.5113 67.5331 78.512 67.3672 78.63C66.9251 78.8993 66.4655 79.1512 66.0128 79.4122C64.4666 80.2956 62.9197 81.1798 61.3736 82.0631C61.0738 82.1932 60.895 82.5029 60.9323 82.8271C60.952 83.3308 60.9344 83.8323 60.9344 84.3338ZM57.947 82.7473H57.9272V82.2656V77.7565C57.9272 77.4955 57.9447 77.2376 57.6624 77.0763C56.8802 76.6342 56.1163 76.1639 55.3226 75.7219C55.0464 75.5674 54.971 75.6184 54.9604 75.9425C54.9383 76.5611 54.914 77.182 54.914 77.803C54.914 79.0044 54.9315 80.2067 54.9269 81.4082C54.9269 82.9544 54.9003 84.5013 54.8805 86.0369C54.8805 86.3329 54.9178 86.5779 55.2183 86.7438C56.0089 87.1858 56.7843 87.6272 57.5666 88.0807C57.6175 88.1119 57.6792 88.1667 57.7256 88.1583C57.8055 88.1431 57.9196 88.1012 57.9463 88.0434C57.9706 87.9255 57.9767 87.8052 57.9653 87.6858L57.947 82.7473ZM81.8365 9.40166C81.8608 9.02577 81.6158 8.79445 81.3305 8.85836C81.1387 8.91315 80.9561 8.99685 80.7887 9.10565C76.8122 11.4036 72.8409 13.7032 68.8744 16.0049C68.0259 16.4972 67.173 16.9857 66.3337 17.4962C65.7706 17.8386 65.779 18.2868 66.3337 18.6581C66.4174 18.7137 66.5018 18.7662 66.5901 18.8149C71.269 21.5321 75.9486 24.2479 80.6273 26.9627C80.7453 27.038 80.8731 27.0959 81.0078 27.1332C81.2056 27.21 81.4301 27.1179 81.5161 26.9231C81.6112 26.7367 81.5625 26.5085 81.3989 26.3776C81.2878 26.2931 81.1698 26.2193 81.0451 26.1569L67.5465 18.3956C67.0055 18.0843 67.0077 18.0775 67.5708 17.7549C71.3944 15.5589 75.2188 13.3636 79.0437 11.1691C79.8435 10.7095 80.6455 10.2567 81.436 9.78194C81.5851 9.67236 81.7201 9.54548 81.8365 9.40166ZM44.3816 75.2555H44.3968V80.6702C44.4227 80.9502 44.2697 81.2158 44.0148 81.3329C43.5598 81.5848 43.1094 81.8458 42.6741 82.1304C42.4382 82.3237 42.0996 82.3297 41.8561 82.1464C41.0519 81.6556 40.2324 81.1922 39.4257 80.7189C39.205 80.5888 38.9836 80.4495 38.7432 80.3392C38.661 80.3156 38.572 80.3354 38.5073 80.3917C38.3703 80.8148 38.5286 81.2774 38.8961 81.5277C39.8328 82.0687 40.7809 82.5907 41.7085 83.1447C42.1111 83.4232 42.6445 83.4232 43.047 83.1447C46.4847 81.1253 49.9333 79.1232 53.3931 77.138C53.8032 76.96 54.0307 76.5171 53.9364 76.0796C53.8991 75.7722 53.8633 75.744 53.565 75.8894C53.4768 75.9335 53.3931 75.9913 53.3063 76.0416L46.7915 79.773C46.5305 79.9214 46.2702 80.0713 45.9986 80.193C45.6273 80.3612 45.4332 80.2486 45.3929 79.8377C45.3617 79.5174 45.3617 79.197 45.3617 78.8744C45.3617 76.0758 45.367 73.2688 45.3769 70.4527C45.3769 69.8584 45.1806 69.5936 44.6016 69.4323C44.546 69.4171 44.4113 69.4878 44.403 69.5358C44.3794 69.6948 44.3718 69.8554 44.3794 70.0151C44.3794 71.7652 44.3801 73.5115 44.3816 75.2555ZM92.5112 29.8336C92.3643 29.8107 92.2144 29.8153 92.0691 29.8465C91.9101 29.9043 91.7784 30.02 91.7023 30.1714C91.6658 30.268 91.6742 30.3761 91.7252 30.4659C91.7754 30.5557 91.8637 30.6188 91.9656 30.6378C92.1558 30.698 92.3522 30.739 92.5508 30.7588C93.702 30.8889 94.8571 31.0038 96.0083 31.1385C98.5954 31.4436 101.18 31.7617 103.767 32.0661C107.109 32.4579 110.453 32.8437 113.799 33.2234C115.432 33.4114 117.064 33.5993 118.697 33.7736C118.914 33.8025 119.134 33.7827 119.342 33.715C119.478 33.6442 119.571 33.511 119.589 33.3589C119.561 33.209 119.469 33.0788 119.337 33.0012C119.195 32.9282 119.038 32.8879 118.878 32.8818C115.394 32.4755 111.911 32.0714 108.428 31.6712L99.529 30.6439L92.5112 29.8336ZM42.0947 88.3768V89.5806C42.0947 89.9823 42.269 90.1771 42.5368 90.1863C42.8039 90.1954 42.9789 89.9983 42.9789 89.5966C42.9903 88.914 42.9789 88.2315 42.9789 87.5505C42.9789 87.2522 43.0451 86.9539 43.0519 86.667C43.0527 86.4844 43.16 86.3201 43.3274 86.247C44.9641 85.3172 46.597 84.3782 48.236 83.45C48.5495 83.2734 48.5586 83.2909 48.5807 83.6242C48.5776 83.784 48.5883 83.9446 48.6119 84.1021C48.6362 84.3151 48.8272 84.4681 49.0403 84.4445C49.2313 84.4353 49.3796 84.2756 49.3758 84.0846C49.4063 83.8259 49.4162 83.5649 49.407 83.3046C49.3614 82.9592 49.5562 82.6259 49.8796 82.4958C50.9509 81.9084 52.0024 81.2852 53.0609 80.6734C53.2162 80.5874 53.3645 80.4885 53.503 80.3774C53.678 80.2572 53.7313 80.0221 53.624 79.8387C53.5129 79.6355 53.2648 79.5526 53.0541 79.6485C53.0168 79.6622 52.9795 79.6789 52.9437 79.6972L52.3517 79.9863C52.3137 79.7908 52.2505 79.6005 52.1638 79.421C52.0824 79.2886 51.899 79.1295 51.7727 79.1379C51.6471 79.147 51.4896 79.3319 51.428 79.4758C51.3687 79.647 51.3542 79.8303 51.3839 80.0084C51.4326 80.4239 51.2621 80.6598 50.8999 80.8659C49.3842 81.725 47.8845 82.6153 46.3755 83.4881C46.186 83.5855 45.9912 83.6722 45.7926 83.749C45.7728 83.5527 45.7485 83.3579 45.7355 83.1616C45.7203 82.9143 45.6275 82.7195 45.3536 82.7089C45.1146 82.6914 44.9579 82.8611 44.9358 83.1882C44.916 83.4667 44.9533 83.7536 44.9138 84.0275C44.894 84.1995 44.8088 84.357 44.6771 84.4689C44.1909 84.7846 43.6811 85.0631 43.1774 85.3523C43.0206 85.4406 42.9567 85.3721 42.9567 85.2085V84.3068C42.9567 84.1409 42.8996 84.0352 42.7003 84.0968C42.6082 84.1341 42.5093 84.1516 42.4104 84.1485C42.1585 84.1135 42.0877 84.2299 42.09 84.4537V85.4763C42.09 85.8187 42.0588 85.8408 41.7583 85.6749C41.0955 85.3082 40.4328 84.9239 39.77 84.5526C39.5684 84.424 39.353 84.3167 39.1278 84.2345C38.9802 84.1949 38.8227 84.2261 38.7009 84.319C38.6127 84.4666 38.583 84.6424 38.6172 84.8113C38.6621 84.9437 38.7588 85.0532 38.8843 85.1141C39.1628 85.2602 39.2024 85.4832 39.1955 85.7639C39.1826 86.3453 39.1955 86.9281 39.1955 87.5095C39.2123 87.8717 39.4793 88.1714 39.8362 88.2331C39.9055 88.2186 39.9625 88.1715 39.9915 88.1075C40.0166 87.9493 40.028 87.7887 40.0265 87.6282V86.1261C40.0265 85.9055 40.1124 85.8279 40.3202 85.9496C40.8239 86.241 41.3208 86.5393 41.8313 86.8178C42.014 86.9099 42.1159 87.1085 42.0855 87.3101C42.0901 87.6609 42.0946 88.0216 42.0946 88.3815L42.0947 88.3768ZM35.35 30.1667C35.6285 30.0206 35.8804 29.9019 36.1231 29.7626C40.5418 27.212 44.9603 24.6577 49.3782 22.101C51.7888 20.7093 54.2009 19.3236 56.6068 17.9258C56.816 17.82 56.9987 17.6686 57.1417 17.4837C57.2056 17.3247 57.1904 17.1451 57.0991 16.9998C57.0375 16.9115 56.8122 16.8871 56.673 16.9115C56.5193 16.9602 56.3755 17.0348 56.2469 17.1322C51.9569 19.593 47.6653 22.0552 43.3738 24.5176C40.7684 26.015 38.1675 27.5186 35.5705 29.0266C35.3948 29.121 35.2312 29.2359 35.082 29.369C34.9283 29.5144 34.9078 29.7518 35.0341 29.9215C35.1269 30.0173 35.2336 30.0997 35.35 30.1667ZM9.08598 55.4703H9.04641V59.5526C9.04641 60.2747 9.02663 60.9953 9.02891 61.7152C9.02891 62.082 9.09511 62.1155 9.4048 61.9496C9.71373 61.7837 9.9481 61.6049 10.2395 61.4793C10.7098 61.2785 10.8559 60.9604 10.849 60.4498C10.8201 58.0088 10.8315 55.5656 10.8292 53.1223V50.2985C10.8292 50.1327 10.8072 49.8876 10.7014 49.8146C10.2593 49.5117 9.77993 49.2553 9.30742 48.9974C9.27242 48.9776 9.12404 49.0544 9.11491 49.1054C9.09361 49.2629 9.086 49.4235 9.09285 49.5833L9.08598 55.4703ZM23.4991 32.6172C23.4063 32.6172 23.2648 32.6369 23.1255 32.659C16.8647 33.5782 10.6056 34.4989 4.34704 35.4204C3.9917 35.4714 3.63788 35.5399 3.28633 35.6213C3.0786 35.6593 2.93859 35.8541 2.96675 36.0634C2.96675 36.2977 3.14861 36.491 3.38221 36.5054C3.50091 36.5229 3.62114 36.5229 3.73983 36.5054C4.29682 36.4301 4.84468 36.3487 5.40547 36.2665C7.72313 35.9218 10.0447 35.5665 12.3557 35.2324C16.0248 34.7066 19.6947 34.1915 23.366 33.6863C23.4855 33.6771 23.6057 33.6581 23.7221 33.6292C23.9999 33.5493 24.1939 33.299 24.2015 33.0106C24.1619 32.7298 23.9435 32.5974 23.4991 32.6172ZM57.5841 57.091V67.4349V67.976C57.5993 68.2187 57.6967 68.418 57.9638 68.4355C58.2309 68.453 58.3618 68.2788 58.3945 68.0338C58.4219 67.8352 58.4379 67.6343 58.4394 67.4342C58.4614 60.4999 58.482 53.5651 58.501 46.6283C58.5063 46.4685 58.4957 46.3087 58.4698 46.1512C58.4439 45.9404 58.2628 45.7837 58.0505 45.789C57.839 45.7829 57.6579 45.9389 57.6328 46.1489C57.6115 46.2669 57.6031 46.3871 57.6085 46.5065C57.5971 47.5893 57.5796 48.6713 57.5773 49.7541C57.5788 52.2006 57.5811 54.6454 57.5841 57.091ZM90.7555 41.6704C90.7334 41.3036 90.4793 41.1134 90.1924 41.1979C90.0037 41.2633 89.8234 41.3516 89.656 41.4604C84.0785 44.7004 78.5017 47.9373 72.9258 51.1697C72.8063 51.2382 72.6518 51.2975 72.5879 51.4063C72.4905 51.5433 72.4525 51.7137 72.4837 51.8788C72.5948 52.0051 72.7576 52.0736 72.925 52.0645C73.1008 52.0272 73.2659 51.9519 73.4089 51.8438L90.0311 42.318C90.2099 42.2275 90.3796 42.1194 90.5371 41.9954C90.6253 41.8988 90.6992 41.7891 90.7555 41.6704ZM46.0777 77.8319V78.6118C46.0777 79.343 46.0777 79.3453 46.694 78.9983L46.7975 78.9367L50.8426 76.5817C51.5875 76.1487 52.3302 75.7135 53.0698 75.2759C53.2159 75.1899 53.359 75.0903 53.1117 74.9442C52.436 74.5531 51.7573 74.1665 51.0884 73.7625C50.9103 73.6628 50.6881 73.6841 50.5321 73.8157C49.1602 74.6025 47.7906 75.3931 46.4163 76.1731C46.1919 76.2743 46.0557 76.5049 46.0762 76.7499C46.0892 77.1098 46.0777 77.4697 46.0777 77.8319ZM25.188 43.1664C25.0708 43.2699 24.9011 43.3498 24.8897 43.4472C24.8677 43.6176 24.9103 43.7888 25.0092 43.9281C25.1728 44.0757 25.3577 44.1974 25.5571 44.2903L41.616 53.6108C41.7188 53.6739 41.8253 53.731 41.9364 53.7789C42.2346 53.909 42.4469 53.8695 42.5702 53.6663C42.6942 53.4631 42.6341 53.2067 42.3495 53.0036C42.1837 52.8887 42.0049 52.7981 41.8329 52.6984L30.9108 46.3912C29.1919 45.4013 27.4723 44.4158 25.7527 43.435C25.5792 43.343 25.3957 43.2676 25.188 43.1664ZM84.6409 39.371V35.9401C84.6409 35.5292 84.4842 35.317 84.2346 35.304C83.9851 35.2911 83.8412 35.4699 83.826 35.9204C83.7971 36.7026 83.7666 37.4863 83.7925 38.2663C83.8412 38.668 83.6168 39.0538 83.2424 39.2098C81.837 39.976 80.4522 40.7872 79.0604 41.5824C78.9196 41.6585 78.7841 41.7452 78.6563 41.8411C78.4745 41.9499 78.4113 42.1827 78.5125 42.3684C78.6053 42.5586 78.8275 42.6461 79.0246 42.5701C79.195 42.5153 79.3579 42.4415 79.5108 42.3486C80.4825 41.7856 81.4481 41.2134 82.416 40.6472C82.7804 40.4266 83.1472 40.2295 83.5208 40.0195C83.6996 39.916 83.775 39.9776 83.775 40.1739C83.775 40.8367 83.7354 41.4994 83.775 42.1622C83.8123 42.6811 83.603 42.9467 83.1632 43.1849C81.738 43.9602 80.3379 44.782 78.9303 45.5909C78.75 45.6769 78.5895 45.7987 78.457 45.9478C78.3817 46.0802 78.3756 46.2408 78.4418 46.3785C78.5491 46.4827 78.6967 46.536 78.8459 46.5246C78.9821 46.4934 79.1099 46.4333 79.2195 46.3473C80.8828 45.3794 82.5333 44.4009 84.2103 43.449C84.5215 43.3029 84.7049 42.9734 84.6653 42.6317C84.6273 41.536 84.6409 40.4529 84.6409 39.371ZM60.3775 15.7484C60.6225 15.6312 60.8462 15.543 61.0402 15.4258C62.3657 14.6748 63.6911 13.9192 65.0167 13.159L75.7555 6.97352C75.8826 6.91265 76.002 6.83732 76.1116 6.74982C76.2836 6.62807 76.3384 6.39752 76.2394 6.2111C76.1352 6.02924 75.9176 5.9463 75.7182 6.01251C75.547 6.06349 75.3834 6.13806 75.232 6.23317C72.8754 7.59293 70.5143 8.95502 68.1495 10.3199C65.6179 11.7931 63.0887 13.2654 60.5632 14.7386C60.408 14.8208 60.2703 14.9319 60.1569 15.0658C60.0854 15.1815 60.0679 15.3223 60.1082 15.4524C60.1349 15.5627 60.274 15.6404 60.3775 15.7484ZM104.874 28.5865C104.832 28.1908 104.596 28.0721 104.37 27.9412L91.9699 20.73C91.8261 20.625 91.6617 20.5504 91.4882 20.5093C91.3178 20.4933 91.1473 20.5451 91.0134 20.6524C90.8703 20.8106 90.8802 21.0541 91.0355 21.2002C91.1488 21.3128 91.2774 21.408 91.4182 21.4833C91.9371 21.7861 92.4606 22.0798 92.9826 22.3667C96.6441 24.4699 100.307 26.57 103.971 28.6671C104.138 28.7721 104.33 28.8284 104.527 28.8292C104.664 28.8223 104.784 28.6565 104.883 28.5857L104.874 28.5865ZM105.939 34.1669C105.941 34.0353 105.884 33.9098 105.784 33.8238C105.685 33.7385 105.551 33.702 105.422 33.7248C105.248 33.7713 105.083 33.8466 104.933 33.9455C101.498 35.9414 98.0602 37.9403 94.6209 39.9438C94.4756 40.0085 94.3439 40.1036 94.2366 40.2215C94.1491 40.3509 94.1164 40.5099 94.1461 40.6636C94.172 40.7542 94.2344 40.8295 94.3181 40.8721C94.4025 40.9139 94.5007 40.9185 94.5882 40.8843C94.7229 40.847 94.8515 40.7914 94.9701 40.7192C98.462 38.7264 101.953 36.7304 105.442 34.7324C105.567 34.67 105.682 34.587 105.782 34.4889C105.852 34.3892 105.908 34.2811 105.948 34.1663L105.939 34.1669ZM71.4738 55.3001C71.4837 55.1745 71.4381 55.0505 71.3475 54.963C71.2577 54.8755 71.1329 54.8329 71.0082 54.8466C70.8324 54.8793 70.6635 54.9447 70.5113 55.0383C69.8995 55.383 69.2961 55.7384 68.6912 56.0899C66.146 57.5699 63.603 59.0521 61.0607 60.5366C60.8819 60.6264 60.7229 60.7528 60.5943 60.9064C60.4954 61.0449 60.4565 61.2184 60.4877 61.3858C60.5539 61.6263 60.799 61.6065 60.9938 61.5601C61.1642 61.506 61.327 61.4322 61.48 61.3394L67.9485 57.6475C68.9559 57.0707 69.9588 56.4856 70.9709 55.9134C71.2281 55.8007 71.4168 55.5732 71.4792 55.2993L71.4738 55.3001ZM28.1011 40.6039H28.1232C28.1589 41.3237 28.1536 42.0451 28.1057 42.7642C28.0151 43.5395 28.2959 43.9656 28.9891 44.2951C29.7622 44.6641 30.4782 45.1542 31.2269 45.5765C31.5343 45.7484 31.7458 45.7089 31.8607 45.5103C31.9817 45.2706 31.8919 44.9784 31.6576 44.8475C31.5252 44.7585 31.3882 44.6763 31.2467 44.6025C30.6189 44.2472 29.9988 43.8819 29.3619 43.5418C29.0993 43.4307 28.9411 43.1621 28.9692 42.8791C28.9867 42.4591 28.9692 42.0375 28.9692 41.6175C28.9822 41.2439 29.0332 41.2157 29.3489 41.3968C29.9234 41.724 30.4865 42.0596 31.061 42.3951C31.2056 42.5009 31.373 42.5701 31.5495 42.5983C31.7222 42.5937 31.8835 42.5123 31.9916 42.3776C32.035 42.2323 32.0053 42.0755 31.9117 41.9561C31.7717 41.8138 31.6073 41.6974 31.4277 41.6114C30.752 41.2203 30.0802 40.8269 29.3908 40.4601C29.1085 40.3391 28.9418 40.0439 28.9845 39.7395C29.0111 39.2975 29.0043 38.8561 29.0065 38.414C29.0157 38.1934 29.0073 37.9719 28.9822 37.7513C28.9487 37.4614 28.7067 37.2407 28.4145 37.2323C28.0653 37.2719 28.1231 37.5618 28.1208 37.7916C28.0965 38.7214 28.1011 39.6671 28.1011 40.6039ZM35.3427 44.8011V47.3266C35.3427 47.6355 35.3717 47.9741 35.641 48.1393C36.7169 48.802 37.8126 49.4229 38.9015 50.0545C39.0696 50.1519 39.1625 50.0545 39.1997 49.8932C39.3184 49.5561 39.1579 49.184 38.8307 49.0387C38.0865 48.5966 37.3393 48.1773 36.5814 47.7664C36.3006 47.6424 36.134 47.351 36.1667 47.0458C36.1888 46.5071 36.1667 45.9653 36.1797 45.4243C36.1797 45.069 36.2611 45.0264 36.573 45.2037C37.1323 45.5126 37.6779 45.8512 38.2341 46.167C38.7911 46.4828 39.0429 46.4873 39.1951 46.24C39.3473 45.9928 39.2241 45.7538 38.6868 45.4426C38.0127 45.0492 37.3461 44.636 36.6499 44.2875C36.306 44.1544 36.1043 43.7967 36.1667 43.4338C36.1888 43.1553 36.1667 42.873 36.1667 42.5922C36.1903 42.3259 36.0366 42.0756 35.7893 41.9759C35.4005 41.7773 35.3472 41.7948 35.332 42.2209C35.3335 43.0822 35.3426 43.9444 35.3426 44.8058L35.3427 44.8011ZM52.9875 100.567C53.0492 100.543 53.11 100.517 53.1686 100.487C53.9311 100.045 54.695 99.604 55.4506 99.162C55.6713 99.0227 55.6713 98.9413 55.4088 98.7777C54.4965 98.2367 53.5818 97.7018 52.6558 97.1828C52.518 97.1128 52.3567 97.1067 52.2144 97.1668C51.4391 97.5869 50.6683 98.0244 49.9165 98.4726C49.6471 98.6316 49.6532 98.6932 49.9629 98.8705C50.8798 99.4032 51.8012 99.9267 52.7243 100.452C52.8133 100.498 52.9061 100.534 52.9876 100.571L52.9875 100.567ZM41.5327 90.0881C41.4665 90.0135 41.3919 89.945 41.312 89.8849C40.3799 89.337 39.441 88.7983 38.5111 88.2482C38.3612 88.1447 38.1618 88.1447 38.0112 88.2482C37.3484 88.6325 36.6857 88.9969 36.0229 89.3857C35.7444 89.5516 35.7444 89.6376 36.0229 89.8035C36.9551 90.3491 37.9009 90.8771 38.8354 91.4204C38.9883 91.5216 39.1869 91.5216 39.3391 91.4204C40.0018 91.0339 40.6516 90.6519 41.3075 90.2654C41.3874 90.2121 41.4619 90.1528 41.5327 90.0881ZM118.659 49.4113C118.642 49.0423 118.414 48.8657 118.146 48.9296C118.013 48.9699 117.886 49.0293 117.769 49.1046C117.212 49.4181 116.676 49.7803 116.094 50.0413C115.786 50.1463 115.596 50.4545 115.639 50.7771C115.639 52.0387 115.622 53.2979 115.617 54.5596C115.617 54.9614 115.657 55.3547 115.193 55.58C115.102 55.6294 115.039 55.7185 115.021 55.8204C115.002 55.9224 115.032 56.0274 115.1 56.1058C115.231 56.2131 115.397 56.2694 115.566 56.2648C115.704 56.2435 115.835 56.1887 115.947 56.1058C116.795 55.6127 117.64 55.1174 118.483 54.6212C118.569 54.5703 118.688 54.5261 118.723 54.4493C118.811 54.3032 118.846 54.1312 118.823 53.9623C118.73 53.82 118.58 53.7241 118.412 53.6998C118.255 53.6982 118.102 53.7424 117.97 53.8276C117.634 54.0018 117.307 54.1989 116.978 54.3869C116.536 54.641 116.536 54.641 116.523 54.1662C116.523 53.2052 116.536 52.2441 116.523 51.2946C116.495 50.9917 116.671 50.7064 116.954 50.5961C117.415 50.3556 117.865 50.0954 118.304 49.8138C118.441 49.6974 118.56 49.5619 118.659 49.4113ZM38.1004 98.1116C38.0829 98.4913 38.0875 98.871 38.1164 99.25C38.1613 99.4136 38.2853 99.5444 38.4474 99.5969C38.6163 99.5924 38.7746 99.5109 38.8766 99.3755C38.9557 99.2165 38.9915 99.0384 38.98 98.8611C38.9915 98.2204 38.993 97.5775 38.98 96.9368C38.9565 96.6925 39.0919 96.4612 39.3156 96.3623C39.7044 96.1568 40.0887 95.94 40.4623 95.6996C40.7408 95.5253 40.8161 95.2575 40.683 95.0368C40.5506 94.8161 40.3383 94.8161 40.04 94.966C39.7904 95.0939 39.556 95.2491 39.311 95.3838C39.0173 95.5451 39.0021 95.5337 38.9884 95.1806V94.7583C38.9884 94.4402 38.9884 94.1176 38.9489 93.8018C38.9222 93.5697 38.8096 93.378 38.5265 93.3886C38.4132 93.3848 38.3036 93.4252 38.2214 93.5028C38.1385 93.5796 38.089 93.6862 38.0852 93.7995C38.0571 94.0567 38.0449 94.3162 38.0502 94.5749C38.0502 94.8755 38.0852 95.176 38.0814 95.4766C38.0814 95.8144 38.0304 95.8411 37.7436 95.6798C37.2026 95.3769 36.6722 95.0543 36.135 94.7453C36.0087 94.6472 35.8603 94.5795 35.7036 94.546C35.5384 94.5376 35.3771 94.6015 35.2622 94.721C35.2113 94.8838 35.2303 95.0604 35.3147 95.2087C35.368 95.3168 35.5354 95.3807 35.6465 95.4515C36.0825 95.7345 36.536 95.9917 37.0024 96.2208C37.8448 96.5944 38.3591 97.1065 38.1004 98.1116ZM55.9819 100.246C55.9819 99.8503 55.8845 99.7818 55.5398 99.9211C55.4127 99.9804 55.2902 100.047 55.1715 100.12C54.6526 100.416 54.1108 100.683 53.6254 101.022C53.1391 101.36 52.7419 101.303 52.2557 101.005C51.4119 100.474 50.5368 99.988 49.6687 99.4957C49.5119 99.4097 49.3354 99.2088 49.1383 99.4181C48.9922 99.5771 49.0698 100.03 49.2487 100.184C49.2958 100.22 49.3461 100.252 49.3986 100.279C50.4524 100.893 51.5086 101.503 52.56 102.118C52.783 102.265 53.0714 102.269 53.2981 102.128C54.0933 101.669 54.8885 101.209 55.6904 100.757C55.8928 100.673 56.0131 100.463 55.9819 100.246ZM41.8937 91.3342C41.8937 90.8457 41.8343 90.7932 41.5315 90.9362C41.4257 90.9895 41.3237 91.058 41.2202 91.1173C40.648 91.4468 40.0713 91.7687 39.5013 92.105C39.1992 92.3142 38.799 92.3142 38.4962 92.105C37.6409 91.5883 36.7643 91.1044 35.8939 90.609C35.7425 90.5124 35.5835 90.4287 35.4191 90.3579C35.3324 90.3412 35.2433 90.3716 35.1847 90.437C35.0577 90.7391 35.1482 91.0891 35.4054 91.2923C36.3893 91.8729 37.3754 92.4466 38.3639 93.0158C38.6462 93.1877 39.0008 93.187 39.2831 93.015C40.0676 92.5729 40.8559 92.1316 41.6267 91.6743C41.7401 91.5822 41.8305 91.4658 41.8937 91.3342ZM66.313 48.2828C66.1646 48.1329 66.0725 47.9579 65.9553 47.9382C65.7628 47.9047 65.5635 47.9351 65.3892 48.0241C63.8933 48.8794 62.4087 49.7537 60.9218 50.6242C60.8693 50.6539 60.8184 50.6874 60.7697 50.7239C60.5817 50.8723 60.4607 51.0511 60.6015 51.2916C60.7103 51.4734 60.9416 51.5396 61.1296 51.4422C61.2787 51.3814 61.4225 51.3076 61.558 51.2208C62.6392 50.6068 63.7182 49.9904 64.7941 49.3718C65.1585 49.1641 65.5344 48.9678 65.8852 48.738C66.0435 48.6018 66.1874 48.4495 66.313 48.2828ZM35.7713 36.2292C35.7713 35.9819 35.5773 35.8495 35.3627 35.7255L31.033 33.2602C30.947 33.2115 30.8473 33.1324 30.7636 33.1407C30.5955 33.1415 30.4311 33.1948 30.2949 33.2929C30.1382 33.4634 30.2196 33.6749 30.3878 33.8233C30.4973 33.9077 30.6153 33.9815 30.7385 34.0447C32.1219 34.8535 33.5052 35.6632 34.8894 36.4751C35.0066 36.5512 35.1352 36.6091 35.2698 36.6471C35.3954 36.6813 35.5301 36.6524 35.6298 36.5687C35.7294 36.4858 35.7827 36.3586 35.7713 36.2292ZM57.3992 88.8079C57.3307 88.7447 57.2569 88.6861 57.1785 88.6336C56.5774 88.2798 55.974 87.9298 55.3668 87.5821C54.4834 87.0761 54.4834 87.0784 53.6152 87.6194C53.5817 87.6414 53.5444 87.6566 53.5117 87.681C53.2751 87.8446 53.2644 87.9016 53.5117 88.0546C54.1105 88.4145 54.72 88.7547 55.3234 89.1039C56.2753 89.6563 56.2753 89.6563 57.1747 89.0377C57.2257 89.0073 57.2744 88.9723 57.3201 88.9342C57.3505 88.8939 57.3771 88.8535 57.3992 88.8079ZM42.2509 81.5176C42.4875 81.3829 42.7326 81.2505 42.9692 81.1067C43.4113 80.8457 43.4113 80.8327 42.9913 80.5854C42.3597 80.2057 41.7213 79.8413 41.0821 79.4699C40.2429 78.9814 40.2406 78.9814 39.4515 79.5255L39.4005 79.5589C39.1799 79.7309 39.1616 79.7933 39.4135 79.9409C40.2725 80.4424 41.1407 80.9332 42.0073 81.4232C42.0895 81.4612 42.1755 81.4932 42.2615 81.5198L42.2509 81.5176ZM23.2227 38.3649C23.3353 38.2767 23.4943 38.2059 23.5583 38.0864C23.6039 37.9586 23.5917 37.8178 23.5255 37.6999C23.4297 37.5728 23.3064 37.4693 23.1656 37.397C22.1171 36.783 21.0648 36.1735 20.0086 35.5701C19.8975 35.4849 19.7666 35.4293 19.6282 35.4088C19.4585 35.4027 19.2918 35.4567 19.1579 35.561C19.0925 35.6393 19.0635 35.7421 19.078 35.8433C19.0932 35.9445 19.1503 36.035 19.2355 36.0913C19.3535 36.1986 19.4828 36.293 19.6221 36.3721C20.6531 36.961 21.691 37.5545 22.7372 38.1526C22.8955 38.231 23.0576 38.3018 23.2227 38.3649ZM46.146 72.4772H46.1612V73.6216V74.4632C46.1612 74.6488 46.2586 74.715 46.4351 74.629C46.6558 74.5187 46.9678 74.3886 46.9678 74.088C46.9678 72.4467 46.9548 71.8327 46.9526 70.8535C46.9678 70.7896 46.8727 70.7386 46.8042 70.6876C46.6893 70.6077 46.5675 70.5385 46.4397 70.4822C46.219 70.3673 46.1391 70.4624 46.1391 70.6724C46.1437 71.275 46.146 71.8761 46.146 72.4772ZM47.5179 72.5145V73.6855C47.5179 73.7852 47.591 73.7829 47.6305 73.8795C47.7416 73.8483 47.8459 73.7958 47.9372 73.7251C48.0079 73.633 48.046 73.5204 48.0452 73.4047C48.0582 72.8302 48.0452 72.2535 48.0566 71.6775C48.0726 71.4948 47.9691 71.3229 47.8002 71.2506C47.6435 71.173 47.5217 71.173 47.5172 71.383C47.5111 71.7612 47.5179 72.1408 47.5179 72.5145ZM48.6867 72.5434C48.7202 72.764 48.6532 72.9672 48.6867 73.1795C48.883 73.0958 49.1813 73.0136 49.3784 72.9276C49.3966 72.92 49.4134 72.9094 49.4286 72.8964C50.0053 72.5563 50.14 72.5829 49.4019 72.1561C48.7171 71.7634 48.7156 71.7634 48.6867 72.5434ZM61.0401 80.1608C60.9983 80.2316 60.945 80.278 60.9427 80.3289C60.9282 80.5641 60.9282 80.7984 60.9427 81.0328C60.9427 81.0792 61.0683 81.1675 61.0972 81.1545C61.3239 81.0427 61.5461 80.9194 61.7607 80.7855C61.785 80.7703 61.7896 80.6508 61.7607 80.6356C61.5507 80.4789 61.3186 80.335 61.0401 80.1608Z" fill="black"/>
<path d="M89.6088 30.0842C89.5715 30.1809 89.5183 30.2699 89.4521 30.349C89.3296 30.4517 89.1964 30.5408 89.0541 30.6146L73.3688 39.6261V39.6254C73.1854 39.7471 72.9875 39.846 72.7813 39.9213C72.652 39.9411 72.5211 39.8962 72.4321 39.8004C72.3811 39.7189 72.4518 39.5576 72.4785 39.4313C72.4785 39.3978 72.5272 39.3651 72.5599 39.3476C73.2356 39.025 73.5544 38.3775 73.9562 37.8015C75.8318 35.1505 77.712 32.4994 79.5657 29.8484V29.8477C79.7536 29.5403 80.1089 29.3774 80.4651 29.4368C82.2813 29.5692 84.1015 29.6734 85.9216 29.786C86.56 29.8256 87.2007 29.8697 87.8414 29.9055C88.2568 29.9276 88.6677 29.9808 89.0786 29.7952V29.7944C89.1852 29.7297 89.3176 29.7267 89.4272 29.7868C89.536 29.8461 89.6052 29.9595 89.609 30.0843L89.6088 30.0842ZM83.4233 31.5071L83.4226 31.5064C83.4477 31.3412 83.3769 31.1769 83.2407 31.0803C83.1038 30.9844 82.925 30.973 82.7773 31.0513C82.4547 31.2081 82.1397 31.3801 81.8346 31.5687C80.8035 32.1729 79.7725 32.7778 78.7414 33.385C78.3678 33.6057 78.275 33.8134 78.3968 34.0478C78.5185 34.2821 78.7787 34.3126 79.1835 34.0965L79.3357 34.0037L81.2114 32.9407C81.8171 32.5937 82.4288 32.2559 83.0231 31.8937C83.1707 31.7803 83.3047 31.6502 83.4226 31.5063L83.4233 31.5071Z" fill="black"/>
<path d="M45.7555 45.9034C45.7555 44.8632 45.7799 43.8201 45.7441 42.7822V42.7814C45.7015 42.4383 45.8955 42.1088 46.2174 41.9794C46.5712 41.7983 46.9045 41.5708 47.2515 41.3738C47.5985 41.1774 47.6205 41.1949 47.6228 41.5701V44.8732C47.6228 45.6136 47.6228 46.3532 47.5939 47.0934L47.5931 47.0942C47.5931 47.289 47.5376 47.4792 47.4341 47.6443C47.0103 48.2257 46.5507 48.7865 46.1086 49.3495C46.0431 49.4081 45.9686 49.4561 45.8879 49.4911C45.8605 49.4195 45.8423 49.3457 45.8324 49.2704V45.9102L45.7555 45.9034Z" fill="black"/>
<path d="M48.4615 43.4066V41.244C48.4447 40.7083 48.8191 40.2396 49.3457 40.1392C49.3921 40.1392 49.507 40.2366 49.5138 40.2959H49.5131C49.5283 40.5166 49.5321 40.738 49.5245 40.9587V44.7427V44.7435C49.5176 44.9017 49.4651 45.0555 49.3738 45.1848C49.1813 45.4656 48.9629 45.7258 48.7484 45.9914H48.7491C48.6943 46.0446 48.6342 46.091 48.5703 46.1306C48.5246 46.0515 48.4934 45.9655 48.4775 45.8765V43.4112L48.4615 43.4066Z" fill="black"/>
<path d="M50.3772 41.6415C50.4046 41.1826 50.4008 40.7215 50.3665 40.2635C50.2783 39.6251 50.5872 39.3001 51.1092 39.0681C51.3808 38.9463 51.4318 38.9532 51.4341 39.2423C51.4341 40.0618 51.3611 40.8882 51.4341 41.6993C51.5026 42.397 51.2287 42.8832 50.798 43.3497C50.7295 43.4227 50.6762 43.5087 50.61 43.5818L50.6093 43.581C50.5667 43.6213 50.521 43.6571 50.4723 43.6898C50.4388 43.6259 50.3795 43.5643 50.3795 43.5019V41.6414L50.3772 41.6415Z" fill="black"/>
<path d="M52.2473 39.8726C52.2473 39.4929 52.2625 39.1124 52.2473 38.735V38.7343C52.2222 38.5106 52.3485 38.2967 52.557 38.2108C52.8043 38.0806 53.0341 37.9193 53.2791 37.7847C53.5241 37.65 53.5994 37.6523 53.6063 37.9414C53.6192 38.4603 53.6063 38.9816 53.6063 39.5013C53.6154 39.6207 53.5903 39.7402 53.5332 39.846C53.1756 40.3276 52.802 40.7956 52.4284 41.2666C52.4063 41.2932 52.3401 41.3259 52.3333 41.3198L52.334 41.3191C52.2952 41.2871 52.2686 41.243 52.2587 41.1935V39.868L52.2473 39.8726Z" fill="black"/>
<path d="M91.0756 66.337V58.2227C91.0825 58.123 91.0825 58.0226 91.0756 57.9221C91.0094 57.4671 91.1951 57.1977 91.6037 56.968C93.3355 56.0001 95.0453 54.9926 96.7618 54.0013L112.122 45.1358C112.325 45.0186 112.546 44.9372 112.761 44.8376L112.761 44.8368C112.801 45.0658 112.827 45.2964 112.838 45.5285C112.827 48.3142 112.794 51.1 112.792 53.8855C112.792 56.0701 112.825 58.2555 112.843 60.4399C112.843 61.0829 112.828 61.7236 112.843 62.3643V62.365C112.877 62.6876 112.698 62.9966 112.401 63.1267C106.951 66.2638 101.502 69.4096 96.0525 72.5643C94.5786 73.4172 93.1102 74.2786 91.6338 75.1361H91.6346C91.5364 75.2061 91.4306 75.2624 91.318 75.3043C91.2419 75.2989 91.1735 75.2548 91.1369 75.1871C91.1179 75.0273 91.1118 74.866 91.1194 74.7054C91.1286 71.9197 91.0905 66.3369 91.0753 66.3369L91.0756 66.337ZM104.656 53.9805C104.656 54.8023 104.636 55.6263 104.656 56.4481V56.4489C104.71 56.8316 104.503 57.2045 104.147 57.359C103.401 57.7455 102.683 58.1876 101.951 58.6091C100.963 59.1791 99.9747 59.7513 98.9869 60.3258C98.7989 60.4338 98.5585 60.516 98.5646 60.7854C98.5783 61.0152 98.6041 61.2434 98.6422 61.4702C98.8301 61.4108 99.0135 61.337 99.19 61.2495C100.774 60.344 102.355 59.434 103.934 58.5208L104.354 58.2819C104.495 58.202 104.574 58.2446 104.599 58.4037C104.605 58.5239 104.605 58.6441 104.599 58.7636C104.599 60.8712 104.574 62.9768 104.599 65.0844C104.647 65.5029 104.421 65.9055 104.037 66.0805C102.356 67.0149 100.699 67.9957 99.0356 68.9636C98.5365 69.2528 98.4588 69.4323 98.5448 69.9863C98.5692 70.1407 98.6331 70.2069 98.7838 70.1347C98.8918 70.0837 99.0044 70.0266 99.1018 69.9665L103.536 67.4235C104.093 67.1031 104.641 66.7737 105.201 66.4601V66.4609C105.402 66.365 105.519 66.1512 105.493 65.9305C105.481 64.8257 105.513 63.7216 105.51 62.6167C105.51 60.3127 105.486 58.0087 105.473 55.7039C105.473 54.1577 105.473 52.6108 105.449 51.0647C105.427 50.8988 105.385 50.7352 105.325 50.5785C105.162 50.6447 104.954 50.6736 104.851 50.7991V50.7999C104.729 50.9475 104.66 51.1316 104.654 51.3234C104.641 52.2159 104.651 53.0994 104.651 53.9813L104.656 53.9805ZM97.8866 62.8771H97.8691V55.7792C97.8691 55.5981 97.8691 55.417 97.8577 55.2382C97.8265 54.9666 97.7428 54.927 97.5061 55.0176C97.1508 55.1522 97.064 55.4109 97.064 55.7731C97.064 57.4768 97.0199 59.1797 97.0222 60.8849H97.0229C97.064 61.2631 96.8586 61.6253 96.5124 61.7836C95.1869 62.5102 93.9101 63.2856 92.6134 64.048C92.4498 64.1211 92.3029 64.2268 92.1827 64.36C92.0914 64.5031 92.0633 64.6773 92.1051 64.8417C92.1401 64.9269 92.2094 64.9931 92.2961 65.0243C92.3828 65.0555 92.4787 65.0487 92.5601 65.0045C92.7466 64.9299 92.9269 64.8417 93.0996 64.7397C94.2128 64.1051 95.3261 63.4682 96.4378 62.8291L96.749 62.6503C96.9415 62.5445 96.9963 62.6388 96.994 62.8184V63.0589C96.994 65.2678 96.9811 67.4776 96.994 69.6758V69.675C97.0207 69.9939 96.8434 70.2944 96.5519 70.4261C95.158 71.2189 93.7769 72.0346 92.3943 72.8427V72.8434C92.2124 72.9241 92.0465 73.039 91.9065 73.1813C91.8144 73.3274 91.7871 73.5047 91.8312 73.6713C91.8662 73.7573 91.9354 73.825 92.0229 73.8562C92.1104 73.8874 92.2071 73.8798 92.2885 73.8349C92.4917 73.7512 92.688 73.6523 92.8759 73.5389C94.3734 72.6859 95.8602 71.8132 97.369 70.9854H97.3698C97.7168 70.834 97.9291 70.4786 97.8979 70.1012C97.8735 67.6891 97.8819 65.2921 97.8819 62.8771L97.8866 62.8771ZM111.862 54.8623V47.7623C111.869 47.582 111.86 47.4016 111.833 47.2228C111.785 46.9801 111.613 46.9268 111.378 47.0303C111.087 47.1581 111.06 47.3993 111.06 47.6756C111.06 49.3412 111.025 51.0046 111.047 52.671C111.099 53.1108 110.859 53.5347 110.455 53.7158C109.237 54.3785 108.058 55.0991 106.849 55.7679C106.509 55.9125 106.312 56.2701 106.372 56.6338C106.41 57.06 106.966 56.7799 107.368 56.5524C107.909 56.2473 107.901 56.2298 108.44 55.9209C109.202 55.4788 109.968 55.0374 110.733 54.5954C110.929 54.4827 111.031 54.5246 111.031 54.759V54.9401V61.4991C111.062 61.8423 110.872 62.168 110.559 62.3118C109.297 63.0141 108.054 63.7454 106.803 64.4728C106.439 64.6684 106.279 65.1067 106.432 65.4909C106.482 65.5632 106.565 65.6043 106.653 65.599C106.784 65.5511 106.909 65.4864 107.024 65.4072C108.464 64.5741 109.895 63.7279 111.349 62.9176C111.698 62.7601 111.906 62.3964 111.864 62.0159C111.842 59.6365 111.858 57.2487 111.858 54.8625L111.862 54.8623Z" fill="black"/>
<path d="M63.2059 92.7887C63.2059 92.2675 63.2211 91.7462 63.2059 91.2265V91.2273C63.1717 90.9465 63.3261 90.6764 63.5856 90.5646C64.7186 89.9284 65.8409 89.2702 66.9678 88.6181C68.2142 87.8998 69.4621 87.1777 70.7123 86.4618C71.092 86.2411 71.1057 86.2518 71.1057 86.652C71.1057 87.7348 71.0882 88.8146 71.1057 89.8949C71.1209 90.2 70.9444 90.4816 70.6636 90.6018C68.3397 91.938 66.019 93.2818 63.7021 94.6338C63.6336 94.6734 63.5628 94.7092 63.4943 94.7533C63.3018 94.8751 63.2029 94.8332 63.2029 94.5943V92.7939L63.2059 92.7887Z" fill="black"/>
<path d="M79.6886 84.8778C79.7244 85.1997 79.5448 85.5071 79.2465 85.6334C77.1724 86.8106 75.1111 88.0082 73.0474 89.2013C72.7864 89.3512 72.5331 89.5102 72.2675 89.6433C72.0027 89.7757 71.954 89.7453 71.9472 89.4508C71.9342 88.8497 71.9472 88.2493 71.9472 87.6482V86.1439C71.922 85.8799 72.0643 85.6288 72.3033 85.5139C74.6507 84.1693 76.9951 82.8187 79.3349 81.462C79.6925 81.2565 79.7412 81.2832 79.7504 81.6826C79.7504 82.251 79.6621 84.3762 79.6887 84.8776L79.6886 84.8778Z" fill="black"/>
<path d="M80.4634 75.0821C80.4824 75.3249 80.3485 75.5539 80.1271 75.6566C77.9181 76.9357 75.6955 78.23 73.4798 79.5159C73.2035 79.6749 73.148 79.646 73.1465 79.3059V76.1823C73.1465 75.8422 73.3253 75.6855 73.5886 75.5371C75.0183 74.7313 76.4442 73.9217 77.8657 73.1066C78.6144 72.6805 79.3616 72.2514 80.1103 71.8276H80.1095C80.2137 71.7758 80.3218 71.7302 80.4321 71.6929C80.4603 71.8017 80.4785 71.912 80.4877 72.0239C80.4808 72.5192 80.4519 74.5714 80.4633 75.0819L80.4634 75.0821Z" fill="black"/>
<path d="M76.0329 71.3188V69.9932C76.0146 69.749 76.1508 69.5192 76.3738 69.4165C78.7584 68.0567 81.1394 66.6946 83.5165 65.3297C83.8962 65.109 83.9585 65.144 83.9585 65.5816V68.1071H83.9578C83.9821 68.3696 83.8414 68.6207 83.604 68.7364C81.2269 70.1037 78.8566 71.4847 76.4819 72.8566C76.0687 73.0933 76.0398 73.0773 76.0398 72.5781C76.0284 72.1558 76.0398 71.7366 76.0398 71.3143L76.0329 71.3188Z" fill="black"/>
<path d="M84.5557 75.8338C84.5557 76.1937 84.5359 76.5559 84.5557 76.9143C84.5754 77.2719 84.4187 77.4865 84.1136 77.6676C81.6307 79.1278 79.2293 80.4403 76.7792 81.8852V81.8845C76.7282 81.918 76.6765 81.9476 76.6225 81.975C76.3615 82.1029 76.3021 82.0785 76.2869 81.8008C76.2717 81.4607 76.2869 81.1205 76.2869 80.7804C76.2755 80.3383 76.2869 79.897 76.2336 79.4549V79.4541C76.1712 79.1361 76.3394 78.8165 76.6377 78.6879C78.661 77.5526 80.672 76.3922 82.6846 75.2418C83.2234 74.9329 83.7606 74.6232 84.2955 74.3097C84.472 74.2062 84.5626 74.2541 84.5648 74.4466V75.8277L84.5557 75.8338Z" fill="black"/>
<path d="M76.4604 89.9563C76.4604 89.5743 76.4893 89.1915 76.4604 88.8141C76.4315 88.4367 76.5905 88.2731 76.8804 88.1095C77.9632 87.5 79.0346 86.8723 80.1105 86.2514L83.8663 84.0888C83.9523 84.0378 84.0383 83.983 84.1273 83.9404C84.3768 83.8187 84.4255 83.8476 84.4476 84.1413V84.5035C84.4476 85.2035 84.4362 85.9066 84.4476 86.609H84.4461C84.4803 86.9126 84.319 87.204 84.0443 87.3364C81.6139 88.7175 79.2148 90.1175 76.8003 91.5093C76.4868 91.6881 76.4709 91.6797 76.4671 91.3411C76.4557 90.88 76.4602 90.4181 76.4602 89.9563H76.4604Z" fill="black"/>
<path d="M59.1236 99.9784C59.1236 99.5987 59.1479 99.216 59.1236 98.8385C59.065 98.4779 59.2606 98.124 59.5961 97.981C61.4322 96.9606 63.2501 95.909 65.0724 94.8682C65.5609 94.592 66.0486 94.3158 66.5325 94.035C66.7266 93.9201 66.8483 93.9688 66.8529 94.1895C66.8727 95.1307 66.8749 96.072 66.8902 97.0132C66.8902 97.3024 66.6512 97.3602 66.4724 97.4553C65.1469 98.2329 63.8061 99.0015 62.4716 99.7729C61.4687 100.354 60.4681 100.942 59.463 101.521C59.1541 101.7 59.1335 101.689 59.1297 101.35V99.9693L59.1236 99.9784Z" fill="black"/>
<path d="M75.5581 90.6109C75.5581 90.9906 75.5337 91.3734 75.5581 91.7531V91.7538C75.5992 92.0574 75.4264 92.3496 75.1403 92.4607C73.2799 93.5237 71.4264 94.6034 69.5712 95.6771C69.0675 95.9686 68.5615 96.2516 68.0577 96.5408C67.8835 96.6427 67.7595 96.6625 67.7617 96.397C67.7617 95.4534 67.7747 94.5107 67.7617 93.5693C67.7617 93.2863 67.952 93.1957 68.1414 93.0877C69.0629 92.5573 69.9821 92.0247 70.9052 91.5012C72.2459 90.7365 73.5896 89.9809 74.9304 89.2215C75.0362 89.1622 75.1358 89.0937 75.2416 89.0404C75.5087 88.9057 75.5353 88.9164 75.5422 89.2261V90.6109L75.5581 90.6109Z" fill="black"/>
<path d="M92.6355 81.6248C92.6576 82.0296 92.475 82.4177 92.1501 82.6589C90.2348 83.7477 88.3304 84.8548 86.4235 85.9552C86.1625 86.1051 85.9046 86.258 85.6413 86.3972C85.4754 86.4901 85.3255 86.5167 85.3232 86.2534C85.3232 85.3122 85.3035 84.3686 85.3232 83.4281C85.3232 83.298 85.5066 83.1344 85.6436 83.0523C86.5917 82.4915 87.5504 81.9474 88.5024 81.3973L92.1433 79.2941C92.6249 79.0202 92.6272 79.0247 92.6318 79.603C92.6356 79.9926 92.6028 81.2451 92.6356 81.6248L92.6355 81.6248Z" fill="black"/>
<path d="M87.3842 69.6081C87.3842 70.0502 87.3576 70.4915 87.3842 70.9336C87.4284 71.2783 87.2351 71.6093 86.9132 71.7402C85.367 72.6236 83.8201 73.5078 82.2845 74.4026C82.2138 74.4422 82.1476 74.4886 82.0639 74.5221C81.8432 74.624 81.7215 74.8181 81.3768 74.8181C81.3524 74.5837 81.3083 74.3494 81.306 74.1135V71.5903V71.5895C81.2771 71.2867 81.4415 70.9975 81.7177 70.8674C83.4411 69.8935 85.1509 68.8967 86.8721 67.9136C87.3446 67.6442 87.3667 67.6594 87.3735 68.2317V69.615L87.3842 69.6081Z" fill="black"/>
<path d="M75.3912 81.1577C75.3737 81.4986 75.3737 81.8395 75.3912 82.1804C75.4414 82.4999 75.2649 82.8127 74.9651 82.9337C73.304 83.8681 71.6513 84.8245 70.0078 85.7749C68.9828 86.3646 67.9601 86.9612 66.933 87.5425C66.573 87.7503 66.5616 87.7388 66.5533 87.3104C66.5441 86.8821 66.5708 86.4666 66.5419 86.0466H66.5411C66.5084 85.7392 66.6796 85.4455 66.9634 85.3222L68.3703 84.5133C69.813 83.687 71.242 82.8477 72.7045 82.0433H72.7053C73.0241 81.8957 73.2052 81.5533 73.1466 81.2063C73.107 80.8023 73.279 80.5877 73.6282 80.4158C74.0947 80.1951 74.5337 79.9014 74.9873 79.6427C75.3274 79.4486 75.3715 79.4722 75.3829 79.8899C75.3936 80.3069 75.3913 80.7376 75.3913 81.1576L75.3912 81.1577Z" fill="black"/>
<path d="M99.0774 76.9112C99.0774 76.5094 99.0949 76.1069 99.0774 75.7097V75.7089C99.0417 75.4297 99.1946 75.1595 99.4533 75.0462C100.898 74.2244 102.325 73.3782 103.763 72.5427C103.984 72.4103 104.205 72.2756 104.441 72.1538C104.678 72.0321 104.764 72.0519 104.771 72.3327C104.784 72.9954 104.784 73.6582 104.771 74.3209C104.753 75.6046 104.947 75.2424 103.863 75.8785C102.396 76.7376 100.918 77.5837 99.4441 78.4299C99.1017 78.6239 99.0903 78.6156 99.0865 78.242V76.9165L99.0774 76.9112Z" fill="black"/>
<path d="M79.7435 65.3209C80.0417 66.2158 79.4543 66.6883 78.6013 67.141C76.9905 67.994 75.4398 68.9611 73.8647 69.8802C73.7613 69.9396 73.6593 70.0042 73.5535 70.059C73.2332 70.2272 73.1845 70.2074 73.1776 69.8384C73.1647 69.2175 73.1776 68.5943 73.1776 67.9741C73.1601 67.7504 73.2834 67.5396 73.4873 67.4461C75.468 66.3077 77.4479 65.1664 79.4254 64.022C79.6818 63.8736 79.7366 63.9071 79.7457 64.2008C79.7549 64.4945 79.7435 64.8392 79.7435 65.3209L79.7435 65.3209Z" fill="black"/>
<path d="M87.2714 60.8268C87.2402 61.2689 87.3376 61.7749 87.139 62.1127C86.9404 62.4506 86.4587 62.5701 86.0965 62.7755L81.2609 65.5788C81.1552 65.6381 81.0403 65.6891 80.9452 65.753C80.7549 65.8679 80.6317 65.8306 80.6271 65.6008C80.6157 64.8985 80.5982 64.1954 80.6271 63.4953C80.6271 63.3675 80.8211 63.2123 80.9627 63.1308C82.0142 62.5099 83.0772 61.9027 84.1349 61.2925C85.0564 60.7621 85.9733 60.2295 86.8963 59.706C87.228 59.518 87.2364 59.5272 87.2433 59.9266V60.8298L87.2714 60.8268Z" fill="black"/>
<path d="M93.4279 80.166C93.4279 79.7863 93.45 79.4035 93.4279 79.0238C93.3807 78.7225 93.5459 78.4281 93.8274 78.3101C94.8919 77.7136 95.9419 77.0926 96.9973 76.4786C97.291 76.3082 97.5824 76.1316 97.8807 75.9657C98.252 75.758 98.2809 75.7694 98.287 76.1689V77.6116C98.287 77.9913 98.2497 78.3717 98.2497 78.7514L98.2505 78.7522C98.2695 78.9965 98.1356 79.2263 97.9142 79.3313C96.5422 80.1158 95.1771 80.9155 93.8052 81.6992C93.4803 81.8848 93.4499 81.8605 93.443 81.4785V80.153L93.4279 80.166Z" fill="black"/>
<path d="M110.107 70.5786C110.107 71.0207 110.092 71.462 110.107 71.9041C110.132 72.1461 109.997 72.3766 109.774 72.474C108.521 73.1855 107.28 73.9144 106.029 74.6304C105.731 74.8008 105.614 74.7559 105.606 74.4341C105.583 73.5126 105.586 72.5919 105.606 71.6703L105.605 71.6696C105.629 71.5379 105.71 71.4231 105.825 71.3561C107.151 70.5784 108.492 69.8099 109.824 69.0429C110.018 68.9326 110.115 68.9569 110.113 69.2019V70.583L110.107 70.5786Z" fill="black"/>
<path d="M58.6085 91.2654C58.6085 90.0328 58.4099 90.366 59.4699 89.7497C61.3721 88.6449 63.2874 87.5628 65.1964 86.471C65.2824 86.42 65.3729 86.3758 65.4612 86.3271C65.6202 86.2412 65.6819 86.3271 65.6819 86.471C65.6819 87.0097 65.6994 87.5515 65.6598 88.0902C65.6598 88.2249 65.4764 88.3862 65.3395 88.4676C64.3936 89.0307 63.4372 89.5724 62.4853 90.1249C61.3082 90.8028 60.1303 91.4854 58.9508 92.1573C58.6457 92.3316 58.6213 92.3141 58.6061 91.9854C58.6084 91.7449 58.6084 91.5037 58.6084 91.2655L58.6085 91.2654Z" fill="black"/>
<path d="M72.273 73.7785V75.0401C72.273 75.2607 72.187 75.3383 71.977 75.2189C70.9163 74.6155 69.8518 74.0174 68.8001 73.4011V73.4003C68.6731 73.3105 68.5924 73.169 68.5787 73.0138C68.5597 72.192 68.5597 71.3702 68.5787 70.5485C68.5787 70.2235 68.7202 70.1551 69.0208 70.3278C70.0283 70.9023 71.0243 71.4988 72.0317 72.0794C72.2098 72.1799 72.3087 72.3785 72.2813 72.5809V73.7846L72.273 73.7785Z" fill="black"/>
<path d="M72.3619 79.0223C72.3619 79.2589 72.2622 79.3556 72.0218 79.2148C71.4869 78.9013 70.9436 78.6008 70.4048 78.2911C69.8661 77.9821 69.3289 77.6702 68.7879 77.3635H68.7871C68.5961 77.2897 68.4691 77.1071 68.4668 76.9017C68.482 76.2191 68.4668 75.5366 68.5041 74.8555C68.5239 74.4424 68.6281 74.3982 68.9857 74.6037C70.0084 75.1957 71.0227 75.8036 72.0498 76.3911H72.0506C72.2652 76.509 72.3976 76.7342 72.3953 76.9792C72.4082 77.3194 72.3687 78.6822 72.3618 79.0222L72.3619 79.0223Z" fill="black"/>
<path d="M75.1922 71.8855V73.3236V73.3244C75.2128 73.5055 75.12 73.6812 74.9579 73.7657C74.4542 74.0487 73.9573 74.3448 73.4559 74.6339C73.2748 74.7374 73.1469 74.7221 73.1485 74.4771C73.1485 73.4811 73.1485 72.4889 73.1819 71.4837C73.1956 71.3498 73.2664 71.2281 73.3767 71.1505C73.885 70.837 74.4085 70.5448 74.9229 70.2511C75.1436 70.127 75.19 70.2511 75.1877 70.4497V71.8855L75.1922 71.8855Z" fill="black"/>
<path d="M72.2394 69.5265V70.607C72.2394 70.8078 72.1139 70.8497 71.9564 70.7614C71.3126 70.3977 70.6727 70.0294 70.0366 69.6566C70.0023 69.5942 69.9985 69.5196 70.0259 69.4534C70.6887 69.0578 71.3758 68.6712 72.0537 68.2892C72.2371 68.1857 72.2592 68.3402 72.2614 68.4551C72.2729 68.815 72.2614 69.1757 72.2614 69.5356L72.2394 69.5265Z" fill="black"/>
<path d="M23.0847 77.176L23.0185 78.0594C22.7514 77.9399 22.4729 77.8387 22.221 77.6972C20.0828 76.4752 17.9554 75.2319 15.8141 74.0273C15.4184 73.8066 15.2883 73.5677 15.3476 73.1439C15.3963 72.79 15.3476 72.4233 15.3652 72.0634C15.3652 71.7453 15.4359 71.7118 15.7251 71.88C16.6465 72.408 17.5566 72.9536 18.4758 73.4863C19.8431 74.2814 21.2044 75.088 22.5892 75.8505C22.9605 76.0559 23.1302 76.2811 23.0754 76.6943C23.0655 76.8541 23.0655 77.0139 23.0754 77.1737L23.0847 77.176Z" fill="black"/>
<path d="M19.2225 71.8018C19.2225 72.8648 19.2225 72.8626 18.3938 72.3915C16.4079 71.2585 14.4045 70.1027 12.3956 68.9827C11.9953 68.762 11.7967 68.5033 11.8477 68.0368C11.8827 67.7211 11.8477 67.3961 11.8629 67.0781C11.8759 66.7973 11.936 66.7623 12.1924 66.9099C13.0408 67.3984 13.8824 67.8976 14.7286 68.3922C15.9567 69.1059 17.159 69.8478 18.4182 70.5221C19.0033 70.8409 19.2795 71.0775 19.2225 71.8019L19.2225 71.8018Z" fill="black"/>
<path d="M30.5215 81.4579V82.1785C30.5215 82.4174 30.4135 82.4304 30.2362 82.3284L26.7527 80.3158C25.9378 79.8456 25.1312 79.3616 24.3049 78.9127C24.0227 78.7909 23.856 78.4972 23.894 78.1929C23.9138 77.8132 23.894 77.4304 23.9115 77.053C23.9268 76.7304 23.9975 76.6931 24.276 76.8521C25.2523 77.4046 26.2224 77.957 27.194 78.5269C28.1992 79.106 29.2043 79.6888 30.2141 80.261C30.4614 80.4003 30.6341 80.5281 30.539 80.8599V80.8591C30.5124 81.0577 30.5124 81.2593 30.539 81.4579H30.5215Z" fill="black"/>
<path d="M27.143 76.4627L27.0768 77.2936C26.812 77.1765 26.5358 77.073 26.2862 76.9383C24.342 75.8334 22.4024 74.6937 20.4539 73.5849L20.4531 73.5842C20.2058 73.4913 20.0551 73.241 20.0886 72.9792C20.1153 72.6216 20.0886 72.2571 20.0886 71.8965C20.0886 71.5365 20.1396 71.5388 20.4333 71.7062C21.5115 72.3226 22.5852 72.948 23.6589 73.5689C24.6488 74.1389 25.6251 74.7308 26.6326 75.2681C27.0283 75.4887 27.198 75.7277 27.1234 76.1515H27.1226C27.1143 76.2512 27.1143 76.3516 27.1226 76.4521L27.143 76.4627Z" fill="black"/>
<path d="M23.3869 71.4233C23.4113 72.5282 23.2788 72.2847 22.6534 71.9271C20.5853 70.7385 18.5201 69.5432 16.4459 68.3682C16.1301 68.1894 15.9642 67.9885 16.0038 67.6149V67.6141C16.0236 67.3546 16.0236 67.0936 16.0038 66.8342C16.0038 66.5869 16.0852 66.5557 16.2823 66.6683C17.0288 67.099 17.7798 67.5236 18.5248 67.9542C19.9317 68.7669 21.328 69.5955 22.7463 70.3847C23.2257 70.648 23.5438 70.9303 23.387 71.4233L23.3869 71.4233Z" fill="black"/>
<path d="M34.2838 80.5675V81.2881C34.2838 81.4494 34.1978 81.5087 34.0632 81.4136L33.7999 81.2698C32.0505 80.2578 30.3072 79.2352 28.5443 78.2453C28.138 78.0246 27.9478 77.753 28.0094 77.2956C28.0604 76.9289 28.0848 76.5599 28.1198 76.1908C28.4378 76.3521 28.7627 76.502 29.0717 76.6793C30.6513 77.5848 32.2172 78.5131 33.8106 79.3965C34.1926 79.6065 34.4117 79.8165 34.3029 80.2647H34.3037C34.2922 80.3643 34.2922 80.4655 34.3037 80.5652L34.2838 80.5675Z" fill="black"/>
<path d="M31.0419 75.9645C31.0046 76.1852 30.9643 76.4172 30.9247 76.6448C30.7307 76.5519 30.5291 76.4705 30.3419 76.364C28.486 75.2949 26.6392 74.2098 24.7743 73.1559C24.3946 72.9353 24.193 72.6941 24.2553 72.2565C24.2926 71.9712 24.3238 71.6843 24.3588 71.3975C24.6084 71.5215 24.8625 71.6318 25.103 71.7688C26.8394 72.7633 28.5651 73.7814 30.3168 74.7493C30.832 75.0346 31.1637 75.3352 31.042 75.9645L31.0419 75.9645Z" fill="black"/>
<path d="M14.5266 72.222L14.4779 73.1739C14.1796 73.0369 13.8744 72.9152 13.5944 72.7607C13.1394 72.5157 12.6973 72.2417 12.2423 71.996V71.9967C11.998 71.894 11.8459 71.6467 11.8649 71.3827C11.8801 70.9056 11.8649 70.4262 11.8649 69.9469C11.8649 69.7612 11.9463 69.6836 12.1259 69.7878C12.848 70.2101 13.5754 70.6271 14.2869 71.0669L14.2861 71.0661C14.4071 71.159 14.4863 71.2952 14.5068 71.4466C14.5243 71.7045 14.5243 71.9632 14.5068 72.222L14.5266 72.222Z" fill="black"/>
<path d="M8.76505 68.564C8.79245 68.8874 8.79245 69.2123 8.76505 69.5357C8.52232 69.4185 7.63813 68.9703 7.54759 68.9391C6.52493 68.2962 6.52493 68.8372 6.60177 67.2804C6.64362 66.4365 6.38111 66.4099 7.11615 66.8253C7.51411 67.046 8.16316 67.2674 8.55883 67.5056H8.55959C8.64861 67.5718 8.70568 67.6722 8.71862 67.7818C8.74068 68.0405 8.76503 68.3053 8.76503 68.564L8.76505 68.564Z" fill="black"/>
<path d="M9.61936 71.406C9.59501 70.2441 9.59501 70.2441 10.6177 69.7289C10.9068 69.5828 10.9822 69.6094 10.989 69.9252C11.0042 70.4662 10.989 71.008 10.989 71.549V71.5498C10.9905 71.6685 10.9441 71.7818 10.8612 71.8655C10.5294 72.0862 10.1809 72.2878 9.82935 72.4773C9.66804 72.5656 9.62163 72.4461 9.62163 72.3069L9.61936 71.406Z" fill="black"/>
<path d="M9.56837 68.1275C9.57978 66.8994 9.46869 67.2243 10.4122 66.6384C10.5157 66.5745 10.6329 66.5213 10.728 66.4619C10.8695 66.3805 10.9707 66.4223 10.973 66.5791C10.9844 67.1201 11.0019 67.6641 10.973 68.2029H10.9738C10.9334 68.4859 10.7432 68.7249 10.4769 68.8276C10.2159 68.9577 9.93968 69.0642 9.67032 69.1829C9.63912 68.909 9.60641 68.6351 9.57749 68.3611C9.56836 68.2888 9.56836 68.2066 9.56836 68.1275L9.56837 68.1275Z" fill="black"/>
<path d="M8.01431 71.1202V70.4574C8.01431 70.2961 8.11399 70.2672 8.25932 70.3334C8.53324 70.4574 8.72119 70.6203 8.7014 70.965C8.68162 71.3097 8.7014 71.7251 8.68999 72.1025C8.68999 72.3232 8.58422 72.3673 8.37877 72.2638V72.2646C8.15125 72.1832 8.00287 71.9625 8.01429 71.7213V71.1202H8.01431Z" fill="black"/>
<path d="M24.2671 66.5476C24.2671 66.9295 24.2359 66.9478 23.9026 66.7553C22.135 65.741 20.3681 64.716 18.583 63.704C18.3654 63.596 18.2345 63.3662 18.2535 63.1235C18.2391 60.7577 18.22 58.3921 18.198 56.025H18.1987C18.1942 55.9649 18.1942 55.904 18.1987 55.8439C18.2627 55.4596 18.4194 55.3736 18.7732 55.5723C19.487 55.9831 20.1893 56.4054 20.9008 56.8186C21.8374 57.3596 22.7696 57.9121 23.72 58.431H23.7192C24.0715 58.5832 24.2846 58.9461 24.2473 59.3281C24.2161 60.5098 24.2473 61.6945 24.2473 62.8786C24.2519 62.8778 24.2717 65.3235 24.2671 66.5477V66.5476Z" fill="black"/>
<path d="M31.2565 70.5629C31.2565 70.9403 31.2101 70.9646 30.8852 70.7835C29.3915 69.9283 27.9025 69.0646 26.4117 68.2056L26.204 68.0839C25.1151 67.463 25.3206 67.7506 25.3206 66.5796C25.3008 64.4148 25.3031 62.2515 25.3008 60.0867C25.3008 59.3867 25.3251 59.3684 25.9483 59.7268C27.5827 60.6612 29.2066 61.6093 30.8464 62.5345H30.8456C31.1409 62.6669 31.3189 62.9728 31.2877 63.2947C31.2657 64.4962 31.2877 65.6984 31.2877 66.8999C31.2611 66.8961 31.2657 69.3417 31.2565 70.563L31.2565 70.5629Z" fill="black"/>
<path d="M38.3148 70.9503V74.3767V74.7967C38.3148 74.9359 38.2151 74.9976 38.0721 74.9162L36.9254 74.2534C35.5558 73.4643 34.193 72.6585 32.8119 71.8915H32.8112C32.4771 71.7454 32.2709 71.4053 32.2968 71.0408C32.2968 68.657 32.2816 66.2715 32.2793 63.8874C32.2793 63.4613 32.3546 63.4172 32.7214 63.6333C34.4426 64.6187 36.157 65.6215 37.8795 66.5955V66.5963C38.1177 66.7058 38.2615 66.9531 38.2394 67.2149C38.2265 68.4651 38.2881 70.9503 38.3148 70.9503L38.3148 70.9503Z" fill="black"/>
<path d="M16.8951 58.5726V62.2949C16.8951 62.7081 16.8707 62.7187 16.4994 62.5156C15.1625 61.7531 13.8331 60.9694 12.4857 60.2291C12.2315 60.1111 12.0794 59.8456 12.1052 59.5663C12.1052 58.4615 12.074 57.3574 12.0657 56.2632C12.0657 55.0016 12.0657 53.7401 12.0527 52.4792V52.1786C12.09 51.8339 12.2095 51.7677 12.523 51.9442C13.0975 52.2692 13.6651 52.607 14.235 52.9403C14.9777 53.3824 15.7173 53.8237 16.466 54.2369V54.2376C16.7042 54.3495 16.8472 54.5991 16.8221 54.8608C16.8069 56.0889 16.8685 58.5726 16.8952 58.5726H16.8951Z" fill="black"/>
</svg>
