<svg width="22" height="22" viewBox="0 0 22 22" fill="none" xmlns="http://www.w3.org/2000/svg">
<g clip-path="url(#clip0_244_742)">
<path fillRule="evenodd" clip-rule="evenodd" d="M7.77981 5.8471C6.95381 5.1683 5.73388 5.28765 5.05505 6.11366C4.37623 6.93968 4.49557 8.15964 5.32162 8.83844C6.14766 9.51731 7.36759 9.39797 8.04637 8.57188C8.72525 7.74586 8.6059 6.5259 7.77981 5.8471ZM5.93601 6.83762C6.215 6.49812 6.7164 6.44907 7.0559 6.72806C7.39541 7.00704 7.44446 7.50843 7.16546 7.84793C6.88647 8.18749 6.38507 8.23654 6.04556 7.95748C5.70606 7.6785 5.65701 7.17711 5.93601 6.83762Z" fill="white"/>
<path fillRule="evenodd" clip-rule="evenodd" d="M11.8478 19.8275C12.456 20.3273 13.3542 20.2394 13.8539 19.6313L20.0213 12.1262C20.5211 11.5181 20.4333 10.6199 19.8251 10.1202L10.1533 2.17207C9.8613 1.93208 9.4859 1.81795 9.1097 1.85475L2.27343 2.52354C1.49 2.60018 0.917024 3.29742 0.993664 4.08082L1.66245 10.9171C1.69926 11.2933 1.884 11.6395 2.17606 11.8795L11.8478 19.8275ZM18.3684 10.7678C18.6731 11.0183 18.7172 11.4684 18.4667 11.7732L13.2062 18.1745C12.9557 18.4793 12.5057 18.5233 12.2008 18.2728L3.30958 10.9662C3.16321 10.8459 3.07063 10.6724 3.05217 10.4838L2.48175 4.65294C2.44334 4.26039 2.73048 3.91091 3.12309 3.8725L8.95395 3.30208C9.14255 3.28363 9.33066 3.34087 9.47699 3.46112L18.3684 10.7678Z" fill="white"/>
</g>
<defs>
<clipPath id="clip0_244_742">
<rect width="20" height="20" fill="white" transform="translate(2.02148 21.9258) rotate(-95.5874)"/>
</clipPath>
</defs>
</svg>
