<svg width="16" height="16" viewBox="0 0 16 16" fill="none" xmlns="http://www.w3.org/2000/svg">
<path d="M0 4.52881C0.0297625 4.32962 0.0571246 4.12996 0.0897673 3.93077C0.306266 2.60463 0.905837 1.4863 1.90576 0.583968C2.83608 -0.255493 4.18259 -0.186858 4.99098 0.770195C5.4979 1.37015 5.98707 1.98739 6.45223 2.62046C7.17853 3.60919 7.0902 5.10525 6.28037 6.02534C6.25301 6.05702 6.22517 6.08774 6.1978 6.12134C5.99763 6.35028 6.00147 6.56675 6.21412 6.78081C6.59592 7.16478 6.97883 7.5478 7.36286 7.92985C7.97795 8.54517 8.59289 9.16016 9.20766 9.77484C9.45536 10.022 9.6661 10.023 9.92196 9.78012C10.9531 8.80243 12.4921 8.74051 13.5971 9.63613C14.1026 10.0455 14.6052 10.4617 15.1078 10.8725C15.6839 11.3395 16.0103 11.9284 15.9998 12.6801C15.9943 13.1898 15.8032 13.6801 15.4621 14.059C14.4406 15.2268 13.1392 15.8349 11.605 15.9688C11.5603 15.9762 11.5162 15.9866 11.473 16H10.7529C10.4918 15.9626 10.2292 15.9314 9.969 15.8872C9.22302 15.761 8.56104 15.4207 7.91203 15.0554C6.99611 14.538 6.16228 13.9073 5.37645 13.2162C3.49181 11.5613 1.79631 9.74892 0.631253 7.49548C0.427236 7.10047 0.254422 6.69538 0.162254 6.26101C0.0955283 5.94759 0.054245 5.62841 0.00192057 5.31163L0 4.52881ZM11.1681 14.358C12.2684 14.334 13.2995 13.9741 14.1238 13.1044C14.4598 12.7521 14.4497 12.4478 14.0757 12.1387C13.5957 11.7417 13.0979 11.3597 12.6294 10.9469C12.1417 10.5149 11.4221 10.5893 11.0059 10.9949C10.1749 11.8109 8.94892 11.8032 8.11701 10.9872C7.07628 9.96619 6.04483 8.93554 5.02266 7.89529C4.4855 7.35149 4.3026 6.69202 4.4759 5.94327C4.56519 5.5593 4.78696 5.24732 5.04091 4.9507C5.37693 4.55761 5.41918 3.97013 5.11435 3.5588C4.67703 2.9694 4.21476 2.39824 3.75008 1.83092C3.54078 1.5751 3.25275 1.5655 3.00937 1.793C1.74975 2.97372 1.38444 4.42226 1.80927 6.0647C1.99889 6.79809 2.43669 7.43164 2.85912 8.05656C3.52062 9.03473 4.2954 9.92075 5.12971 10.7525C6.36198 11.9798 7.66865 13.1106 9.2355 13.9069C9.82403 14.2078 10.4404 14.3523 11.1681 14.358Z" fill="#5B5B5B"/>
</svg>
