<svg width="16" height="12" viewBox="0 0 16 12" fill="none" xmlns="http://www.w3.org/2000/svg">
<path d="M0 5.47588C0.2496 4.8117 0.731734 4.57775 1.4336 4.58059C5.79935 4.59766 10.1651 4.59766 14.5308 4.58059C15.242 4.58059 15.7397 4.80459 16 5.47659V5.97437C15.7483 6.6357 15.2647 6.87179 14.5657 6.86895C10.1881 6.8533 5.81049 6.8533 1.43289 6.86895C0.735288 6.86895 0.250311 6.63784 0 5.97437V5.47588Z" fill="black"/>
<path d="M0 0.924649C0.232533 0.249804 0.7168 -0.00832914 1.41582 0.00020419C3.1936 0.0172709 4.97138 0.000204624 6.74418 0.00731573C7.48089 0.00731573 7.97156 0.467404 7.98222 1.13798C7.99218 1.77798 7.5264 2.27576 6.88355 2.28145C4.96355 2.28998 3.04356 2.28145 1.12853 2.28145C0.531911 2.28145 0.226133 1.90456 0 1.42029V0.924649Z" fill="black"/>
<path d="M16.0002 10.5244C15.7563 11.2092 15.2614 11.4602 14.5502 11.4489C12.8002 11.4275 11.0487 11.4489 9.29797 11.4403C8.49442 11.4403 8.00162 10.971 8.01797 10.2471C8.03077 9.66469 8.48446 9.17331 9.07255 9.16905C11.0248 9.15719 12.9766 9.15719 14.9278 9.16905C15.5181 9.17402 15.8238 9.57509 16.0002 10.0935V10.5244Z" fill="black"/>
</svg>
