<svg width="17" height="20" viewBox="0 0 17 20" fill="none" xmlns="http://www.w3.org/2000/svg">
<path d="M5.66947 0H10.5595C11.7124 0.384017 12.1515 1.22761 12.0342 2.43922C12.2724 2.43922 12.4458 2.43744 12.6191 2.43922C13.2991 2.449 13.9818 2.42677 14.6592 2.47922C15.461 2.54056 16.0353 3.11214 16.1864 3.9104C16.3322 4.67932 15.9784 5.45713 15.2583 5.78959C14.9517 5.93093 14.9072 6.10783 14.9081 6.39673C14.9152 9.97733 14.9134 13.5579 14.9125 17.1385C14.9125 18.7351 14.3703 19.4933 12.8716 20H3.35825C1.8533 19.5022 1.31283 18.7475 1.31283 17.1457C1.31283 13.5615 1.31016 9.97733 1.31727 6.39317C1.31727 6.10338 1.27016 5.93004 0.962589 5.78781C0.198111 5.43491 -0.148571 4.59754 0.0594378 3.77972C0.275447 2.93346 0.945699 2.45522 1.96174 2.44189C2.68267 2.43211 3.40359 2.44011 4.18407 2.44011C4.07117 1.22317 4.50675 0.376906 5.66947 0V0ZM13.9676 6.01893H2.25865C2.24976 6.17094 2.23642 6.28739 2.23642 6.40384C2.23553 10.0156 2.23553 13.6273 2.23642 17.239C2.23642 17.3714 2.24887 17.5048 2.26665 17.6363C2.39199 18.5839 2.90934 19.0746 3.85694 19.0791C6.69973 19.0906 9.54253 19.0897 12.3853 19.0791C13.1827 19.0764 13.732 18.6613 13.9009 17.9644C13.9596 17.7235 13.9649 17.4657 13.9649 17.2159C13.9685 13.6335 13.9676 10.052 13.9676 6.46962V6.01982V6.01893ZM8.1158 5.06156C10.1879 5.06156 12.26 5.06422 14.3321 5.05978C14.9454 5.05889 15.3126 4.69354 15.2752 4.14418C15.2414 3.64638 14.8779 3.37259 14.2316 3.37259C10.6057 3.37082 6.97886 3.37171 3.35292 3.37259C2.83467 3.37259 2.31643 3.36459 1.79907 3.37793C1.35461 3.3886 1.03815 3.64461 0.959033 4.02507C0.836361 4.61532 1.23282 5.06067 1.89952 5.06156C3.97161 5.06511 6.0437 5.06334 8.1158 5.06245V5.06156ZM5.15744 2.40722H11.067C11.211 1.29517 10.8884 0.919152 9.81543 0.918263C8.66071 0.917374 7.5051 0.916485 6.35038 0.918263C5.33612 0.920041 4.97877 1.35917 5.15833 2.40722H5.15744Z" fill="#585858"/>
<path d="M7.64216 12.1341C7.64216 10.7713 7.64039 9.40861 7.64394 8.04588C7.64394 7.88498 7.62616 7.69653 7.69994 7.5703C7.77728 7.43963 7.96129 7.28673 8.09018 7.29473C8.24219 7.30362 8.42798 7.44585 8.51776 7.58275C8.59598 7.70275 8.57376 7.89654 8.57465 8.05832C8.57732 10.7838 8.57732 13.5092 8.57554 16.2347C8.57554 16.3671 8.60754 16.5316 8.54354 16.6258C8.43953 16.7787 8.2573 16.9947 8.12752 16.9832C7.96129 16.9681 7.77284 16.7769 7.6715 16.6134C7.59683 16.4934 7.64305 16.2969 7.64305 16.1342C7.64216 14.8008 7.64305 13.4683 7.64305 12.1349L7.64216 12.1341Z" fill="#585858"/>
<path d="M4.87092 12.0893C4.87092 10.7265 4.86825 9.3638 4.87447 8.00107C4.87447 7.84195 4.87003 7.64283 4.95714 7.53527C5.05937 7.40815 5.26382 7.29171 5.41672 7.29971C5.54295 7.30682 5.69584 7.48371 5.76785 7.6215C5.83007 7.74061 5.80429 7.9104 5.80429 8.05796C5.80607 10.7834 5.80518 13.5089 5.80429 16.2352C5.80429 16.3534 5.84074 16.5028 5.78385 16.5837C5.67095 16.7455 5.50561 16.9792 5.35983 16.981C5.20338 16.9828 5.01759 16.7721 4.89758 16.613C4.8318 16.5259 4.87092 16.3552 4.87092 16.2228C4.87003 14.8449 4.87092 13.4671 4.87092 12.0901V12.0893Z" fill="#585858"/>
<path d="M10.4016 12.1447C10.4016 10.7962 10.4016 9.44861 10.4025 8.1001C10.4025 7.95254 10.3696 7.77653 10.4372 7.66453C10.5314 7.50808 10.7137 7.29118 10.8443 7.30007C11.0106 7.31163 11.1795 7.50808 11.3146 7.65475C11.3697 7.7152 11.3484 7.85298 11.3492 7.9561C11.351 10.7411 11.351 13.527 11.3475 16.312C11.3475 16.4569 11.3492 16.6347 11.271 16.7378C11.1777 16.8614 10.9963 16.9938 10.8577 16.9885C10.7199 16.9841 10.5439 16.84 10.4656 16.7094C10.3901 16.5831 10.4043 16.3947 10.4034 16.2338C10.399 14.8711 10.4008 13.5075 10.4008 12.1447H10.4016Z" fill="#585858"/>
</svg>
