<svg width="101" height="101" viewBox="0 0 101 101" fill="none" xmlns="http://www.w3.org/2000/svg">
<path d="M98.8926 15.0019L84.9482 1.05092C84.2759 0.378598 83.3667 0 82.4143 0H17.9164C16.9647 0 16.0547 0.378598 15.3832 1.05092L1.05077 15.3941C0.025478 16.4202 -0.282668 17.9609 0.27359 19.3024C0.826651 20.643 2.13528 21.5147 3.58393 21.5147H96.7471C96.7751 21.5147 96.8031 21.5179 96.8167 21.5147C98.7977 21.5147 100.4 19.9107 100.4 17.9289C100.4 16.7211 99.8053 15.6527 98.8921 15.0019H98.8926Z" fill="black"/>
<path d="M98.9898 61.7446L77.4898 47.4015C76.1812 46.3577 74.3195 46.3577 73.011 47.4015L51.511 61.7446C50.3248 62.6971 49.8662 64.2971 50.3705 65.733C50.8739 67.1689 52.2281 68.1318 53.7505 68.1318H96.7504C98.2727 68.1318 99.627 67.1689 100.13 65.733C100.634 64.2971 100.176 62.6972 98.9899 61.7446H98.9898Z" fill="black"/>
<path d="M48.8218 61.7446L27.3219 47.4015C26.0133 46.3577 24.1515 46.3577 22.843 47.4015L1.34303 61.7446C0.156858 62.6971 -0.301744 64.2971 0.20249 65.733C0.705924 67.1689 2.06018 68.1318 3.58249 68.1318H46.5824C48.1048 68.1318 49.459 67.1689 49.9624 65.733C50.4667 64.2971 50.0081 62.6972 48.8219 61.7446H48.8218Z" fill="black"/>
<path d="M20.8574 44.4178C21.8755 43.5878 23.4644 43.0308 25.0843 43.0308C26.7042 43.0308 28.293 43.5878 29.556 44.5963L48.3747 57.1378V25.1013H3.58594V55.9514L20.8574 44.4178ZM14.3343 32.2733C14.3343 30.2915 15.9367 28.6875 17.9175 28.6875H32.25C34.2309 28.6875 35.8332 30.2915 35.8332 32.2733V35.8591C35.8332 37.8409 34.2309 39.4449 32.25 39.4449H17.9175C15.9366 39.4449 14.3343 37.8409 14.3343 35.8591V32.2733Z" fill="black"/>
<path d="M48.3751 100.403V71.4341C47.7948 71.5854 47.2033 71.7158 46.5838 71.7158H3.58594V96.8163C3.58594 98.7965 5.1899 100.402 7.1692 100.402H10.7525V82.4732C10.7525 80.493 12.3564 78.8874 14.3357 78.8874H21.5024C23.4818 78.8874 25.0857 80.493 25.0857 82.4732V100.402L48.3751 100.403ZM28.668 82.4742C28.668 80.494 30.272 78.8884 32.2512 78.8884H35.8345C37.8139 78.8884 39.4178 80.494 39.4178 82.4742V86.06C39.4178 88.0402 37.8138 89.6458 35.8345 89.6458H32.2512C30.2719 89.6458 28.668 88.0402 28.668 86.06V82.4742Z" fill="black"/>
<path d="M51.9555 57.1484L71.019 44.4164C72.0379 43.5872 73.6259 43.0301 75.2467 43.0301C76.8666 43.0301 78.4554 43.5872 79.7184 44.5957L96.7458 55.9429V25.1011H51.9551L51.9555 57.1484ZM68.08 28.6875H82.4124C84.3933 28.6875 85.9956 30.2915 85.9956 32.2733V35.8591C85.9956 37.8408 84.3933 39.4448 82.4124 39.4448H68.08C66.0998 39.4448 64.4967 37.8408 64.4967 35.8591V32.2733C64.4967 30.2915 66.0991 28.6875 68.08 28.6875Z" fill="black"/>
<path d="M51.9551 71.4341V100.403H60.913V82.4742C60.913 80.494 62.517 78.8884 64.4963 78.8884H71.663C73.6424 78.8884 75.2463 80.494 75.2463 82.4742V100.403H93.1622C95.1415 100.403 96.7454 98.7976 96.7454 96.8174V71.7168H53.7475C53.128 71.7168 52.5365 71.5864 51.9555 71.4351L51.9551 71.4341ZM78.8295 82.4732C78.8295 80.493 80.4335 78.8874 82.4128 78.8874H85.996C87.9754 78.8874 89.5793 80.493 89.5793 82.4732V86.059C89.5793 88.0392 87.9753 89.6448 85.996 89.6448H82.4128C80.4334 89.6448 78.8295 88.0392 78.8295 86.059V82.4732Z" fill="black"/>
</svg>
