<svg width="141" height="93" viewBox="0 0 141 93" fill="none" xmlns="http://www.w3.org/2000/svg">
<path fillRule="evenodd" clip-rule="evenodd" d="M132.646 37.6017V92.2168H120.942C120.942 84.4144 121.376 76.1791 121.376 67.9433C128.744 69.6769 131.779 60.5748 124.844 55.3731C114.441 48.0046 104.038 40.2023 93.6351 32.4005C92.3348 31.5337 91.0342 31.5337 90.1673 31.9671L63.2932 52.3391L52.0234 44.1032L96.2361 10.7271L132.646 37.6012L132.646 37.6017Z" fill="black"/>
<path fillRule="evenodd" clip-rule="evenodd" d="M61.5711 65.3427V92.2168H45.5334V76.612C45.5334 73.1442 42.9325 70.1103 39.0317 70.1103H30.3624C26.8946 70.1103 23.8607 73.1446 23.8607 76.612V92.2168H8.25586V65.3427L34.6959 45.4036L61.5711 65.3427Z" fill="black"/>
<path fillRule="evenodd" clip-rule="evenodd" d="M30.3538 73.1462H39.0231C41.1902 73.1462 42.9244 74.4465 42.9244 76.6141V92.2189H26.8867V76.6141C26.8867 74.447 28.6203 73.1462 30.3545 73.1462H30.3538Z" fill="black"/>
<path fillRule="evenodd" clip-rule="evenodd" d="M117.917 65.3427V92.2168H102.312V76.612C102.312 73.1442 99.2776 70.1103 95.8102 70.1103H87.141C83.2397 70.1103 80.6392 73.1446 80.6392 76.612V92.2168H64.6016V65.3427L91.4756 45.4036L117.917 65.3427Z" fill="black"/>
<path fillRule="evenodd" clip-rule="evenodd" d="M87.133 73.1465H95.8023C97.5359 73.1465 99.2701 74.4468 99.2701 76.6143V92.2191H83.2324V76.6143C83.2324 74.4472 84.966 73.1465 87.1337 73.1465H87.133Z" fill="black"/>
<path d="M42.9276 39.7693L94.5092 0.325058C95.8095 -0.108353 97.1102 -0.108353 97.977 0.325058L138.722 31.1006C140.022 32.4009 140.456 34.5685 139.589 35.8687C138.722 37.6023 136.988 38.0357 135.688 37.169L96.2435 7.26024L48.1305 44.1039L62.8685 55.3737L89.7426 35.0017C90.6094 34.1348 91.9096 34.1348 92.777 35.0017L124.852 58.8423C126.153 60.1426 126.586 62.3101 125.719 63.6103C124.852 65.3439 123.118 65.7774 121.818 64.9106L91.4763 41.938L67.6356 59.7094L62.8676 63.1772L34.6938 41.9384L4.35224 64.911C3.05193 65.7778 1.31785 65.3444 0.450977 63.6107C-0.415857 62.3104 0.0175658 60.1428 1.31781 58.8427L33.3931 35.002C34.2599 34.1352 35.5602 34.1352 36.4275 35.002L42.9293 39.77L42.9276 39.7693Z" fill="black"/>
</svg>
