<svg width="46" height="60" viewBox="0 0 46 60" fill="none" xmlns="http://www.w3.org/2000/svg">
<path d="M32.4006 0.425011C32.376 0.440664 32.3512 0.456083 32.3263 0.47126L32.3154 0.477944L32.3152 0.477654C31.5248 0.905482 30.7342 1.33086 29.9438 1.7561C28.5887 2.48517 27.2343 3.21385 25.8831 3.95382L25.8827 3.95405C19.6735 7.33906 15.5021 12.3948 13.4451 19.158L13.4451 19.158C13.1248 20.2098 12.908 21.2867 12.6853 22.3928C12.5889 22.872 12.4913 23.3566 12.3838 23.8471L12.3294 24.0951L12.0822 24.0369C11.9186 23.9983 11.6899 23.9442 11.4636 23.8776M32.4006 0.425011L11.5338 23.6377M32.4006 0.425011C32.3025 1.33666 32.1814 2.24283 32.0598 3.15265C31.9703 3.82237 31.8805 4.49405 31.7995 5.17135C31.5915 6.90931 31.444 8.66272 31.5211 10.4376L31.5211 10.4376C31.7349 15.3291 33.6622 19.482 37.3101 22.7734M11.4636 23.8776C11.4634 23.8776 11.4633 23.8776 11.4632 23.8775L11.5338 23.6377M11.4636 23.8776C11.4637 23.8776 11.4638 23.8777 11.4639 23.8777L11.5338 23.6377M11.4636 23.8776C11.0399 23.7543 10.616 23.6311 10.1922 23.508C8.36969 22.9784 6.54621 22.4486 4.7275 21.9026L4.72608 21.9022C4.55091 21.8485 4.48916 21.8529 4.46282 21.8622C4.45039 21.8666 4.40028 21.888 4.32514 22.058M11.5338 23.6377C11.1098 23.5143 10.6857 23.3911 10.2617 23.2679C8.43925 22.7383 6.617 22.2088 4.79938 21.6632C4.44784 21.5554 4.26504 21.5753 4.0963 21.9573M4.32514 22.058L4.0963 21.9573M4.32514 22.058C4.32509 22.0581 4.32503 22.0582 4.32498 22.0583L4.0963 21.9573M4.32514 22.058C3.18735 24.6446 2.16225 27.2599 1.46404 29.9876M4.0963 21.9573C2.95613 24.5493 1.92494 27.1789 1.22185 29.9256M12.1396 23.7935L11.8954 23.74C11.8957 23.7383 11.8961 23.7367 11.8965 23.7351C11.9852 23.7571 12.068 23.7767 12.1396 23.7935ZM12.1396 23.7935L12.1969 23.5502C12.1955 23.5498 12.194 23.5495 12.1925 23.5491C12.1751 23.6306 12.1575 23.712 12.1396 23.7935ZM1.22185 29.9256L1.46409 29.9874C1.46407 29.9875 1.46406 29.9875 1.46404 29.9876M1.22185 29.9256C0.13676 34.1769 -0.405782 38.4681 0.354721 42.8483C1.73745 50.8236 8.35464 57.7419 16.2386 59.4211M1.22185 29.9256L1.46404 29.9876M1.46404 29.9876C0.383747 34.2202 -0.15118 38.473 0.601036 42.8055L0.601046 42.8056C1.96649 50.6811 8.50745 57.5188 16.2904 59.1766M16.2904 59.1766L16.2386 59.4211M16.2904 59.1766C16.2905 59.1766 16.2906 59.1766 16.2906 59.1766L16.2386 59.4211M16.2904 59.1766C17.0395 59.3354 17.7892 59.4562 18.546 59.578C18.8928 59.6338 19.241 59.6899 19.5913 59.75M16.2386 59.4211C16.9937 59.5813 17.7537 59.7037 18.5138 59.8261C18.866 59.8828 19.2182 59.9395 19.57 60M19.57 60V59.75H19.5913M19.57 60H26.0149M19.57 60L19.6124 59.7536C19.6053 59.7524 19.5983 59.7512 19.5913 59.75M19.5913 59.75H25.9794M26.0149 60L25.9439 59.7603C25.9557 59.7568 25.9675 59.7534 25.9794 59.75M26.0149 60C26.1617 59.9565 26.3112 59.9233 26.4626 59.9004C29.4811 59.6309 32.3298 58.7802 34.9312 57.2369C41.1523 53.5492 44.7744 48.1366 45.488 40.9019M26.0149 60V59.75H25.9794M25.9794 59.75C26.1258 59.7083 26.2747 59.6759 26.4252 59.6532L26.4327 59.6521L26.4403 59.6514C29.4256 59.3848 32.2376 58.5442 34.8037 57.0219L34.8037 57.0218C40.9599 53.3727 44.5338 48.029 45.2392 40.8774M45.2392 40.8774L45.488 40.9019M45.2392 40.8774C45.2392 40.8774 45.2392 40.8774 45.2392 40.8774L45.488 40.9019M45.2392 40.8774C45.6436 36.769 44.9243 32.8561 42.9116 29.2146M45.488 40.9019C45.897 36.7467 45.1693 32.7825 43.1303 29.0936M43.1303 29.0936L42.9116 29.2146M43.1303 29.0936C41.7066 26.5203 39.6302 24.5306 37.4775 22.5877M43.1303 29.0936L42.9115 29.2145C42.9116 29.2146 42.9116 29.2146 42.9116 29.2146M42.9116 29.2146C41.51 26.6814 39.4624 24.7159 37.3101 22.7734M37.4775 22.5877L37.3101 22.7734M37.4775 22.5877L37.31 22.7733C37.3101 22.7733 37.3101 22.7733 37.3101 22.7734" fill="white" stroke="white" stroke-width="0.5"/>
</svg>
