<svg width="95" height="113" viewBox="0 0 95 113" fill="none" xmlns="http://www.w3.org/2000/svg">
<path d="M94.63 51.1107L88.8327 60.4988L47.3177 34.7967L5.80027 60.4988L0 51.1107L47.3184 21.8284L94.63 51.1107Z" fill="black"/>
<path d="M90.8685 110.024L91.573 112.449H3.04883L3.76487 110.024H90.8685Z" fill="black"/>
<path d="M82.5015 59.893V107.211H65.5515V69.6473C65.5515 65.2695 61.9762 61.7084 57.6014 61.7084H36.9735C32.5957 61.7084 29.0346 65.2695 29.0346 69.6473V107.211H12.1113V59.893L47.31 38.1147L82.5015 59.893Z" fill="black"/>
<path d="M30.2188 0.781006H64.4015V4.97373H30.2188V0.781006Z" fill="black"/>
<path d="M62.7505 69.6475V107.212H31.8633V69.6475C31.8633 66.8206 34.1562 64.524 36.9868 64.524H57.6147C60.4416 64.524 62.7497 66.8207 62.7497 69.6475H62.7505ZM39.6235 94.9619V79.7708H33.5663V82.5862H36.8052V92.1468H33.5663V94.9622L39.6235 94.9619Z" fill="black"/>
<path d="M59.0466 7.79175V25.7685L47.3206 18.5045L34.9746 26.1498V7.79175H59.0466Z" fill="black"/>
</svg>
