<svg width="100" height="108" viewBox="0 0 100 108" fill="none" xmlns="http://www.w3.org/2000/svg">
<path d="M1.58398 51.3855H29.1397V45.595H7.37506L1.58398 51.3855Z" fill="black"/>
<path d="M56.7578 67.5118H64.1047V74.8587H56.7578V67.5118Z" fill="black"/>
<path d="M35.8984 39.4305H43.2453V46.7774H35.8984V39.4305Z" fill="black"/>
<path d="M50.0089 81.5542C46.2209 81.5542 43.104 84.3615 42.5566 87.9983H57.4612C56.9139 84.3602 53.7972 81.5542 50.0089 81.5542Z" fill="black"/>
<path d="M35.8984 25.3889H43.2453V32.7358H35.8984V25.3889Z" fill="black"/>
<path d="M56.7578 53.4723H64.1047V60.8202H56.7578V53.4723Z" fill="black"/>
<path d="M56.7578 39.4305H64.1047V46.7774H56.7578V39.4305Z" fill="black"/>
<path d="M56.7578 11.3466H64.1047V18.6945H56.7578V11.3466Z" fill="black"/>
<path d="M56.7578 25.3889H64.1047V32.7358H56.7578V25.3889Z" fill="black"/>
<path d="M35.8984 11.3466H43.2453V18.6945H35.8984V11.3466Z" fill="black"/>
<path d="M35.8984 53.4723H43.2453V60.8202H35.8984V53.4723Z" fill="black"/>
<path d="M89.1035 74.9229H95.3923V81.2116H89.1035V74.9229Z" fill="black"/>
<path d="M89.1035 60.2267H95.3923V66.5155H89.1035V60.2267Z" fill="black"/>
<path d="M35.8984 67.5118H43.2453V74.8587H35.8984V67.5118Z" fill="black"/>
<path d="M92.826 45.7976H70.8594V51.3859H98.4151L92.826 45.7976Z" fill="black"/>
<path d="M31.3858 52.507V107.24H40.1974V89.1204C40.1974 83.7123 44.5963 79.3134 50.0045 79.3134C55.4126 79.3134 59.8115 83.7123 59.8115 89.1204V107.24H68.6231L68.6221 52.507V7.42676H31.3848L31.3858 52.507ZM54.5192 10.2288C54.5192 9.60957 55.0216 9.10818 55.6397 9.10818H65.229C65.8482 9.10818 66.3496 9.61061 66.3496 10.2288V19.818C66.3496 20.4372 65.8471 20.9386 65.229 20.9386H55.6397C55.0205 20.9386 54.5192 20.4362 54.5192 19.818V10.2288ZM54.5192 24.27C54.5192 23.6508 55.0216 23.1494 55.6397 23.1494H65.229C65.8482 23.1494 66.3496 23.6519 66.3496 24.27V33.8593C66.3496 34.4785 65.8471 34.9799 65.229 34.9799H55.6397C55.0205 34.9799 54.5192 34.4774 54.5192 33.8593V24.27ZM54.5192 38.3113C54.5192 37.6921 55.0216 37.1907 55.6397 37.1907H65.229C65.8482 37.1907 66.3496 37.6931 66.3496 38.3113V47.9005C66.3496 48.5197 65.8471 49.0211 65.229 49.0211H55.6397C55.0205 49.0211 54.5192 48.5187 54.5192 47.9005V38.3113ZM54.5192 52.3514C54.5192 51.7322 55.0216 51.2308 55.6397 51.2308H65.229C65.8482 51.2308 66.3496 51.7333 66.3496 52.3514V61.9407C66.3496 62.5599 65.8471 63.0613 65.229 63.0613H55.6397C55.0205 63.0613 54.5192 62.5588 54.5192 61.9407V52.3514ZM54.5192 66.3927C54.5192 65.7735 55.0216 65.2721 55.6397 65.2721H65.229C65.8482 65.2721 66.3496 65.7745 66.3496 66.3927V75.9819C66.3496 76.6011 65.8471 77.1025 65.229 77.1025H55.6397C55.0205 77.1025 54.5192 76.6001 54.5192 75.9819V66.3927ZM33.6594 10.2298C33.6594 9.61064 34.1619 9.10924 34.78 9.10924H44.3693C44.9885 9.10924 45.4899 9.61168 45.4899 10.2298V19.8191C45.4899 20.4383 44.9874 20.9397 44.3693 20.9397H34.78C34.1608 20.9397 33.6594 20.4372 33.6594 19.8191V10.2298ZM33.6594 24.2711C33.6594 23.6519 34.1619 23.1505 34.78 23.1505H44.3693C44.9885 23.1505 45.4899 23.6529 45.4899 24.2711V33.8603C45.4899 34.4795 44.9874 34.9809 44.3693 34.9809H34.78C34.1608 34.9809 33.6594 34.4785 33.6594 33.8603V24.2711ZM33.6594 38.3123C33.6594 37.6931 34.1619 37.1917 34.78 37.1917H44.3693C44.9885 37.1917 45.4899 37.6942 45.4899 38.3123V47.9016C45.4899 48.5208 44.9874 49.0222 44.3693 49.0222H34.78C34.1608 49.0222 33.6594 48.5197 33.6594 47.9016V38.3123ZM33.6594 52.3525C33.6594 51.7333 34.1619 51.2319 34.78 51.2319H44.3693C44.9885 51.2319 45.4899 51.7343 45.4899 52.3525V61.9418C45.4899 62.5609 44.9874 63.0623 44.3693 63.0623H34.78C34.1608 63.0623 33.6594 62.5599 33.6594 61.9418V52.3525ZM33.6594 66.3937C33.6594 65.7746 34.1619 65.2732 34.78 65.2732H44.3693C44.9885 65.2732 45.4899 65.7756 45.4899 66.3937V75.983C45.4899 76.6022 44.9874 77.1036 44.3693 77.1036H34.78C34.1608 77.1036 33.6594 76.6011 33.6594 75.983V66.3937Z" fill="black"/>
<path d="M42.4414 90.2404H57.572V107.146H42.4414V90.2404Z" fill="black"/>
<path d="M89.1035 89.6183H95.3923V95.907H89.1035V89.6183Z" fill="black"/>
<path d="M18.2422 74.9229H24.531V81.2116H18.2422V74.9229Z" fill="black"/>
<path d="M18.2422 60.2267H24.531V66.5155H18.2422V60.2267Z" fill="black"/>
<path d="M18.2422 89.6183H24.531V95.907H18.2422V89.6183Z" fill="black"/>
<path d="M0 107.239H29.1408V53.6274H0V107.239ZM16.0032 59.106C16.0032 58.4868 16.5056 57.9854 17.1238 57.9854H25.6549C26.2741 57.9854 26.7755 58.4879 26.7755 59.106V67.6372C26.7755 68.2564 26.2731 68.7578 25.6549 68.7578H17.1238C16.5046 68.7578 16.0032 68.2554 16.0032 67.6372V59.106ZM16.0032 73.8008C16.0032 73.1816 16.5056 72.6802 17.1238 72.6802H25.6549C26.2741 72.6802 26.7755 73.1827 26.7755 73.8008V82.3309C26.7755 82.9501 26.2731 83.4515 25.6549 83.4515H17.1238C16.5046 83.4515 16.0032 82.9491 16.0032 82.3309V73.8008ZM16.0032 88.4956C16.0032 87.8764 16.5056 87.375 17.1238 87.375H25.6549C26.2741 87.375 26.7755 87.8774 26.7755 88.4956V97.0268C26.7755 97.6459 26.2731 98.1473 25.6549 98.1473L17.1238 98.1463C16.5046 98.1463 16.0032 97.6439 16.0032 97.0257V88.4956ZM2.36622 59.1066C2.36622 58.4874 2.86866 57.986 3.48681 57.986H12.018C12.6372 57.986 13.1386 58.4884 13.1386 59.1066V67.6377C13.1386 68.2569 12.6361 68.7583 12.018 68.7583H3.48681C2.86762 68.7583 2.36622 68.2559 2.36622 67.6377V59.1066ZM2.36622 73.8013C2.36622 73.1822 2.86866 72.6808 3.48681 72.6808H12.018C12.6372 72.6808 13.1386 73.1832 13.1386 73.8013V82.3314C13.1386 82.9506 12.6361 83.452 12.018 83.452H3.48681C2.86762 83.452 2.36622 82.9496 2.36622 82.3314V73.8013ZM2.36622 88.4961C2.36622 87.8769 2.86866 87.3755 3.48681 87.3755H12.018C12.6372 87.3755 13.1386 87.878 13.1386 88.4961V97.0273C13.1386 97.6465 12.6361 98.1479 12.018 98.1479L3.48681 98.1468C2.86762 98.1468 2.36622 97.6444 2.36622 97.0262V88.4961Z" fill="black"/>
<path d="M61.8894 0.0385693L38.1517 0L32.9688 5.18291H67.0358L61.8894 0.0385693Z" fill="black"/>
<path d="M4.60938 89.6183H10.8981V95.907H4.60938V89.6183Z" fill="black"/>
<path d="M4.60938 60.2267H10.8981V66.5155H4.60938V60.2267Z" fill="black"/>
<path d="M4.60938 74.9229H10.8981V81.2116H4.60938V74.9229Z" fill="black"/>
<path d="M75.4688 89.6183H81.7575V95.907H75.4688V89.6183Z" fill="black"/>
<path d="M70.8594 107.239H100V53.6274H70.8594V107.239ZM86.8615 59.106C86.8615 58.4868 87.3639 57.9854 87.9821 57.9854L96.5132 57.9844C97.1324 57.9844 97.6338 58.4868 97.6338 59.105V67.6362C97.6338 68.2553 97.1314 68.7567 96.5132 68.7567H87.9821C87.3629 68.7567 86.8615 68.2543 86.8615 67.6362V59.106ZM86.8615 73.8008C86.8615 73.1816 87.3639 72.6802 87.9821 72.6802H96.5132C97.1324 72.6802 97.6338 73.1827 97.6338 73.8008V82.3309C97.6338 82.9501 97.1314 83.4515 96.5132 83.4515H87.9821C87.3629 83.4515 86.8615 82.9491 86.8615 82.3309V73.8008ZM86.8615 88.4956C86.8615 87.8764 87.3639 87.375 87.9821 87.375L96.5132 87.3739C97.1324 87.3739 97.6338 87.8764 97.6338 88.4945V97.0257C97.6338 97.6449 97.1314 98.1463 96.5132 98.1463H87.9821C87.3629 98.1463 86.8615 97.6439 86.8615 97.0257V88.4956ZM73.2245 59.1066C73.2245 58.4874 73.727 57.986 74.3451 57.986L82.8763 57.9849C83.4955 57.9849 83.9969 58.4874 83.9969 59.1055V67.6367C83.9969 68.2559 83.4944 68.7573 82.8763 68.7573H74.3451C73.7259 68.7573 73.2245 68.2548 73.2245 67.6367V59.1066ZM73.2245 73.8013C73.2245 73.1822 73.727 72.6808 74.3451 72.6808H82.8763C83.4955 72.6808 83.9969 73.1832 83.9969 73.8013V82.3314C83.9969 82.9506 83.4944 83.452 82.8763 83.452H74.3451C73.7259 83.452 73.2245 82.9496 73.2245 82.3314V73.8013ZM73.2245 88.4961C73.2245 87.8769 73.727 87.3755 74.3451 87.3755L82.8763 87.3745C83.4955 87.3745 83.9969 87.8769 83.9969 88.4951V97.0262C83.9969 97.6454 83.4944 98.1468 82.8763 98.1468H74.3451C73.7259 98.1468 73.2245 97.6444 73.2245 97.0262V88.4961Z" fill="black"/>
<path d="M75.4688 60.2267H81.7575V66.5155H75.4688V60.2267Z" fill="black"/>
<path d="M75.4688 74.9229H81.7575V81.2116H75.4688V74.9229Z" fill="black"/>
</svg>
