<svg width="107" height="95" viewBox="0 0 107 95" fill="none" xmlns="http://www.w3.org/2000/svg">
<path d="M106.279 28.8196H54.0611V17.6116H106.279V28.8196ZM88.192 64.2381H54.0615V30.6611H88.192V46.5411H80.1295V48.3826H88.192V64.2381ZM63.4944 46.5429H55.2337V48.3845H63.4944V46.5429ZM75.9404 46.5429H67.6832V48.3845H75.9404V46.5429ZM106.278 66.0797H54.0608V77.2851H106.278V66.0797ZM90.0334 64.2381H106.278V30.6611H90.0334V64.2381ZM18.085 30.6611H52.2176V64.2381H18.085V48.3845H26.1507V46.5429H18.085V30.6611ZM42.7847 48.3834H51.0453V46.5419H42.7847V48.3834ZM30.3395 48.3834H38.5968V46.5419H30.3395V48.3834ZM16.2434 30.6611H0.000841384V64.2381H16.2434V30.6611ZM52.2176 17.6125H0V28.8204L52.2176 28.8196V17.6125ZM52.2176 66.0797H0V77.2851H52.2176V66.0797ZM21.2461 83.8858H14.5846V85.7273H21.2461V83.8858ZM31.3845 83.8858H24.7229V85.7273H31.3845V83.8858ZM41.5228 83.8858H34.8613V85.7273H41.5228V83.8858ZM51.662 83.8858H45.0005V85.7273H51.662V83.8858ZM61.8037 83.8858H55.1388V85.7273H61.8037V83.8858ZM71.9454 83.8858H65.2805V85.7273H71.9454V83.8858ZM82.0838 83.8858H75.4223V85.7273H82.0838V83.8858ZM92.2222 83.8858H85.5606V85.7273H92.2222V83.8858ZM15.349 88.4707H8.68743V90.3122H15.349V88.4707ZM25.4873 88.4707H18.8258V90.3122H25.4873V88.4707ZM35.629 88.4707H28.9641V90.3122H35.629V88.4707ZM45.7682 88.4707H39.1067V90.3122H45.7682V88.4707ZM55.9091 88.4707H49.2442V90.3122H55.9091V88.4707ZM66.0483 88.4707H59.3868V90.3122H66.0483V88.4707ZM76.1867 88.4707H69.5251V90.3122H76.1867V88.4707ZM86.3259 88.4707H79.6643V90.3122H86.3259V88.4707ZM96.1757 88.4707H89.5141V90.3122H96.1757V88.4707ZM11.2965 93.0556H4.635V94.8971H11.2965V93.0556ZM21.3353 93.0556H14.6738V94.8971H21.3353V93.0556ZM31.375 93.0556H24.7101V94.8971H31.375V93.0556ZM41.4115 93.0556H34.7499V94.8971H41.4115V93.0556ZM51.4511 93.0556H44.7862V94.8971H51.4511V93.0556ZM61.4876 93.0556H54.8261V94.8971H61.4876V93.0556ZM71.5273 93.0556H64.8657V94.8971H71.5273V93.0556ZM81.5669 93.0556H74.9054V94.8971H81.5669V93.0556ZM91.6057 93.0556H84.9442V94.8971H91.6057V93.0556ZM101.645 93.0556H94.983V94.8971H101.645V93.0556ZM21.2482 9.16981H14.5867V11.0114H21.2482V9.16981ZM31.3866 9.16981H24.725V11.0114H31.3866V9.16981ZM41.5249 9.16981H34.8634V11.0114H41.5249V9.16981ZM51.6641 9.16981H45.0026V11.0114H51.6641V9.16981ZM61.8058 9.16981H55.1409V11.0114H61.8058V9.16981ZM71.9475 9.16981H65.2827V11.0114H71.9475V9.16981ZM82.0859 9.16981H75.4244V11.0114H82.0859V9.16981ZM92.2243 9.16981H85.5627V11.0114H92.2243V9.16981ZM15.3511 4.58491H8.68954V6.42645H15.3511V4.58491ZM25.4894 4.58491H18.8279V6.42645H25.4894V4.58491ZM35.6311 4.58491H28.9662V6.42645H35.6311V4.58491ZM45.7703 4.58491H39.1088V6.42645H45.7703V4.58491ZM55.9112 4.58491H49.2463V6.42645H55.9112V4.58491ZM66.0504 4.58491H59.3889V6.42645H66.0504V4.58491ZM76.1888 4.58491H69.5272V6.42645H76.1888V4.58491ZM86.328 4.58491H79.6664V6.42645H86.328V4.58491ZM96.1778 4.58491H89.5162V6.42645H96.1778V4.58491ZM11.2986 0H4.6371V1.84154H11.2986V0ZM21.3374 0H14.6759V1.84154H21.3374V0ZM31.3771 0H24.7122V1.84154H31.3771V0ZM41.4136 0H34.752V1.84154H41.4136V0ZM51.4532 0H44.7883V1.84154H51.4532V0ZM61.4897 0H54.8282V1.84154H61.4897V0ZM71.5294 0H64.8678V1.84154H71.5294V0ZM81.569 0H74.9075V1.84154H81.569V0ZM91.6078 0H84.9463V1.84154H91.6078V0ZM101.647 0H94.9851V1.84154H101.647V0Z" fill="black"/>
</svg>
