<svg width="16" height="16" viewBox="0 0 16 16" fill="none" xmlns="http://www.w3.org/2000/svg">
<g clip-path="url(#clip0_2_118)">
<path d="M8.77701 15.9601H5.67773V5.4466H8.75376V6.66821L8.98156 6.84992C9.04722 6.66803 9.13795 6.4959 9.2512 6.33837C10.3778 5.16105 11.7523 4.71669 13.3205 5.23893C14.8888 5.76116 15.8898 6.89115 15.9549 8.56781C16.0355 10.8797 15.9968 13.1946 15.9782 15.5096C15.9782 15.6699 15.7178 15.9677 15.5675 15.9677C14.6982 16.012 13.8226 15.9891 12.8324 15.9891V15.0393C12.8324 13.4878 12.8464 11.9364 12.8324 10.3849C12.8169 9.14043 11.929 8.25935 10.7698 8.28531C9.65565 8.31127 8.80025 9.20151 8.78941 10.4033C8.76461 12.2372 8.77701 14.0666 8.77701 15.9601Z" fill="#092143"/>
<path d="M0.350098 15.9251V5.42383H3.44007V15.9251H0.350098Z" fill="#092143"/>
<path d="M1.89043 3.73528C1.63915 3.73573 1.3903 3.68674 1.15849 3.59117C0.92667 3.4956 0.716555 3.35537 0.540464 3.17872C0.364372 3.00208 0.225848 2.79256 0.133019 2.56245C0.0401909 2.33235 -0.00507361 2.0863 -0.000121731 1.83873C0.00152224 1.34181 0.203425 0.865888 0.56117 0.515657C0.918915 0.165427 1.4032 -0.0304186 1.90748 -0.0287986C2.41176 -0.0271787 2.89474 0.171776 3.25016 0.524297C3.60558 0.876818 3.80433 1.35403 3.80269 1.85095C3.80289 2.09846 3.75357 2.34358 3.65754 2.57229C3.56151 2.801 3.42067 3.0088 3.24306 3.18382C3.06545 3.35883 2.85456 3.49762 2.62246 3.59225C2.39036 3.68687 2.14161 3.73548 1.89043 3.73528Z" fill="#092143"/>
</g>
<defs>
<clipPath id="clip0_2_118">
<rect width="16" height="16" fill="white"/>
</clipPath>
</defs>
</svg>
