<svg width="15" height="15" viewBox="0 0 15 15" fill="none" xmlns="http://www.w3.org/2000/svg">
<path d="M7.73351 7.98178C7.5037 7.93807 7.26576 7.96187 7.04985 8.05018C6.83393 8.13848 6.64975 8.28731 6.52065 8.4778C6.25262 8.89068 6.25438 9.44593 6.58956 9.78364C6.77759 9.97385 6.81788 10.1629 6.80036 10.3958C6.80036 10.4391 6.80036 10.4835 6.80036 10.5274C6.80036 10.6493 6.80036 10.7717 6.80036 10.8936C6.81029 11.2968 7.10051 11.5895 7.49175 11.5935C7.88299 11.5975 8.18548 11.2985 8.19248 10.8879C8.19677 10.6388 8.19677 10.39 8.19248 10.1413C8.18925 10.0985 8.19646 10.0555 8.21351 10.0159C8.23056 9.97631 8.25697 9.94122 8.29059 9.91348C8.42861 9.79556 8.53369 9.6454 8.59599 9.47707C8.65829 9.30875 8.67577 9.12776 8.64679 8.95105C8.61616 8.71717 8.51185 8.49832 8.34827 8.32471C8.18468 8.1511 7.96988 8.03128 7.73351 7.98178Z" fill="#5B5B5B"/>
<path d="M12.7693 8.83619C12.6061 7.9376 12.1972 7.09864 11.5857 6.40789C11.5011 6.31943 11.4557 6.20193 11.4595 6.08101C11.466 5.38737 11.4794 4.69316 11.456 4.00066C11.4432 3.61341 11.4152 3.2142 11.3066 2.8446C10.8978 1.45789 9.96348 0.55696 8.54567 0.145789C8.30333 0.0757419 8.04757 0.0472676 7.79822 0H7.19734C7.16933 0.00915502 7.14063 0.0162 7.11151 0.0210717C6.36488 0.0883967 5.6546 0.366662 5.0677 0.821773C4.16785 1.5194 3.63471 2.42659 3.56463 3.54735C3.51325 4.36969 3.53777 5.19887 3.53894 6.02235C3.54455 6.17644 3.48914 6.32673 3.38419 6.44206C2.67339 7.24801 2.24554 8.25455 2.16317 9.31456C2.03762 10.818 2.4855 12.1506 3.52668 13.2782C4.30782 14.1214 5.34962 14.6932 6.49409 14.9069C7.63855 15.1205 8.82324 14.9643 9.86845 14.462C10.9137 13.9596 11.7624 13.1386 12.2859 12.1233C12.8094 11.1081 12.9791 9.95402 12.7693 8.83619ZM5.02975 3.19483C5.32172 2.10711 6.42537 1.31552 7.57516 1.37247C8.78859 1.42942 9.73166 2.19424 10.0014 3.34347C10.0347 3.49109 10.0523 3.64166 10.054 3.7928C10.061 4.24839 10.054 4.69942 10.054 5.18235C9.26606 4.76639 8.38396 4.54921 7.48799 4.55061C6.59201 4.552 5.71063 4.77191 4.92405 5.19032C4.97369 4.49669 4.85632 3.84007 5.02975 3.19483ZM7.48932 13.6404C5.29894 13.6239 3.53252 11.8989 3.53368 9.77642C3.53485 7.65393 5.32931 5.90389 7.5045 5.91528C9.67969 5.92667 11.4625 7.65735 11.4601 9.77813C11.4578 11.8989 9.65867 13.6569 7.48932 13.6404Z" fill="#5B5B5B"/>
</svg>
