<svg width="112" height="93" viewBox="0 0 112 93" fill="none" xmlns="http://www.w3.org/2000/svg">
<path d="M48.0639 77.3476C49.1248 77.3476 49.9865 76.4858 49.9865 75.425V71.5799C49.9865 70.5191 49.1248 69.6573 48.0639 69.6573H40.3737C39.3129 69.6573 38.4512 70.5191 38.4512 71.5799V75.425C38.4512 76.4858 39.3129 77.3476 40.3737 77.3476H48.0639Z" fill="black"/>
<path d="M61.5195 67.7347V92.7279H65.3646V65.8121H63.4421C62.3813 65.8121 61.5195 66.6739 61.5195 67.7347Z" fill="black"/>
<path d="M0 50.4317H1.92256C5.10257 50.4317 7.69022 53.0193 7.69022 56.1993V62.3205C8.29359 62.1051 8.93645 61.9669 9.61278 61.9669H17.303C20.483 61.9669 23.0707 64.5546 23.0707 67.7346C23.0707 68.4109 22.9325 69.0538 22.717 69.6571H34.9621C35.7577 67.4248 37.8725 65.812 40.3762 65.812H48.0664C50.5693 65.812 52.6841 67.4247 53.4806 69.6571H57.6768V67.7346C57.6768 64.5546 60.2644 61.9669 63.4444 61.9669H65.367V35.0511H0.00013243L0 50.4317ZM44.2188 56.1993H34.606V50.4317H44.2188V56.1993ZM44.2188 40.8189V46.5866H34.606V40.8189H44.2188ZM21.1481 40.8189H30.7609V46.5866H21.1481V40.8189ZM21.1481 50.4317H30.7609V56.1993H21.1481V50.4317Z" fill="black"/>
<path d="M23.0723 27.3611H30.7625V31.2062H23.0723V27.3611Z" fill="black"/>
<path d="M11.5332 27.3611H19.2234V31.2062H11.5332V27.3611Z" fill="black"/>
<path d="M7.69141 88.8828H57.6778V92.7279H7.69141V88.8828Z" fill="black"/>
<path d="M19.2267 67.7347C19.2267 66.6739 18.365 65.8121 17.3042 65.8121H9.61396C8.55313 65.8121 7.69141 66.6739 7.69141 67.7347V69.6572H17.3042C18.365 69.6572 19.2267 68.7955 19.2267 67.7347Z" fill="black"/>
<path d="M1.92256 54.2769H0V92.728H3.84511V56.1994C3.84511 55.1386 2.98339 54.2769 1.92256 54.2769Z" fill="black"/>
<path d="M7.69141 0.445312H103.821V4.29042H7.69141V0.445312Z" fill="black"/>
<path d="M0 27.3611H7.69022V31.2062H0V27.3611Z" fill="black"/>
<path d="M46.1406 27.3611H53.8308V31.2062H46.1406V27.3611Z" fill="black"/>
<path d="M53.8327 75.425C53.8327 78.605 51.2451 81.1927 48.0651 81.1927H40.3748C37.1948 81.1927 34.6072 78.605 34.6072 75.425V73.5024H7.69141V85.0378H57.6778V73.5024H53.8327V75.425Z" fill="black"/>
<path d="M34.6055 27.3611H42.2957V31.2062H34.6055V27.3611Z" fill="black"/>
<path d="M69.2109 46.5867H76.9012V50.4318H69.2109V46.5867Z" fill="black"/>
<path d="M69.2109 42.7416H84.5914V38.8965H69.2109V42.7416Z" fill="black"/>
<path d="M69.2109 54.2769H76.9012V58.122H69.2109V54.2769Z" fill="black"/>
<path d="M80.7461 46.5867V65.8122H99.9716V46.5867H80.7461ZM87.8734 49.0722L97.4862 58.6849L94.768 61.4031L85.1552 51.7903L87.8734 49.0722ZM85.9508 56.7624L89.7959 60.6075L87.0778 63.3256L83.2327 59.4805L85.9508 56.7624Z" fill="black"/>
<path d="M88.4375 42.7415H103.818V65.8122H111.508V35.0513H88.4375V42.7415Z" fill="black"/>
<path d="M69.2109 61.9672H76.9012V65.8123H69.2109V61.9672Z" fill="black"/>
<path d="M69.2109 31.2063H84.5914V35.0514H69.2109V31.2063Z" fill="black"/>
<path d="M100.806 8.1355H10.7009L1.47266 23.5159H69.2125V27.361H84.593V23.5159H88.4381V31.2062H111.509V25.9707L100.806 8.1355Z" fill="black"/>
<path d="M76.9012 69.6573H69.2109V92.728H88.4365V83.1152H78.8237V75.425H101.894V83.1152H92.2816V92.728H111.507V69.6573H76.9012Z" fill="black"/>
<path d="M57.6777 27.3611H65.368V31.2062H57.6777V27.3611Z" fill="black"/>
</svg>
