<svg width="149" height="30" viewBox="0 0 149 30" fill="none" xmlns="http://www.w3.org/2000/svg">
<path d="M11 0.919999C13.96 0.919999 16.5467 1.50667 18.76 2.68C20.9733 3.85333 22.68 5.50667 23.88 7.64C25.1067 9.74667 25.72 12.1867 25.72 14.96C25.72 17.7067 25.1067 20.1467 23.88 22.28C22.68 24.4133 20.96 26.0667 18.72 27.24C16.5067 28.4133 13.9333 29 11 29H0.48V0.919999H11ZM10.56 23.08C13.1467 23.08 15.16 22.3733 16.6 20.96C18.04 19.5467 18.76 17.5467 18.76 14.96C18.76 12.3733 18.04 10.36 16.6 8.92C15.16 7.48 13.1467 6.76 10.56 6.76H7.32V23.08H10.56ZM46.5425 14.6C48.1692 14.9467 49.4758 15.76 50.4625 17.04C51.4492 18.2933 51.9425 19.7333 51.9425 21.36C51.9425 23.7067 51.1158 25.5733 49.4625 26.96C47.8358 28.32 45.5558 29 42.6225 29H29.5425V0.919999H42.1825C45.0358 0.919999 47.2625 1.57333 48.8625 2.88C50.4892 4.18667 51.3025 5.96 51.3025 8.2C51.3025 9.85333 50.8625 11.2267 49.9825 12.32C49.1292 13.4133 47.9825 14.1733 46.5425 14.6ZM36.3825 12.28H40.8625C41.9825 12.28 42.8358 12.04 43.4225 11.56C44.0358 11.0533 44.3425 10.32 44.3425 9.36C44.3425 8.4 44.0358 7.66667 43.4225 7.16C42.8358 6.65333 41.9825 6.4 40.8625 6.4H36.3825V12.28ZM41.4225 23.48C42.5692 23.48 43.4492 23.2267 44.0625 22.72C44.7025 22.1867 45.0225 21.4267 45.0225 20.44C45.0225 19.4533 44.6892 18.68 44.0225 18.12C43.3825 17.56 42.4892 17.28 41.3425 17.28H36.3825V23.48H41.4225Z" fill="#F2672A"/>
<path d="M77.9897 1.12V29H74.3497V16.36H60.1497V29H56.5097V1.12H60.1497V13.36H74.3497V1.12H77.9897ZM93.765 29.36C91.7117 29.36 89.845 28.8933 88.165 27.96C86.5117 27.0267 85.205 25.7067 84.245 24C83.3117 22.2667 82.845 20.2667 82.845 18C82.845 15.76 83.325 13.7867 84.285 12.08C85.2717 10.3467 86.605 9.02667 88.285 8.12C89.965 7.18667 91.845 6.72 93.925 6.72C96.005 6.72 97.885 7.18667 99.565 8.12C101.245 9.02667 102.565 10.3333 103.525 12.04C104.512 13.7467 105.005 15.7333 105.005 18C105.005 20.2667 104.498 22.2667 103.485 24C102.498 25.7067 101.152 27.0267 99.445 27.96C97.7383 28.8933 95.845 29.36 93.765 29.36ZM93.765 26.16C95.0717 26.16 96.2983 25.8533 97.445 25.24C98.5917 24.6267 99.5117 23.7067 100.205 22.48C100.925 21.2533 101.285 19.76 101.285 18C101.285 16.24 100.938 14.7467 100.245 13.52C99.5517 12.2933 98.645 11.3867 97.525 10.8C96.405 10.1867 95.1917 9.88 93.885 9.88C92.5517 9.88 91.325 10.1867 90.205 10.8C89.1117 11.3867 88.2317 12.2933 87.565 13.52C86.8983 14.7467 86.565 16.24 86.565 18C86.565 19.7867 86.885 21.2933 87.525 22.52C88.1917 23.7467 89.0717 24.6667 90.165 25.28C91.2583 25.8667 92.4583 26.16 93.765 26.16ZM129.231 7.08V29H125.591V25.76C124.898 26.88 123.924 27.76 122.671 28.4C121.444 29.0133 120.084 29.32 118.591 29.32C116.884 29.32 115.351 28.9733 113.991 28.28C112.631 27.56 111.551 26.4933 110.751 25.08C109.978 23.6667 109.591 21.9467 109.591 19.92V7.08H113.191V19.44C113.191 21.6 113.738 23.2667 114.831 24.44C115.924 25.5867 117.418 26.16 119.311 26.16C121.258 26.16 122.791 25.56 123.911 24.36C125.031 23.16 125.591 21.4133 125.591 19.12V7.08H129.231ZM138.097 26H148.857V29H133.937V26L144.577 10.04H134.017V7.08H148.777V10.04L138.097 26Z" fill="#000027"/>
</svg>
