<svg width="17" height="14" viewBox="0 0 17 14" fill="none" xmlns="http://www.w3.org/2000/svg">
<path d="M13.0079 2.4423C13.159 2.5313 13.2851 2.79313 13.2911 2.97848M13.0079 2.4423C12.2094 1.98014 11.4032 1.53088 10.5969 1.08162C10.0289 0.765156 9.46098 0.44869 8.89573 0.1277L13.2911 2.97848M13.0079 2.4423L12.9825 2.48538C12.9826 2.4854 12.9826 2.48543 12.9826 2.48545C12.9827 2.48549 12.9828 2.48553 12.9829 2.48558L13.0079 2.4423ZM13.2911 2.97848C13.3206 3.86107 13.3123 4.74367 13.2994 5.62626L13.2911 2.97848ZM8.92284 10.3821C9.05136 10.3078 9.17987 10.2334 9.30841 10.159C10.3252 9.57048 11.3441 8.98071 12.3899 8.44142L12.4128 8.48586L3.75583 4.57255C3.75509 4.77906 3.75435 4.98543 3.75435 5.19158C3.75435 5.36604 3.7539 5.4998 3.74226 5.60471C3.73053 5.71045 3.70693 5.79271 3.6567 5.86172C3.60679 5.93028 3.53448 5.98033 3.4366 6.02964C3.34903 6.07375 3.2361 6.11957 3.09323 6.17753C3.07704 6.1841 3.06045 6.19082 3.04348 6.19772L3.04343 6.19774C1.72363 6.73244 0.501141 7.3477 0.0537325 8.79874L0.0500362 9.44829C0.229272 10.1384 0.599941 10.7168 1.19929 11.1086C1.75263 11.4632 2.33097 11.7793 2.92999 12.0547L2.93057 12.0549C3.21337 12.1893 3.51494 12.2821 3.82675 12.378C3.96324 12.4199 4.10168 12.4625 4.24138 12.5094L4.28386 12.5237L4.2743 12.5675C4.25454 12.658 4.23451 12.7463 4.21479 12.8331C4.17083 13.0268 4.12846 13.2135 4.09419 13.4026C4.05934 13.5986 4.11753 13.7588 4.22398 13.8532C4.32993 13.9472 4.49128 13.9828 4.67807 13.9146C5.51167 13.6084 6.33873 13.2868 7.15925 12.9497C7.32779 12.88 7.42237 12.7653 7.44813 12.6426C7.47389 12.52 7.43315 12.3785 7.30866 12.2504L7.30859 12.2503C6.71292 11.6349 6.10543 11.0313 5.48611 10.4394L5.48598 10.4393C5.33207 10.2912 5.16703 10.2525 5.03036 10.2935C4.89301 10.3348 4.7709 10.4606 4.71238 10.6691L4.71235 10.6692C4.6532 10.8784 4.60423 11.0891 4.54915 11.326C4.52439 11.4326 4.49839 11.5444 4.46967 11.6639L4.45599 11.7208L4.40191 11.6984C4.19304 11.6118 3.98355 11.5308 3.77566 11.4503C3.31208 11.271 2.85652 11.0948 2.43379 10.8673L2.433 10.8669C1.98373 10.6146 1.58014 10.2919 1.23849 9.9117C1.03059 9.68331 0.928691 9.43283 0.926594 9.17736C0.924502 8.92245 1.0218 8.66799 1.20243 8.43074C1.81807 7.60776 2.72503 7.23316 3.68551 6.89562L3.74726 6.87392L3.75196 6.93921C3.76034 7.0557 3.76034 7.17263 3.75196 7.28912L3.7516 7.29405L3.75136 7.294C3.70895 7.5408 3.7482 7.72647 3.84823 7.87928C3.94955 8.03405 4.11665 8.16047 4.34041 8.2807C5.54177 8.92015 6.72101 9.5978 7.89908 10.2748C7.95489 10.3068 8.01069 10.3389 8.06649 10.371L8.06673 10.3711C8.21872 10.4596 8.35582 10.5054 8.49162 10.5086C8.62712 10.5117 8.76634 10.4724 8.92284 10.3821ZM8.92284 10.3821L8.94784 10.4254L8.92283 10.3821C8.92283 10.3821 8.92283 10.3821 8.92284 10.3821ZM3.69982 3.02187C3.70953 3.53832 3.70768 4.05514 3.70583 4.5718C3.70509 4.77843 3.70435 4.98504 3.70435 5.19158C3.70435 5.87562 3.69646 5.87882 3.07401 6.13137C3.05797 6.13788 3.04152 6.14455 3.02465 6.1514L3.74981 3.021L3.69982 3.02187ZM3.69982 3.02187C3.69454 2.71811 3.80102 2.52174 4.07743 2.36875L8.08385 0.171061C6.76249 0.929732 5.43509 1.67688 4.10164 2.4125C3.96904 2.48589 3.8812 2.56743 3.82643 2.66353C3.77164 2.75967 3.74728 2.8751 3.74981 3.02093L3.69982 3.02187ZM12.3639 3.61455V3.7C12.3639 3.93217 12.3639 4.16193 12.364 4.38975C12.3644 5.36704 12.3647 6.30844 12.3586 7.24982L12.3585 7.25455L12.3583 7.25453C12.353 7.30717 12.336 7.35799 12.3087 7.40349C12.2813 7.449 12.2442 7.48808 12.2 7.51812L12.1968 7.52026L12.1968 7.52013C11.3952 7.97999 10.5894 8.43368 9.75421 8.90399C9.51117 9.04085 9.26563 9.17911 9.01696 9.31934L8.9424 9.36138V9.27578V7.39512C8.9424 7.25825 8.94179 7.12114 8.94117 6.98389C8.93942 6.59446 8.93767 6.20388 8.94995 5.81446C8.94996 5.81421 8.94997 5.81395 8.94998 5.8137L8.99995 5.81528L12.3639 3.61455ZM12.3639 3.61455L12.2894 3.65641C12.0526 3.78947 11.8189 3.92049 11.5878 4.05007C10.7424 4.52411 9.93117 4.97894 9.1261 5.44463L12.3639 3.61455ZM8.04778 5.76852C8.04762 5.69278 8.00554 5.61286 7.95483 5.54724C7.90295 5.4801 7.83523 5.4191 7.7708 5.38159C7.18129 5.03633 6.58511 4.70165 5.99047 4.36784C5.80305 4.26262 5.61577 4.15749 5.42891 4.05214L5.42851 4.05192C5.32734 3.99609 5.22723 3.94185 5.12427 3.88606C4.99449 3.81575 4.86016 3.74297 4.71345 3.66144L4.63916 3.62016V3.70515V3.71011V3.71507V3.72002V3.72498V3.72993V3.73488V3.73983V3.74478V3.74973V3.75468V3.75962V3.76457V3.76951V3.77445V3.77939V3.78433V3.78926V3.7942V3.79913V3.80406V3.809V3.81392V3.81885V3.82378V3.8287V3.83363V3.83855V3.84347V3.84839V3.85331V3.85823V3.86314V3.86806V3.87297V3.87788V3.88279V3.8877V3.89261V3.89751V3.90242V3.90732V3.91222V3.91712V3.92202V3.92692V3.93182V3.93671V3.94161V3.9465V3.95139V3.95628V3.96117V3.96606V3.97094V3.97583V3.98071V3.98559V3.99047V3.99535V4.00023V4.00511V4.00998V4.01486V4.01973V4.0246V4.02947V4.03434V4.03921V4.04408V4.04894V4.05381V4.05867V4.06353V4.06839V4.07325V4.07811V4.08297V4.08782V4.09267V4.09753V4.10238V4.10723V4.11208V4.11693V4.12177V4.12662V4.13146V4.13631V4.14115V4.14599V4.15083V4.15567V4.1605V4.16534V4.17017V4.17501V4.17984V4.18467V4.1895V4.19433V4.19916V4.20398V4.20881V4.21363V4.21846V4.22328V4.2281V4.23292V4.23774V4.24255V4.24737V4.25218V4.257V4.26181V4.26662V4.27143V4.27624V4.28105V4.28585V4.29066V4.29546V4.30027V4.30507V4.30987V4.31467V4.31947V4.32427V4.32907V4.33386V4.33866V4.34345V4.34824V4.35303V4.35782V4.36261V4.3674V4.37219V4.37697V4.38176V4.38654V4.39132V4.39611V4.40089V4.40567V4.41045V4.41522V4.42V4.42477V4.42955V4.43432V4.43909V4.44387V4.44864V4.4534V4.45817V4.46294V4.46771V4.47247V4.47724V4.482V4.48676V4.49152V4.49628V4.50104V4.5058V4.51056V4.51531V4.52007V4.52482V4.52957V4.53433V4.53908V4.54383V4.54858V4.55333V4.55807V4.56282V4.56756V4.57231V4.57705V4.58179V4.58654V4.59128V4.59602V4.60076V4.60549V4.61023V4.61497V4.6197V4.62444V4.62917V4.6339V4.63863V4.64336V4.64809V4.65282V4.65755V4.66228V4.667V4.67173V4.67645V4.68117V4.6859V4.69062V4.69534V4.70006V4.70478V4.70949V4.71421V4.71893V4.72364V4.72836V4.73307V4.73778V4.7425V4.74721V4.75192V4.75663V4.76134V4.76604V4.77075V4.77546V4.78016V4.78487V4.78957V4.79427V4.79897V4.80367V4.80837V4.81307V4.81777V4.82247V4.82717V4.83186V4.83656V4.84125V4.84595V4.85064V4.85533V4.86003V4.86472V4.86941V4.8741V4.87878V4.88347V4.88816V4.89284V4.89753V4.90222V4.9069V4.91158V4.91626V4.92095V4.92563V4.93031V4.93499V4.93967V4.94434V4.94902V4.9537V4.95837V4.96305V4.96772V4.9724V4.97707V4.98174V4.98641V4.99108V4.99575V5.00042V5.00509V5.00976V5.01443V5.01909V5.02376V5.02843V5.03309V5.03775V5.04242V5.04708V5.05174V5.0564V5.06106V5.06572V5.07038V5.07504V5.0797V5.08436V5.08901V5.09367V5.09833V5.10298V5.10764V5.11229V5.11694V5.12159V5.12625V5.1309V5.13555V5.1402V5.14485V5.1495V5.15414V5.15879V5.16344V5.16809V5.17273V5.17738V5.18202V5.18666V5.19131V5.19595V5.20059V5.20523V5.20988V5.21452V5.21916V5.2238V5.22843V5.23307V5.23771V5.24235V5.24698V5.25162V5.25626V5.26089V5.26553V5.27016V5.27479V5.27943V5.28406V5.28869V5.29332V5.29795V5.30258V5.30721V5.31184V5.31647V5.3211V5.32573V5.33036V5.33498V5.33961V5.34424V5.34886V5.35349V5.35811V5.36273V5.36736V5.37198V5.3766V5.38123V5.38585V5.39047V5.39509V5.39971V5.40433V5.40895V5.41357V5.41819V5.42281V5.42742V5.43204V5.43666V5.44127V5.44589V5.45051V5.45512V5.45974V5.46435V5.46896V5.47358V5.47819V5.4828V5.48742V5.49203V5.49664V5.50125V5.50586V5.51047V5.51508V5.51969V5.5243V5.52891V5.53352V5.53813V5.54273V5.54734V5.55195V5.55656V5.56116V5.56577V5.57037V5.57498V5.57959V5.58419V5.58879V5.5934V5.598V5.60261V5.60721V5.61181V5.61641V5.62102V5.62562V5.63022V5.63482V5.63942V5.64402V5.64862V5.65322V5.65782V5.66242V5.66702V5.67162V5.67622V5.68082V5.68542V5.69001V5.69461V5.69921V5.70381V5.7084V5.713V5.7176V5.72219V5.72679V5.73138V5.73598V5.74057V5.74517V5.74976V5.75436V5.75895V5.76355V5.76814V5.77273V5.77733V5.78192V5.78651V5.7911V5.7957V5.80029V5.80488V5.80947V5.81406V5.81866V5.82325V5.82784V5.83243V5.83702V5.84161V5.8462V5.85079V5.85538V5.85997V5.86456V5.86915V5.87374V5.87833V5.88292V5.88751V5.8921V5.89669V5.90127V5.90586V5.91045V5.91504V5.91963V5.92421V5.9288V5.93339V5.93798V5.94256V5.94715V5.95174V5.95633V5.96091V5.9655V5.97009V5.97467V5.97926V5.98385V5.98843V5.99302V5.99761V6.00219V6.00678V6.01137V6.01595V6.02054V6.02512V6.02971V6.0343V6.03888V6.04347V6.04805V6.05264V6.05722V6.06181V6.0664V6.07098V6.07557V6.08015V6.08474V6.08932V6.09391V6.09849V6.10308V6.10766V6.11225V6.11683C4.63916 6.22153 4.63152 6.33168 4.62285 6.4445C4.62178 6.45841 4.62069 6.47237 4.6196 6.48635C4.61191 6.58518 4.60409 6.68565 4.60095 6.78361C4.59383 7.00592 4.61006 7.2263 4.71419 7.40088C4.8183 7.57543 5.00745 7.69662 5.20928 7.79943C5.29289 7.84201 5.38055 7.88232 5.46702 7.92208C5.48558 7.93062 5.50408 7.93913 5.52248 7.94763C5.6272 7.99601 5.72886 8.04431 5.82147 8.09688C6.52088 8.49482 7.22409 8.89204 7.94544 9.29516L7.99672 9.32382L8.01682 9.26862C8.03423 9.22079 8.04716 9.1715 8.05542 9.12137L8.05609 9.12148V9.11324C8.05609 8.82358 8.05675 8.53383 8.05741 8.24402C8.0593 7.41895 8.06119 6.59344 8.04778 5.76852ZM8.04778 5.76852C8.04778 5.76866 8.04778 5.7688 8.04778 5.76895H7.99778M8.04778 5.76852C8.04778 5.76839 8.04777 5.76826 8.04777 5.76813L7.99778 5.76895M7.99778 5.76895C8.01119 6.59349 8.0093 7.41844 8.00741 8.24349C8.00675 8.5334 8.00609 8.82332 8.00609 9.11324L5.96632 4.41162C6.56085 4.74537 7.15646 5.07974 7.74553 5.42473C7.86184 5.4924 7.99778 5.65053 7.99778 5.76895ZM13.8786 11.1873C13.8787 11.1873 13.8788 11.1873 13.8788 11.1872C13.8789 11.1872 13.879 11.1871 13.8791 11.1871L13.8598 11.141L13.8786 11.1873ZM15.0991 11.5837C15.0991 11.5837 15.0991 11.5837 15.0991 11.5837C15.099 11.5838 15.099 11.5838 15.099 11.5838L15.1225 11.6279L15.0991 11.5837ZM16.9513 9.44338C16.9508 9.44521 16.9504 9.44703 16.95 9.44885V9.45451H17L16.9513 9.44338ZM16.95 8.86611V8.87174C16.9504 8.87355 16.9508 8.87537 16.9512 8.87718L17 8.86611H16.95ZM15.105 6.73168C15.1051 6.73175 15.1053 6.73181 15.1054 6.73188C15.1055 6.73194 15.1056 6.732 15.1057 6.73205L15.1286 6.68758L15.105 6.73168ZM5.15852 2.81798L5.08136 2.86147L5.15847 2.90506C5.41392 3.04948 5.66787 3.18626 5.91844 3.32121C6.47711 3.62212 7.01896 3.91396 7.52308 4.26117C7.86299 4.49528 8.17569 4.62104 8.49294 4.6245C8.81047 4.62796 9.12492 4.50883 9.46814 4.26833C9.96698 3.91966 10.5067 3.62992 11.0619 3.33183C11.3109 3.19817 11.5629 3.06284 11.8159 2.91976L11.893 2.87613L11.8158 2.83267C11.5808 2.70045 11.3483 2.56943 11.1176 2.43945C10.2872 1.97154 9.48045 1.51695 8.67001 1.06733L8.66974 1.06718C8.61797 1.03888 8.56065 1.02174 8.50162 1.01686C8.44259 1.01197 8.38316 1.01945 8.32729 1.03881L8.32705 1.0381L8.31944 1.04231C7.51609 1.48728 6.71628 1.9388 5.89856 2.40043C5.65368 2.53867 5.40719 2.67783 5.15852 2.81798ZM6.14961 12.4255L6.22301 12.3972L6.16624 12.3428L5.4654 11.6705L5.40053 11.6083L5.38187 11.6962C5.33252 11.9288 5.28516 12.1414 5.23587 12.3626C5.20978 12.4798 5.18314 12.5993 5.15539 12.7255L5.13541 12.8164L5.2222 12.7829L6.14961 12.4255Z" fill="#F2672A" stroke="white" stroke-width="0.1"/>
</svg>
