<svg width="18" height="11" viewBox="0 0 18 11" fill="none" xmlns="http://www.w3.org/2000/svg">
<path d="M15.6509 6.35215L1.07186 6.35215C0.863781 6.35215 0.60306 6.41231 0.460165 6.31078C0.250837 6.16287 0.0101757 5.89839 0.000146866 5.67402C-0.00737381 5.49353 0.274652 5.24534 0.483982 5.12626C0.644424 5.03476 0.892607 5.09618 1.10068 5.09618L15.6709 5.09618L15.7775 4.92696C14.8081 3.99188 13.84 3.05638 12.8732 2.12046C12.6789 1.93244 12.4132 1.76573 12.3217 1.53384C12.2176 1.26811 12.1474 0.853213 12.2828 0.65642C12.5435 0.287902 12.9421 0.39194 13.253 0.700292C14.112 1.55599 14.969 2.41043 15.8238 3.26362C16.4142 3.85274 17.0109 4.43435 17.6 5.02473C18.134 5.56247 18.1327 5.85703 17.6 6.39351C16.1836 7.8141 14.7651 9.23009 13.3445 10.6415C12.887 11.0965 12.3768 11.1291 12.2164 10.6778C12.1811 10.5292 12.1803 10.3744 12.214 10.2254C12.2476 10.0764 12.3149 9.93702 12.4107 9.81797C13.4937 8.68985 14.6255 7.61563 15.7411 6.52262L15.6509 6.35215Z" fill="white"/>
</svg>
