<svg width="16" height="16" viewBox="0 0 16 16" fill="none" xmlns="http://www.w3.org/2000/svg">
<path d="M12.6462 11.3104L13.8155 12.4761C14.444 13.104 15.0743 13.7302 15.6992 14.3616C15.9646 14.6293 16.0617 14.954 15.9492 15.3194C15.9038 15.4849 15.8122 15.6341 15.6852 15.7495C15.5582 15.8649 15.4009 15.9417 15.2318 15.971C14.8658 16.0492 14.5678 15.9118 14.3107 15.6535C13.3701 14.7105 12.4288 13.7683 11.487 12.8268C11.4278 12.7676 11.3827 12.7018 11.3277 12.6349C9.52335 13.9428 7.55911 14.3859 5.41599 13.8925C3.71949 13.5027 2.35353 12.5757 1.33409 11.1676C0.330501 9.77854 -0.132195 8.07118 0.0326893 6.36541C0.197573 4.65965 0.978724 3.07252 2.2298 1.90136C3.48088 0.730196 5.11604 0.0553546 6.82896 0.00325781C8.54188 -0.048839 10.215 0.525384 11.535 1.61835C14.3451 3.94215 14.9961 8.16502 12.6462 11.3104ZM7.03725 12.1841C8.05421 12.1847 9.04853 11.8838 9.89452 11.3194C10.7405 10.7551 11.4002 9.95259 11.7903 9.01339C12.1803 8.0742 12.2832 7.04046 12.0859 6.04282C11.8885 5.04519 11.3999 4.12843 10.6817 3.40842C9.96354 2.68841 9.04802 2.19746 8.05089 1.99763C7.05375 1.79779 6.01975 1.89804 5.07958 2.2857C4.1394 2.67336 3.33524 3.33103 2.76874 4.17559C2.20224 5.02016 1.89882 6.0137 1.89683 7.03066C1.89354 7.70725 2.02417 8.37779 2.28117 9.00367C2.53818 9.62955 2.91649 10.1984 3.3943 10.6774C3.87212 11.1564 4.44 11.5362 5.06522 11.7948C5.69045 12.0534 6.36066 12.1857 7.03725 12.1841Z" fill="white"/>
</svg>
