<svg width="81" height="68" viewBox="0 0 81 68" fill="none" xmlns="http://www.w3.org/2000/svg">
<path d="M34.7041 55.9691C35.4701 55.9691 36.0922 55.3469 36.0922 54.581V51.8048C36.0922 51.0389 35.4701 50.4167 34.7041 50.4167H29.1518C28.3858 50.4167 27.7637 51.0389 27.7637 51.8048V54.581C27.7637 55.3469 28.3858 55.9691 29.1518 55.9691H34.7041Z" fill="black"/>
<path d="M44.418 49.0286V67.0738H47.1942V47.6405H45.8061C45.0401 47.6405 44.418 48.2627 44.418 49.0286Z" fill="black"/>
<path d="M0 36.5358H1.3881C3.68408 36.5358 5.55238 38.4041 5.55238 40.7001V45.1196C5.98802 44.9641 6.45217 44.8643 6.94048 44.8643H12.4929C14.7888 44.8643 16.6571 46.7326 16.6571 49.0286C16.6571 49.5169 16.5574 49.981 16.4018 50.4167H25.2428C25.8173 48.8049 27.3441 47.6405 29.1518 47.6405H34.7042C36.5113 47.6405 38.0382 48.8049 38.6133 50.4167H41.643V49.0286C41.643 46.7326 43.5113 44.8643 45.8072 44.8643H47.1953V25.431H9.56155e-05L0 36.5358ZM31.9262 40.7001H24.9857V36.5358H31.9262V40.7001ZM31.9262 29.5953V33.7596H24.9857V29.5953H31.9262ZM15.269 29.5953H22.2095V33.7596H15.269V29.5953ZM15.269 36.5358H22.2095V40.7001H15.269V36.5358Z" fill="black"/>
<path d="M16.6602 19.8787H22.2125V22.6549H16.6602V19.8787Z" fill="black"/>
<path d="M8.32617 19.8787H13.8786V22.6549H8.32617V19.8787Z" fill="black"/>
<path d="M5.55469 64.2976H41.6452V67.0738H5.55469V64.2976Z" fill="black"/>
<path d="M13.8833 49.0286C13.8833 48.2627 13.2611 47.6405 12.4952 47.6405H6.94278C6.17686 47.6405 5.55469 48.2627 5.55469 49.0286V50.4167H12.4952C13.2611 50.4167 13.8833 49.7945 13.8833 49.0286Z" fill="black"/>
<path d="M1.3881 39.3119H0V67.0738H2.77619V40.7C2.77619 39.9341 2.15402 39.3119 1.3881 39.3119Z" fill="black"/>
<path d="M5.55469 0.445312H74.961V3.2215H5.55469V0.445312Z" fill="black"/>
<path d="M0 19.8787H5.55238V22.6549H0V19.8787Z" fill="black"/>
<path d="M33.3145 19.8787H38.8668V22.6549H33.3145V19.8787Z" fill="black"/>
<path d="M38.869 54.5811C38.869 56.8771 37.0007 58.7454 34.7047 58.7454H29.1523C26.8563 58.7454 24.988 56.8771 24.988 54.5811V53.193H5.55469V61.5216H41.6452V53.193H38.869V54.5811Z" fill="black"/>
<path d="M24.9844 19.8787H30.5368V22.6549H24.9844V19.8787Z" fill="black"/>
<path d="M49.9688 33.7596H55.5211V36.5358H49.9688V33.7596Z" fill="black"/>
<path d="M49.9688 30.9834H61.0735V28.2072H49.9688V30.9834Z" fill="black"/>
<path d="M49.9688 39.3119H55.5211V42.0881H49.9688V39.3119Z" fill="black"/>
<path d="M58.2988 33.7596V47.6405H72.1798V33.7596H58.2988ZM63.4448 35.5541L70.3852 42.4946L68.4227 44.4571L61.4822 37.5166L63.4448 35.5541ZM62.0567 41.1065L64.8329 43.8827L62.8703 45.8452L60.0941 43.069L62.0567 41.1065Z" fill="black"/>
<path d="M63.8535 30.9834H74.9583V47.6406H80.5107V25.431H63.8535V30.9834Z" fill="black"/>
<path d="M49.9688 44.8645H55.5211V47.6407H49.9688V44.8645Z" fill="black"/>
<path d="M49.9688 22.655H61.0735V25.4312H49.9688V22.655Z" fill="black"/>
<path d="M72.7799 5.99768H7.72341L1.06055 17.1024H49.9691V19.8786H61.0739V17.1024H63.8501V22.6548H80.5072V18.8748L72.7799 5.99768Z" fill="black"/>
<path d="M55.5211 50.4167H49.9688V67.0738H63.8497V60.1334H56.9092V54.581H73.5664V60.1334H66.6259V67.0738H80.5068V50.4167H55.5211Z" fill="black"/>
<path d="M41.6445 19.8787H47.1969V22.6549H41.6445V19.8787Z" fill="black"/>
</svg>
