<svg width="141" height="103" viewBox="0 0 141 103" fill="none" xmlns="http://www.w3.org/2000/svg">
<path fillRule="evenodd" clip-rule="evenodd" d="M7.39648 37.8229V92.4997H19.1131V68.1998C11.3026 69.9354 8.69878 60.8225 15.642 55.6157C26.0563 48.2384 36.4699 40.4279 46.8859 32.6173C47.754 31.7491 49.0555 31.7491 49.9237 32.1832L77.2612 52.5786L88.1096 44.3339L43.8488 10.9196L7.39889 37.8245L7.39648 37.8229Z" fill="black"/>
<path fillRule="evenodd" clip-rule="evenodd" d="M79.0039 65.5954V92.5003H94.6259V76.8784C94.6259 73.4072 97.6637 70.3693 101.135 70.3693H109.814C113.719 70.3693 116.323 73.4072 116.323 76.8784V92.5003H132.379V65.5954L105.474 45.6343L79.0039 65.5954Z" fill="black"/>
<path fillRule="evenodd" clip-rule="evenodd" d="M109.81 73.4061H101.131C98.9617 73.4061 97.6602 74.7076 97.6602 76.8773V92.4993H113.716V76.8773C113.716 74.7076 111.981 73.4061 109.811 73.4061H109.81Z" fill="black"/>
<path fillRule="evenodd" clip-rule="evenodd" d="M22.1582 65.5954V92.5003H37.7802V76.8784C37.7802 73.4072 40.818 70.3693 44.7233 70.3693H53.4021C56.8733 70.3693 59.9112 73.4072 59.9112 76.8784V92.5003H75.5331V65.5954L49.0627 45.6343L22.1582 65.5954Z" fill="black"/>
<path fillRule="evenodd" clip-rule="evenodd" d="M53.3985 73.4061H44.7197C42.55 73.4061 40.8145 74.7076 40.8145 76.8773V92.4993H56.8705V76.8773C56.8705 74.7076 55.1349 73.4061 53.3993 73.4061H53.3985Z" fill="black"/>
<path fillRule="evenodd" clip-rule="evenodd" d="M0.0273438 95.1031H140.26V102.129H0.0273438V95.1031Z" fill="black"/>
<path d="M104.163 35.2205H103.729H104.163ZM97.6542 39.994L75.5228 23.5047V7.01532H63.8061V14.3926L45.5806 0.506238C44.7124 0.0721394 43.4109 0.0721394 42.5427 0.506238L1.31933 31.3156C0.0178348 32.6171 -0.416264 34.7868 0.451153 36.0891C1.31933 37.8247 3.05494 38.2588 4.35644 37.3906L43.8438 7.44821L92.0112 44.3326L77.2574 55.6152L50.3525 35.2197C49.4843 34.3515 48.1828 34.3515 47.3146 35.2197L15.6382 59.0871C13.9026 60.3886 13.9026 62.5583 14.3367 63.8606C15.2049 65.5962 17.3746 66.0303 18.6761 65.1621L49.051 42.1637L72.4839 59.9551L77.2574 63.4263L105.464 42.1639L135.839 65.1623C137.14 66.0305 138.877 65.5964 139.744 63.8608C140.612 62.5593 140.178 60.3896 138.876 59.0873L107.199 35.2199C105.898 34.3517 105.03 34.3517 104.162 35.2199H103.727L97.6525 39.9934L97.6542 39.994Z" fill="black"/>
</svg>
