<svg width="15" height="18" viewBox="0 0 15 18" fill="none" xmlns="http://www.w3.org/2000/svg">
<path d="M7.43493 17.7271C5.77052 17.701 4.0726 17.4999 2.4491 16.8699C1.743 16.5956 1.08122 16.2451 0.562012 15.6713C0.183686 15.255 -0.0139981 14.7693 0.000771406 14.2012C0.0530326 12.2034 0.767648 10.4856 2.15939 9.05181C2.45307 8.74904 2.86435 8.72802 3.14667 8.99501C3.43808 9.26881 3.4432 9.68633 3.13815 9.99819C2.21454 10.9261 1.61473 12.1272 1.42773 13.423C1.39308 13.6536 1.39194 13.8899 1.36297 14.1217C1.3215 14.4534 1.4692 14.6977 1.70381 14.9067C2.11394 15.272 2.60247 15.4964 3.11202 15.6804C4.37935 16.14 5.69724 16.3223 7.03729 16.3559C8.68465 16.3973 10.3155 16.253 11.8766 15.6742C12.2981 15.5185 12.6991 15.2947 13.0877 15.0647C13.5154 14.8119 13.6779 14.4284 13.6302 13.9121C13.4904 12.3982 12.9263 11.0883 11.8578 10.0027C11.6874 9.83232 11.5806 9.64032 11.6084 9.39605C11.6176 9.26722 11.6648 9.144 11.7441 9.04204C11.8234 8.94009 11.9312 8.86401 12.0538 8.82345C12.3276 8.72291 12.5719 8.78994 12.7764 8.99387C13.5844 9.78803 14.1992 10.7573 14.5731 11.8268C14.8268 12.5651 14.9698 13.3369 14.9975 14.1171C15.0293 14.8215 14.76 15.3873 14.2556 15.856C13.6341 16.4337 12.8809 16.7768 12.0885 17.0415C10.599 17.5346 9.06014 17.7101 7.43493 17.7271Z" fill="#5B5B5B"/>
<path d="M7.50914 9.18329e-06C10.1671 0.00512167 12.2751 2.14839 12.27 4.83983C12.2649 7.40971 10.0938 9.55127 7.49834 9.54332C6.86878 9.54251 6.24559 9.41729 5.66459 9.17486C5.08358 8.93243 4.55621 8.57756 4.11279 8.13066C3.66937 7.68376 3.31864 7.15363 3.08076 6.57075C2.84289 5.98786 2.72255 5.36371 2.72666 4.73417C2.73632 2.1251 4.88642 -0.0051033 7.50914 9.18329e-06ZM10.9078 4.75973C10.9078 2.88175 9.37066 1.3605 7.47846 1.36334C5.62489 1.36675 4.09114 2.90504 4.09114 4.76201C4.09114 6.64624 5.61353 8.17999 7.47903 8.17999C7.92934 8.18269 8.37573 8.09613 8.79239 7.92531C9.20906 7.75449 9.58774 7.5028 9.90656 7.18477C10.2254 6.86674 10.478 6.48869 10.6499 6.07245C10.8217 5.65622 10.9094 5.21005 10.9078 4.75973Z" fill="#5B5B5B"/>
</svg>
