<svg width="18" height="18" viewBox="0 0 18 18" fill="none" xmlns="http://www.w3.org/2000/svg">
<path d="M8.53806 18C6.85977 17.974 5.13525 17.7711 3.48701 17.1296C2.76981 16.8511 2.09826 16.4933 1.57119 15.9125C1.18688 15.4901 0.985759 14.9983 1.00078 14.4192C1.05395 12.3907 1.77925 10.6465 3.194 9.1907C3.49279 8.88325 3.91005 8.86187 4.1967 9.1306C4.4926 9.40858 4.49722 9.8322 4.18803 10.1495C3.23619 11.1239 2.65422 12.2809 2.45137 13.6268C2.41612 13.8615 2.41496 14.1007 2.38549 14.3365C2.3433 14.6735 2.49356 14.9214 2.73109 15.1335C3.14777 15.5045 3.64363 15.7322 4.16087 15.9195C5.4479 16.3858 6.78637 16.5708 8.1468 16.6049C9.82162 16.6471 11.4756 16.5003 13.0609 15.916C13.4891 15.7582 13.896 15.5305 14.2907 15.297C14.7253 15.0399 14.89 14.6509 14.8415 14.1262C14.6999 12.5889 14.1266 11.2591 13.0418 10.1564C12.8713 9.98304 12.7604 9.78828 12.7887 9.54035C12.821 9.25832 12.973 9.0572 13.2406 8.95896C13.5186 8.85666 13.7671 8.92544 13.9746 9.1306C14.8027 9.94952 15.4113 10.9083 15.7991 12.0069C16.0649 12.76 16.1926 13.5373 16.2291 14.3342C16.2614 15.0497 15.9881 15.6236 15.476 16.0998C14.8444 16.6869 14.0798 17.0349 13.2747 17.3019C11.7623 17.8041 10.1996 17.9826 8.53806 17.9994V18Z" fill="#092143"/>
<path d="M8.62469 9.36027e-06C11.3236 0.00521067 13.4636 2.18109 13.4584 4.91409C13.4532 7.52341 11.2485 9.69814 8.61544 9.69005C5.92117 9.68195 3.76089 7.50492 3.76956 4.80717C3.77823 2.15797 5.96277 -0.00519195 8.62469 9.36027e-06ZM8.60966 8.30419C10.5278 8.30187 12.0732 6.75593 12.0743 4.8378C12.0749 2.9295 10.5185 1.38356 8.59753 1.38414C6.7135 1.38471 5.15426 2.94453 5.15426 4.82913C5.15426 6.74957 6.70252 8.30592 8.61024 8.30361L8.60966 8.30419Z" fill="#092143"/>
</svg>
