<svg width="12" height="11" viewBox="0 0 12 11" fill="none" xmlns="http://www.w3.org/2000/svg">
<path d="M5.99674 1.0485C7.09681 0.0529299 8.33758 -0.273119 9.73221 0.241257C12.0064 1.08002 12.7642 4.05759 11.1063 5.83468C9.49278 7.56364 7.78713 9.20466 6.12098 10.883C6.07426 10.9246 6.02537 10.9637 5.97453 11L2.26045 7.24423C1.86387 6.84351 1.4607 6.44944 1.06987 6.04291C0.0520828 4.98347 -0.262222 3.73071 0.22487 2.34688C0.711962 0.963042 1.74703 0.181523 3.19926 0.0263809C4.12243 -0.0723461 4.95838 0.200605 5.6882 0.78633C5.79351 0.870953 5.89472 0.960554 5.99674 1.0485ZM5.99674 2.66048C5.7063 2.34937 5.4537 2.05816 5.17971 1.78936C4.95616 1.56468 4.69077 1.38677 4.3988 1.26585C4.10683 1.14493 3.79403 1.0834 3.47839 1.08479C3.16276 1.08618 2.85051 1.15046 2.55959 1.27394C2.26868 1.39741 2.00483 1.57765 1.78323 1.80429C1.3332 2.25948 1.08049 2.876 1.08049 3.51874C1.08049 4.16148 1.3332 4.778 1.78323 5.23319C3.10409 6.5772 4.43015 7.91568 5.76143 9.24864C5.83465 9.32247 5.9194 9.38636 6.00826 9.46434C7.42017 8.04151 8.82138 6.64357 10.2045 5.22821C10.4313 5.00182 10.6108 4.73184 10.7323 4.43425C10.8538 4.13667 10.9149 3.81753 10.9119 3.49572C10.9089 3.17392 10.8419 2.85599 10.7149 2.56076C10.5879 2.26552 10.4034 1.99898 10.1724 1.77692C9.18506 0.815367 7.67853 0.856848 6.71668 1.87481C6.49042 2.12453 6.25921 2.38006 6.00168 2.66048H5.99674Z" fill="#F2672A"/>
</svg>
