<svg width="24" height="20" viewBox="0 0 24 20" fill="none" xmlns="http://www.w3.org/2000/svg">
<path d="M0.00532966 12.5587C0.645045 10.4436 2.40426 9.55263 4.2701 8.78772C5.21795 8.39791 5.22967 8.41892 5.22967 7.41655C5.22967 6.3837 5.24247 5.34981 5.22328 4.31696C5.21581 3.88302 5.36615 3.60248 5.75637 3.38393C7.63856 2.33323 9.51222 1.26606 11.3773 0.182429C11.7953 -0.0602841 12.1386 -0.0613348 12.5587 0.182429C14.4896 1.29198 16.4428 2.3637 18.3641 3.489C18.5773 3.61614 18.7554 3.99019 18.7639 4.25497C18.8055 5.51582 18.7938 6.77667 18.7757 8.03751C18.7757 8.35273 18.8823 8.47671 19.1776 8.59229C19.9247 8.86611 20.653 9.18724 21.358 9.55368C22.6374 10.245 23.6663 11.1781 24 12.6659V13.5064C23.6641 14.9953 22.6363 15.9168 21.3494 16.6113C19.3834 17.6672 17.251 18.1558 15.0589 18.449C14.7956 18.4847 14.5311 18.5204 14.2657 18.5351C13.7923 18.5614 13.4671 18.3103 13.434 17.9121C13.401 17.5138 13.6782 17.2228 14.1516 17.1766C16.011 16.978 17.8459 16.646 19.5668 15.9157C20.3675 15.5876 21.1176 15.1505 21.7951 14.617C22.873 13.7344 22.8613 12.6491 21.9017 11.653C21.2354 10.9627 19.7629 10.161 18.8258 9.97922C18.8119 10.0097 18.7821 10.0423 18.7874 10.0685C19.0166 11.1455 18.41 11.6593 17.5239 12.1227C15.8628 12.9895 14.2497 13.9477 12.6323 14.8934C12.1738 15.1613 11.7953 15.1382 11.3528 14.8776C9.61066 13.8647 7.86957 12.8487 6.09436 11.8926C5.45464 11.5448 5.10173 11.1424 5.22648 10.4079C5.23807 10.2449 5.23807 10.0813 5.22648 9.91828C3.87028 10.4006 2.60897 10.9301 1.75389 12.0869C1.25811 12.7457 1.23358 13.4812 1.8008 14.1116C2.27797 14.649 2.84171 15.1051 3.46939 15.4618C4.32981 15.9304 5.28192 16.2435 6.24149 16.646C6.37157 16.0985 6.46326 15.6572 6.5848 15.2222C6.75966 14.5918 7.33114 14.4111 7.79387 14.8619C8.66886 15.708 9.52714 16.571 10.3687 17.4508C10.7462 17.8438 10.6438 18.3523 10.1342 18.5656C8.97485 19.0475 7.80631 19.5074 6.62852 19.9452C6.05917 20.1553 5.60498 19.735 5.71053 19.134C5.7809 18.7411 5.87579 18.3534 5.96535 17.9383C5.32563 17.7208 4.68592 17.5643 4.10697 17.2858C3.25822 16.891 2.43878 16.4378 1.65473 15.9294C0.788982 15.3567 0.255886 14.5109 0 13.5064L0.00532966 12.5587ZM7.31728 4.08791C8.47623 4.7509 9.62665 5.30778 10.6609 6.02856C11.6076 6.68841 12.3721 6.71572 13.3263 6.03907C14.3499 5.31513 15.4992 4.76561 16.6465 4.10892C15.1207 3.23999 13.6675 2.40783 12.2058 1.58723C12.1414 1.55161 12.07 1.53 11.9965 1.52384C11.9229 1.51768 11.8489 1.52711 11.7793 1.5515C10.3058 2.37736 8.84087 3.21897 7.31728 4.08791V4.08791ZM17.3843 5.28571C15.8266 6.17146 14.3659 6.99311 12.9191 7.83998C12.7943 7.91248 12.7058 8.14574 12.7058 8.30754C12.6824 9.0588 12.6952 9.81216 12.6952 10.5645V13.2511C14.2529 12.3622 15.7231 11.529 17.1838 10.6811C17.2379 10.6439 17.2831 10.5957 17.3164 10.5396C17.3497 10.4836 17.3703 10.4211 17.3768 10.3564C17.3875 8.69841 17.3843 7.04039 17.3843 5.28571V5.28571ZM11.2515 13.2164C11.2746 13.1523 11.2918 13.0862 11.3027 13.0189C11.3027 11.426 11.3166 9.83317 11.291 8.24135C11.291 8.07219 11.0991 7.84628 10.9349 7.74962C9.84096 7.10133 8.73105 6.47932 7.62968 5.85099C7.30982 5.67237 6.98996 5.50111 6.61999 5.29307C6.61999 6.50243 6.61999 7.62038 6.61999 8.73833C6.61999 9.3488 6.44407 10.0748 6.71595 10.5361C6.98783 10.9974 7.71923 11.198 8.2534 11.5048C9.24069 12.0733 10.2333 12.6407 11.2515 13.2164ZM8.65642 17.6841L7.66699 16.7237C7.56037 17.2322 7.46015 17.6746 7.34713 18.1947L8.65642 17.6841Z" fill="white"/>
</svg>
