<svg width="9" height="17" viewBox="0 0 9 17" fill="none" xmlns="http://www.w3.org/2000/svg">
<path d="M2.56213 8.32252C4.03135 9.88272 5.46861 11.4064 6.90016 12.9339C7.24264 13.2975 7.58511 13.6662 7.90362 14.05C8.36025 14.596 8.36025 15.3258 7.90362 15.7901C7.44698 16.2544 6.85792 16.2192 6.37503 15.6894C4.39171 13.5194 2.41525 11.3423 0.445628 9.15799C-0.125166 8.52887 -0.106901 7.89976 0.487866 7.24045C2.43618 5.08888 4.38829 2.94235 6.34421 0.800847C6.87162 0.223321 7.51776 0.195641 7.95042 0.703964C8.38308 1.21229 8.33742 1.92319 7.82256 2.4919C6.19847 4.28446 4.57285 6.07701 2.9457 7.86956C2.86579 7.95889 2.79159 8.052 2.56213 8.32252Z" fill="#F2672A"/>
</svg>
