<svg width="40" height="40" viewBox="0 0 40 40" fill="none" xmlns="http://www.w3.org/2000/svg">
<path d="M32.3659 26.0864C32.2713 27.0178 31.7674 27.8532 31.0503 28.4175C31.4517 28.8898 31.6947 29.5007 31.6947 30.1675V32.6676C31.6947 33.7452 31.0727 34.6735 30.1611 35.1095C30.2127 35.3586 30.2401 35.6164 30.2401 35.8805C30.2401 37.9706 28.5397 39.6709 26.4498 39.6709C24.3598 39.6709 22.6594 37.9706 22.6594 35.8805C22.6594 35.7092 22.6719 35.5408 22.6941 35.3755H16.4595C16.4816 35.5409 16.4941 35.7092 16.4941 35.8805C16.4941 37.9706 14.7938 39.6709 12.7037 39.6709C10.6138 39.6709 8.91343 37.9706 8.91343 35.8805C8.91343 33.7905 10.6138 32.0901 12.7037 32.0901C13.9716 32.0901 15.0952 32.7165 15.7837 33.6753H23.3699C24.0584 32.7165 25.182 32.0901 26.4499 32.0901C27.668 32.0901 28.7529 32.6684 29.4468 33.5641C29.7733 33.3974 29.9947 33.0595 29.9947 32.6677V30.1676C29.9947 29.6124 29.5427 29.1607 28.9871 29.1607C28.9845 29.1607 28.982 29.1604 28.9794 29.1603C28.9742 29.1604 28.969 29.1607 28.9639 29.1607H9.08774C7.44429 29.1607 5.74207 27.9423 5.21225 26.3869L0.161522 11.5568C-0.124275 10.7177 -0.0270386 9.87167 0.428371 9.23555C0.883701 8.59943 1.65324 8.23454 2.53962 8.23454H4.35236L9.81502 2.74572C10.6643 1.89659 12.0409 1.88922 12.9001 2.72273L22.1189 5.20243L24.5936 0.765228C24.8222 0.355236 25.3399 0.20829 25.75 0.436846L30.6997 3.19733C30.8966 3.30711 31.0418 3.49073 31.1033 3.70763C31.1649 3.92453 31.1378 4.15697 31.028 4.35387L28.8637 8.23446H30.914C31.4608 8.23446 31.9758 8.37411 32.4224 8.63595L32.8238 4.62274C32.8672 4.18814 33.233 3.85725 33.6697 3.85725H39.1499C39.6194 3.85725 40 4.23785 40 4.70735C40 5.17685 39.6194 5.55745 39.1499 5.55745H34.439L32.3659 26.0864ZM12.7036 33.7903C11.5511 33.7903 10.6135 34.728 10.6135 35.8805C10.6135 37.033 11.5511 37.9706 12.7036 37.9706C13.8561 37.9706 14.7938 37.033 14.7938 35.8805C14.7938 34.7279 13.8561 33.7903 12.7036 33.7903ZM26.4497 33.7903C25.2972 33.7903 24.3595 34.728 24.3595 35.8805C24.3595 37.033 25.2972 37.9706 26.4497 37.9706C27.6022 37.9706 28.5398 37.033 28.5398 35.8805C28.5398 34.7279 27.6022 33.7903 26.4497 33.7903ZM11.0183 3.94647L6.75077 8.23446H16.0083L11.7219 3.948C11.5275 3.75361 11.2114 3.75361 11.0183 3.94647ZM15.3099 5.13159L18.4127 8.23446H20.4278L21.265 6.7335L15.3099 5.13159ZM29.1292 4.26813L25.6644 2.33581L22.3746 8.23446H26.917L29.1292 4.26813ZM1.77072 11.0085L6.82145 25.8386C7.11575 26.7025 8.17465 27.4603 9.0875 27.4603H28.9637C29.8059 27.4603 30.5894 26.7525 30.6744 25.9148L30.9748 22.952H12.6978C12.2283 22.952 11.8477 22.5714 11.8477 22.1019C11.8477 21.6324 12.2283 21.2518 12.6978 21.2518H31.147L32.1531 11.3282C32.1531 11.3279 32.1531 11.3278 32.1531 11.3277L32.1532 11.3258C32.1915 10.9478 32.0821 10.5952 31.8449 10.3327C31.6129 10.076 31.2823 9.93466 30.914 9.93466H4.71329C4.71045 9.93474 4.70778 9.93506 4.70494 9.93506C4.70219 9.93506 4.69944 9.93474 4.69669 9.93466H2.53929C2.20346 9.93466 1.94455 10.0378 1.81055 10.2251C1.67648 10.4123 1.6624 10.6905 1.77072 11.0085Z" fill="#000027"/>
</svg>
