<svg width="22" height="22" viewBox="0 0 22 22" fill="none" xmlns="http://www.w3.org/2000/svg">
<path d="M3.92598 2.40307L3.48171 2.44678L3.92598 2.40307ZM3.92598 2.40307C3.90923 2.34059 3.89661 2.27716 3.88817 2.21322M3.92598 2.40307C3.93514 2.43721 3.94553 2.47107 3.95714 2.50458L3.98928 2.83126L4.06386 3.58939C3.92283 3.64267 3.78631 3.70837 3.6557 3.78623L4.14066 4.59979C4.10984 4.61774 4.07951 4.63675 4.04974 4.6568C3.93695 4.73277 3.83207 4.82379 3.73795 4.92968C3.52365 5.17077 3.39301 5.4564 3.33963 5.75323L3.88817 2.21322M3.92598 2.40307L3.94695 2.40101M3.92598 2.40307L3.94695 2.40101M3.88817 2.21322C3.91965 2.2694 3.94025 2.33293 3.94695 2.40101M3.88817 2.21322L3.94695 2.40101M4.23385 4.63869L4.99731 4.56358L5.05948 4.55747L5.24826 4.90162L6.07128 4.45016L6.12502 4.54813L6.31893 4.90163L6.57665 5.37144H6.12502H4.99731C4.87186 5.37144 4.75438 5.40175 4.6528 5.45894C4.59036 5.49409 4.53393 5.53939 4.48536 5.59405C4.47105 5.61015 4.45758 5.62685 4.44498 5.64412L4.23385 4.63869Z" fill="white" stroke="white" stroke-width="2"/>
</svg>
