<svg width="8" height="16" viewBox="0 0 8 16" fill="none" xmlns="http://www.w3.org/2000/svg">
<path d="M7.78899 0.0035553C7.8549 0.152158 7.98078 0.298627 7.98671 0.448651C8.0078 1.18242 7.98671 1.9169 7.99989 2.6528C8.00451 2.98058 7.86149 3.09008 7.57941 3.09221C7.08576 3.09576 6.5908 3.10359 6.09913 3.13416C5.64305 3.1626 5.38536 3.42283 5.36361 3.91628C5.33725 4.51638 5.35768 5.11861 5.35768 5.76492H7.37312C7.85951 5.76492 7.91817 5.8282 7.91817 6.35791C7.91817 7.04428 7.91817 7.73159 7.91817 8.41986C7.91817 8.97374 7.86149 9.0356 7.36257 9.0356H5.34977V9.43519C5.34977 11.436 5.35504 13.4368 5.3412 15.4383C5.3412 15.626 5.21795 15.813 5.15205 16H2.44985C2.22709 15.8855 2.24027 15.6694 2.24093 15.4532C2.24093 13.4624 2.24093 11.4734 2.24093 9.48638V9.03062C1.62668 9.03062 1.04801 9.03062 0.470006 9.03062C0.0653359 9.03062 0.00470127 8.96805 0.00338313 8.54357C0.00338313 7.76145 0.0086555 6.97934 8.75705e-05 6.19722C-0.00386686 5.87655 0.12597 5.75141 0.41728 5.75639C1.01044 5.76705 1.60031 5.75994 2.24093 5.75994C2.24093 5.36462 2.22445 4.9892 2.24422 4.61663C2.27981 3.95823 2.26268 3.28205 2.40174 2.64782C2.72271 1.1874 3.78579 0.241745 5.16984 0.0625687C5.23221 0.0480924 5.29312 0.027139 5.35174 0L7.78899 0.0035553Z" fill="#092143"/>
</svg>
