<svg width="18" height="15" viewBox="0 0 18 15" fill="none" xmlns="http://www.w3.org/2000/svg">
<path d="M17.9991 7.33703C17.8613 7.65476 17.6189 7.76379 17.2744 7.76286C14.3468 7.75444 11.4196 7.75818 8.49238 7.75818H8.28052C8.13287 8.2935 7.85351 8.73009 7.41806 9.05719C7.12121 9.28258 6.77458 9.4337 6.40721 9.49789C6.03984 9.56208 5.66241 9.53747 5.30652 9.42612C4.95063 9.31478 4.62664 9.11994 4.36167 8.85792C4.0967 8.59589 3.89846 8.27431 3.78356 7.92009C3.7409 7.78953 3.68606 7.75397 3.55294 7.7549C2.61034 7.76099 1.66773 7.74835 0.725119 7.76286C0.379668 7.76847 0.137805 7.6557 0 7.33703V7.05627C0.136399 6.73573 0.379669 6.62482 0.724182 6.62997C1.67242 6.64448 2.62112 6.63278 3.56982 6.63746C3.68653 6.63746 3.73856 6.61079 3.77699 6.48959C3.92718 6.01519 4.22511 5.60102 4.62741 5.30738C5.02972 5.01373 5.51539 4.85593 6.01376 4.85694C6.50934 4.85977 6.99128 5.01936 7.39031 5.31279C7.78934 5.60623 8.08492 6.01839 8.23458 6.49006C8.24864 6.53357 8.26411 6.57709 8.28427 6.63465H8.49144C11.4191 6.63465 14.3468 6.63839 17.2744 6.62997C17.6194 6.62997 17.8613 6.73713 17.9991 7.05627V7.33703ZM7.21838 7.18823C7.21615 6.86653 7.08639 6.5588 6.85747 6.33237C6.62856 6.10595 6.31913 5.97925 5.99688 5.98C5.67449 5.98418 5.3667 6.11492 5.14012 6.34392C4.91354 6.57293 4.78638 6.88178 4.78616 7.20367C4.79035 7.52569 4.92134 7.83313 5.1508 8.05949C5.38027 8.28586 5.68976 8.41296 6.01235 8.4133C6.33492 8.40996 6.643 8.27909 6.86907 8.04936C7.09514 7.81963 7.22076 7.50979 7.21838 7.18776V7.18823Z" fill="#092143"/>
<path d="M0 11.899C0.148117 11.5752 0.407791 11.4844 0.752305 11.4853C3.66263 11.4928 6.57342 11.4881 9.48421 11.4933C9.65388 11.4933 9.73075 11.4582 9.79028 11.2827C9.94789 10.8231 10.2465 10.4246 10.6437 10.1439C11.0409 9.8632 11.5165 9.71448 12.0031 9.71884C12.4896 9.71785 12.964 9.87003 13.3589 10.1537C13.7537 10.4374 14.0489 10.8382 14.2024 11.2991C14.2563 11.4601 14.3318 11.4942 14.4869 11.4933C15.4005 11.4863 16.315 11.4994 17.2276 11.4849C17.5772 11.4788 17.8444 11.5691 17.9981 11.899V12.1798C17.8735 12.498 17.6433 12.622 17.3007 12.6173C16.3464 12.6046 15.392 12.6173 14.4377 12.6103C14.3149 12.6103 14.2582 12.6407 14.2174 12.768C14.0673 13.2392 13.7708 13.6504 13.371 13.9422C12.9711 14.234 12.4886 14.3911 11.9933 14.3908C11.4979 14.391 11.0154 14.2334 10.6158 13.9411C10.2163 13.6487 9.92051 13.2368 9.77153 12.7651C9.72747 12.6248 9.65716 12.6084 9.53201 12.6084C6.58748 12.6117 3.64294 12.6084 0.698402 12.6149C0.357169 12.6149 0.124212 12.497 0 12.1779V11.899ZM11.9994 10.8419C11.8396 10.8404 11.6812 10.8706 11.5332 10.9307C11.3852 10.9908 11.2507 11.0796 11.1373 11.192C11.024 11.3043 10.9341 11.4381 10.8729 11.5854C10.8116 11.7327 10.7803 11.8906 10.7807 12.0501C10.7802 12.2094 10.8111 12.3672 10.8717 12.5146C10.9323 12.6619 11.0214 12.7959 11.1339 12.9089C11.2464 13.0219 11.38 13.1116 11.5272 13.173C11.6745 13.2344 11.8323 13.2663 11.9919 13.2668C12.3143 13.2659 12.6233 13.1383 12.852 12.9115C13.0808 12.6847 13.2108 12.3771 13.2139 12.0553C13.213 11.7339 13.0848 11.4259 12.8572 11.1986C12.6297 10.9712 12.3213 10.843 11.9994 10.8419Z" fill="#092143"/>
<path d="M17.999 2.49273C17.848 2.81187 17.5921 2.91388 17.2462 2.90733C16.3087 2.89235 15.3713 2.90452 14.4338 2.89937C14.3082 2.89937 14.2553 2.9354 14.2149 3.05988C14.0642 3.53123 13.7664 3.94209 13.3651 4.23239C12.9637 4.52269 12.4799 4.6772 11.9843 4.67334C11.492 4.67282 11.0126 4.51631 10.6152 4.22634C10.2178 3.93638 9.92282 3.52794 9.77283 3.05988C9.7297 2.92417 9.66502 2.89937 9.53846 2.89984C6.61033 2.90311 3.6822 2.89984 0.754067 2.90686C0.408616 2.90686 0.151754 2.81327 0.000823975 2.49273V2.21196C0.123161 1.89049 0.356119 1.77397 0.698289 1.77491C3.6372 1.78193 6.57612 1.77771 9.51503 1.78286C9.67111 1.78286 9.73252 1.73981 9.78126 1.59101C9.93667 1.12772 10.2339 0.724884 10.6311 0.4394C11.0282 0.153916 11.5052 0.000213713 11.9946 2.78189e-06C12.4869 -0.000757316 12.9669 0.154262 13.3654 0.442803C13.764 0.731343 14.0608 1.13856 14.2131 1.60598C14.2599 1.74262 14.3162 1.78239 14.4568 1.78146C15.3994 1.77491 16.342 1.78754 17.2846 1.77304C17.6329 1.76742 17.8719 1.88441 17.9999 2.21103L17.999 2.49273ZM11.9922 3.54981C12.3142 3.54982 12.6232 3.4226 12.8515 3.19595C13.0799 2.9693 13.2091 2.66164 13.2109 2.34018C13.2097 2.01788 13.0809 1.70914 12.8526 1.48124C12.6243 1.25334 12.3151 1.12476 11.9922 1.12353C11.6705 1.12415 11.3622 1.25224 11.135 1.47967C10.9078 1.70709 10.7803 2.01525 10.7806 2.33644C10.7797 2.49572 10.8103 2.65362 10.8709 2.801C10.9314 2.94839 11.0205 3.08236 11.1332 3.19516C11.2458 3.30797 11.3797 3.39739 11.5272 3.45826C11.6746 3.51913 11.8327 3.55025 11.9922 3.54981Z" fill="#092143"/>
</svg>
