<svg width="70" height="45" viewBox="0 0 70 45" fill="none" xmlns="http://www.w3.org/2000/svg">
<path d="M0.00912817 31.2797C0.312257 30.7319 0.770602 30.4963 1.40608 30.4982C4.70945 30.5128 8.01283 30.4982 11.3144 30.4982C11.4284 30.4951 11.5424 30.4993 11.6559 30.511C12.3041 30.5895 12.7332 31.046 12.715 31.6322C12.6967 32.2183 12.2566 32.6639 11.5901 32.6749C10.2936 32.6968 8.99344 32.684 7.69509 32.684H6.9117V35.1912H9.17605C10.3593 35.1912 11.5499 35.1766 12.7296 35.1912C13.1058 35.2003 13.2774 35.0689 13.4345 34.7255C14.6963 32.012 16.8401 30.511 19.8257 30.5256C22.7822 30.5365 24.915 32.0175 26.1641 34.7109C26.3174 35.0415 26.4745 35.1967 26.8634 35.1949C34.1288 35.1839 41.3948 35.1839 48.6614 35.1949C48.7727 35.1949 48.8823 35.1766 49.0887 35.1602V34.4169C49.0887 32.0248 49.0631 29.6326 49.1124 27.2423C49.1299 26.7805 49.3263 26.3437 49.6602 26.0243C50.3377 25.4765 51.2653 26.0791 51.2763 27.0268C51.2946 28.6885 51.2763 30.3521 51.2763 32.0156C51.2763 32.8812 51.2653 33.7468 51.2873 34.6105C51.324 34.8103 51.3917 35.0032 51.4881 35.1821C51.6543 35.036 51.8899 34.9209 51.9757 34.7365C52.9362 32.6694 54.4811 31.287 56.6998 30.7191C58.2703 30.315 59.9333 30.4814 61.3926 31.1887C62.8519 31.896 64.0129 33.0982 64.6688 34.5813C64.8788 35.0451 65.1107 35.2369 65.6274 35.2003C66.3232 35.1492 67.0281 35.1875 67.7621 35.1875V30.3521C67.291 30.3521 66.8491 30.3704 66.3926 30.3521C65.5298 30.3214 64.7116 29.9609 64.1065 29.345C63.5015 28.7291 63.1557 27.9046 63.1403 27.0414C63.1184 26.2672 63.1221 25.4929 63.1403 24.7186C63.1549 23.9097 63.5512 23.5171 64.3766 23.5043C65.4193 23.4897 66.4601 23.5043 67.512 23.5043C67.3056 22.2918 66.0511 21.0975 64.6852 21.0774C60.2478 21.0153 55.8105 21.0537 51.2781 21.0537C51.2781 21.4609 51.2909 21.8407 51.2781 22.2187C51.2507 22.8871 50.8435 23.329 50.2482 23.3582C49.6529 23.3874 49.1526 22.9382 49.0978 22.2626C49.0814 22.058 49.0978 21.8517 49.0978 21.6472V2.34917H6.86423V21.6198C6.86423 21.8243 6.86423 22.0306 6.86423 22.2352C6.82588 22.8944 6.40588 23.3308 5.81241 23.3546C5.21893 23.3783 4.75876 22.9364 4.68937 22.2936C4.67475 22.0894 4.67109 21.8846 4.67841 21.68C4.67841 15.4154 4.67841 9.15131 4.67841 2.88786C4.67841 0.966823 5.51111 0.125 7.41753 0.125H48.5463C50.4692 0.125 51.2854 0.939431 51.2854 2.86412V4.75411C51.5831 4.76689 51.8333 4.78698 52.067 4.78698C54.4135 4.78698 56.7618 4.83263 59.1065 4.77785C62.0849 4.70663 64.6158 6.78654 64.0972 10.7473C64.0497 11.1125 63.6571 11.4266 63.3449 11.8813C63.8708 13.9849 64.4295 16.2639 65.0194 18.5209C65.0639 18.6257 65.1308 18.7196 65.2153 18.7959C65.2998 18.8722 65.4 18.9292 65.5088 18.9628C68.299 19.728 69.9845 21.8846 69.9936 24.7515C70.0021 28.4864 70.0021 32.222 69.9936 35.9582C69.9936 37.0136 69.6284 37.3788 68.5419 37.3861C67.4992 37.3861 66.4547 37.3861 65.3517 37.3861C65.2312 39.7381 64.3437 41.661 62.4629 43.047C61.174 44.0132 59.5816 44.4855 57.9744 44.3782C55.1366 44.2248 51.6926 42.1011 51.4005 37.4391H26.774C26.6571 39.8441 25.6875 41.8217 23.6696 43.2004C22.3669 44.1091 20.7815 44.5205 19.2012 44.3599C16.0859 44.0732 13.0528 41.6665 12.8355 37.4117C12.6273 37.4026 12.41 37.3843 12.1927 37.3825C10.9145 37.3825 9.63622 37.3277 8.35796 37.3825C5.48919 37.5322 4.46659 36.7671 4.66563 33.6482C4.68389 33.356 4.66563 33.0602 4.66563 32.6785C3.56998 32.6785 2.52546 32.6511 1.48643 32.6895C0.830863 32.715 0.335999 32.5196 0 31.9499L0.00912817 31.2797ZM62.7569 18.7967C62.7468 18.6473 62.7291 18.4986 62.7039 18.3511C62.1981 16.3223 61.674 14.299 61.1919 12.2648C61.0805 11.7936 60.876 11.6603 60.4067 11.664C57.5854 11.6841 54.7623 11.6731 51.9392 11.675C51.7419 11.675 51.5447 11.7042 51.3256 11.7224V18.7967H62.7569ZM58.4053 42.2088C59.6596 42.1931 60.8577 41.6857 61.7418 40.7957C62.6259 39.9058 63.1255 38.7045 63.133 37.4501C63.123 36.195 62.6192 34.9943 61.7307 34.1079C60.8421 33.2214 59.6403 32.7204 58.3852 32.7132C57.1191 32.7176 55.9064 33.2242 55.0135 34.1219C54.1205 35.0196 53.6204 36.235 53.6228 37.5012C53.6443 38.756 54.1575 39.9522 55.0518 40.8325C55.9462 41.7129 57.1504 42.2071 58.4053 42.2088ZM19.7783 42.2088C21.0331 42.2099 22.2378 41.7166 23.1316 40.8359C24.0253 39.9551 24.5362 38.7577 24.5535 37.503C24.5568 36.8765 24.4366 36.2555 24.1998 35.6755C23.9629 35.0955 23.614 34.5679 23.173 34.1228C22.7321 33.6778 22.2077 33.324 21.6299 33.0819C21.052 32.8397 20.4322 32.7138 19.8057 32.7114C18.5503 32.7176 17.3479 33.2183 16.4592 34.105C15.5704 34.9917 15.067 36.1929 15.0578 37.4482C15.063 38.7023 15.5607 39.9041 16.4437 40.7946C17.3267 41.6851 18.5243 42.193 19.7783 42.2088ZM61.8931 9.43253C61.9479 8.02097 60.9143 7.00201 59.4206 6.99288C56.8641 6.97828 54.324 6.99288 51.7748 6.99288C51.6224 7.00327 51.471 7.02525 51.3219 7.05862V9.43253H61.8931ZM67.7567 25.7321H65.3955C65.0742 27.8084 65.7334 28.4712 67.8023 28.0458C67.8023 27.3738 67.8023 26.6945 67.8023 26.0152C67.7933 25.9199 67.7781 25.8253 67.7567 25.7321Z" fill="white"/>
<path d="M26.7317 20.8089L35.5827 11.9488C35.8877 11.642 36.1853 11.3261 36.4958 11.0357C37.0217 10.5482 37.6298 10.5263 38.0826 10.959C38.5355 11.3918 38.5446 12.0693 38.0242 12.6025C36.3278 14.3209 34.6149 16.0228 32.9112 17.7301C31.2074 19.4375 29.5311 21.1139 27.8365 22.803C27.0641 23.5718 26.571 23.5736 25.8077 22.803C23.9999 21.0025 22.2012 19.1928 20.3916 17.3941C20.0136 17.0161 19.7579 16.6162 19.9515 16.0593C20.2291 15.2595 21.164 15.0842 21.8324 15.7397C23.2786 17.1604 24.7084 18.5994 26.1346 20.0383C26.3489 20.283 26.5483 20.5403 26.7317 20.8089Z" fill="white"/>
<path d="M37.3178 32.697C34.6992 32.697 32.0806 32.7116 29.4656 32.6806C29.0701 32.6831 28.6849 32.5547 28.37 32.3154C27.8021 31.7986 28.0742 30.8545 28.8082 30.6098C29.0488 30.543 29.2982 30.5134 29.5478 30.5221C34.7412 30.5221 39.9339 30.5221 45.1261 30.5221C45.2858 30.5172 45.4456 30.5233 45.6045 30.5404C46.2162 30.6244 46.6271 31.0681 46.6253 31.6269C46.6269 31.7701 46.5994 31.912 46.5446 32.0442C46.4897 32.1765 46.4087 32.2962 46.3062 32.3962C46.2038 32.4962 46.0822 32.5744 45.9487 32.6261C45.8153 32.6778 45.6727 32.7019 45.5296 32.697C44.392 32.7226 43.2525 32.708 42.1149 32.708L37.3178 32.697Z" fill="white"/>
<path d="M10.4675 28.022C8.21413 28.022 5.96196 28.022 3.71102 28.022C2.84728 28.022 2.34876 27.6148 2.35059 26.9355C2.35242 26.2562 2.87285 25.8398 3.72015 25.8398C8.22448 25.8398 12.7288 25.8398 17.2331 25.8398C18.2612 25.8398 18.8456 26.636 18.431 27.434C18.1772 27.9234 17.739 28.0311 17.224 28.0275C14.9834 28.0147 12.7209 28.022 10.4675 28.022Z" fill="white"/>
<path d="M58.3707 35.2095C58.6668 35.2073 58.9604 35.2637 59.2347 35.3753C59.5089 35.487 59.7584 35.6517 59.9689 35.8601C60.1793 36.0685 60.3464 36.3164 60.4607 36.5895C60.5751 36.8627 60.6343 37.1558 60.635 37.4519C60.6312 38.0512 60.3929 38.6252 59.971 39.0509C59.5491 39.4765 58.9772 39.72 58.378 39.729C57.7787 39.7247 57.2052 39.4852 56.7809 39.0619C56.3567 38.6387 56.1157 38.0657 56.11 37.4665C56.1078 37.1692 56.1648 36.8744 56.2777 36.5993C56.3905 36.3243 56.557 36.0744 56.7674 35.8644C56.9779 35.6543 57.228 35.4882 57.5032 35.3758C57.7785 35.2633 58.0733 35.2068 58.3707 35.2095Z" fill="white"/>
<path d="M22.0531 37.4486C22.0563 37.7454 22.0008 38.04 21.8899 38.3154C21.779 38.5908 21.6149 38.8416 21.4069 39.0535C21.199 39.2653 20.9513 39.4341 20.678 39.5501C20.4047 39.666 20.1112 39.727 19.8144 39.7294C19.2162 39.7214 18.6445 39.4814 18.22 39.0599C17.7955 38.6385 17.5513 38.0686 17.5391 37.4705C17.5388 37.1739 17.597 36.8801 17.7103 36.6059C17.8236 36.3318 17.9898 36.0826 18.1994 35.8727C18.409 35.6628 18.6578 35.4962 18.9318 35.3824C19.2058 35.2687 19.4995 35.21 19.7961 35.2098C20.0924 35.2047 20.3867 35.2589 20.6616 35.3694C20.9366 35.4799 21.1866 35.6443 21.397 35.853C21.6074 36.0616 21.7738 36.3103 21.8865 36.5844C21.9992 36.8584 22.0559 37.1523 22.0531 37.4486Z" fill="white"/>
</svg>
