<svg width="90" height="90" viewBox="0 0 90 90" fill="none" xmlns="http://www.w3.org/2000/svg">
<path d="M89.2956 23.0034L45.6115 0.152075C45.2267 -0.0506918 44.7665 -0.0506918 44.3811 0.152075L0.705057 23.0034C0.272524 23.2325 0.00195312 23.6826 0.00195312 24.1723V30.4123L44.3899 7.18334C44.7747 6.98057 45.2349 6.98057 45.6204 7.18334L90.0003 30.4123V24.1723C90.0003 23.6826 89.7297 23.2325 89.2972 23.0034H89.2956Z" fill="black"/>
<path d="M24.8282 86.9788C24.8439 87.7842 25.1741 88.5513 25.7479 89.1164C26.3223 89.6813 27.0957 89.9984 27.901 90.0003H31.4027H31.4021C32.2 89.999 32.9659 89.6876 33.5391 89.1327C34.1116 88.5777 34.4468 87.8219 34.4732 87.0247H25.5281C25.2939 87.0234 25.0604 87.0083 24.8281 86.9788L24.8282 86.9788Z" fill="black"/>
<path d="M55.5293 87.0237C55.5557 87.8209 55.8909 88.5768 56.4634 89.1317C57.0366 89.6867 57.8025 89.998 58.6004 89.9993H62.1021H62.1014C62.9069 89.9974 63.6803 89.6804 64.2546 89.1154C64.8284 88.5504 65.1586 87.7832 65.1743 86.9778C64.9408 87.0073 64.706 87.0224 64.4712 87.0236L55.5293 87.0237Z" fill="black"/>
<path d="M64.0148 58.7936H63.9219L65.367 65.2973H65.3664C66.33 64.8811 67.0463 64.043 67.3068 63.0267C67.5673 62.0103 67.3432 60.9312 66.6991 60.1026C66.055 59.2745 65.0637 58.7911 64.0148 58.7937L64.0148 58.7936Z" fill="black"/>
<path d="M24.6288 65.2923L26.0739 58.7886H25.9804C24.9314 58.7861 23.9402 59.2695 23.296 60.0981C22.6519 60.9261 22.4278 62.0059 22.6884 63.0222C22.9489 64.038 23.6652 64.8766 24.6288 65.2922L24.6288 65.2923Z" fill="black"/>
<path d="M54.5282 53.6843H35.4664C33.8876 53.6767 32.354 54.2122 31.1229 55.2004C29.8912 56.1885 29.0363 57.5695 28.701 59.112L27.0996 66.3189H62.8944L61.293 59.112C60.9578 57.5696 60.1028 56.1886 58.8711 55.2004C57.64 54.2122 56.1064 53.6767 54.5276 53.6843H54.5282Z" fill="black"/>
<path d="M60.0527 76.052C60.0527 76.5869 60.4865 77.0207 61.0214 77.0207H67.3688V75.0872H61.0214C60.4878 75.0872 60.0546 75.5184 60.0527 76.052V76.052Z" fill="black"/>
<path d="M29.9469 76.0519C29.9469 75.7951 29.8446 75.5484 29.6631 75.367C29.4811 75.1856 29.235 75.0833 28.9782 75.0833H22.6309V77.0167H28.9782C29.5118 77.0167 29.945 76.5855 29.9469 76.0519V76.0519Z" fill="black"/>
<path d="M57.4134 76.0522C57.4146 75.0961 57.7944 74.1802 58.4705 73.5041C59.1466 72.828 60.0632 72.4482 61.0186 72.447H67.1463C66.8406 71.2404 66.2153 70.1393 65.3357 69.2585L65.0212 68.944H24.9756L24.6611 69.2585C23.7816 70.1386 23.1557 71.2403 22.8505 72.447H28.9832C30.2438 72.4865 31.3926 73.1814 32.0116 74.2807C32.6306 75.3792 32.6306 76.7215 32.0116 77.8206C31.3926 78.9192 30.2438 79.6141 28.9832 79.6537H22.6309V81.4906C22.6321 82.2577 22.9378 82.9928 23.4796 83.5353C24.022 84.077 24.7571 84.3828 25.5243 84.384H64.4723C65.2394 84.3828 65.9745 84.077 66.517 83.5353C67.0587 82.9929 67.3645 82.2578 67.3657 81.4906V79.6575H61.0183C60.0629 79.6563 59.1464 79.2765 58.4703 78.6003C57.7942 77.9242 57.4144 77.0083 57.4131 76.0523L57.4134 76.0522ZM52.6165 76.5795C52.6159 77.4138 52.2838 78.2136 51.6943 78.8031C51.1042 79.3932 50.3044 79.7253 49.4701 79.7259H40.5269C39.6926 79.7253 38.8928 79.3932 38.3027 78.8031C37.7132 78.2136 37.3811 77.4138 37.3805 76.5795V75.511C37.3811 74.6767 37.7132 73.8769 38.3027 73.2868C38.8928 72.6973 39.6926 72.3652 40.5269 72.3646H49.4701C50.3044 72.3652 51.1042 72.6973 51.6943 73.2868C52.2838 73.8769 52.6159 74.6767 52.6165 75.511V76.5795Z" fill="black"/>
<path d="M40.5254 75.0073H49.4705C49.7517 75.0073 49.9802 75.2886 49.9802 75.5171V76.5855C49.9802 76.8668 49.7517 77.0953 49.4705 77.0953H40.5254C40.2441 77.0953 40.0156 76.8141 40.0156 76.5855V75.5171C40.0156 75.2358 40.2441 75.0073 40.5254 75.0073V75.0073Z" fill="black"/>
<path d="M73.5613 88.6821C73.5613 89.4103 74.1514 90.0004 74.8796 90.0004H88.678C89.0277 90.0004 89.3629 89.8617 89.6102 89.6144C89.8576 89.367 89.9963 89.0318 89.9963 88.6821V82.9694H73.5605L73.5613 88.6821Z" fill="black"/>
<path d="M0.000771227 88.6821C0.000771227 89.4103 0.590881 90.0004 1.31909 90.0004H15.1174C15.4671 90.0004 15.8023 89.8617 16.0497 89.6144C16.297 89.367 16.4358 89.0318 16.4358 88.6821V82.9694H0L0.000771227 88.6821Z" fill="black"/>
<path d="M16.4355 33.7516H27.861V38.146H16.4355V33.7516Z" fill="black"/>
<path d="M62.1367 33.7516H73.5622V38.146H62.1367V33.7516Z" fill="black"/>
<path d="M39.2871 33.7516H50.7126V38.146H39.2871V33.7516Z" fill="black"/>
<path d="M73.5623 80.3319H83.23V29.8402L44.9988 9.84631L6.76758 29.8402V80.3319H16.4352V47.8139H73.5626L73.5623 80.3319ZM30.497 39.4635C30.497 39.8131 30.3582 40.1484 30.1109 40.3957C29.8636 40.6431 29.5283 40.7818 29.1787 40.7818H15.1166C14.3884 40.7818 13.7983 40.1917 13.7983 39.4635V32.4324C13.7983 31.7042 14.3884 31.1141 15.1166 31.1141H29.1787C29.5283 31.1141 29.8636 31.2529 30.1109 31.5002C30.3583 31.7475 30.497 32.0828 30.497 32.4324V39.4635ZM53.3483 39.4635C53.3483 39.8131 53.2095 40.1484 52.9622 40.3957C52.7149 40.6431 52.3796 40.7818 52.0299 40.7818H37.9679C37.2397 40.7818 36.6496 40.1917 36.6496 39.4635V32.4324C36.6496 31.7042 37.2397 31.1141 37.9679 31.1141H52.0299C52.3796 31.1141 52.7149 31.2529 52.9622 31.5002C53.2095 31.7475 53.3483 32.0828 53.3483 32.4324V39.4635ZM60.8187 40.7818C60.0905 40.7818 59.5004 40.1917 59.5004 39.4635V32.4324C59.5004 31.7042 60.0905 31.1141 60.8187 31.1141H74.8808C75.2304 31.1141 75.5657 31.2529 75.813 31.5002C76.0604 31.7475 76.1991 32.0828 76.1991 32.4324V39.4635C76.1991 39.8131 76.0604 40.1484 75.813 40.3957C75.5657 40.6431 75.2304 40.7818 74.8808 40.7818H60.8187Z" fill="black"/>
</svg>
