<svg width="143" height="93" viewBox="0 0 143 93" fill="none" xmlns="http://www.w3.org/2000/svg">
<path fillRule="evenodd" clip-rule="evenodd" d="M85.9278 61.407H99.1516V74.4688H85.9278V61.407ZM85.9278 45.1045H99.1516V58.1633H85.9278V45.1045ZM69.4655 61.407H82.6862V74.4688H69.4655V61.407ZM82.6872 45.1045V58.1633H69.4665V45.1045H82.6872ZM28.584 51.6851L21.189 39.5122L24.6144 39.6949L15.2341 27.5219L5.85678 39.6949L9.28501 39.5122L1.887 51.6851L7.02656 50.9671L0 62.5968L13.2436 60.8826V67.198H17.2302V60.8826L30.4768 62.5968L23.4464 50.9671L28.584 51.6851ZM119.4 35.6906V5.34397H96.4009V12.2981L84.3103 0L33.2656 51.9117V60.4945H42.2496V72.5452H37.9216V67.8693L33.8725 65.742L29.8234 67.8693V72.5452H25.1417V67.8693L21.0896 65.742L17.0405 67.8693V72.5452H13.4582V67.8693L9.40909 65.742L5.35693 67.8693V72.5452H1.77463V79.7207H5.35693L5.35396 92.9046H13.4522L13.4551 79.7176H17.0463V92.9046H25.1445L25.1416 79.7176H29.8263V92.9046H37.9245V79.7176H42.2466V92.9216H126.361V79.7176H130.695C130.692 84.1143 130.695 88.511 130.695 92.9046H138.793L138.79 79.7176H142.376V72.5421H138.791V67.8663L134.739 65.739L130.69 67.8663V72.5421H126.359V60.4914H135.346V51.9086L119.4 35.6906Z" fill="black"/>
</svg>
