<svg width="6" height="12" viewBox="0 0 6 12" fill="none" xmlns="http://www.w3.org/2000/svg">
<path d="M1.84947 5.69167C2.92232 6.80466 3.97183 7.89162 5.01718 8.98127C5.26726 9.24067 5.51734 9.50365 5.74992 9.77741C6.08336 10.167 6.08336 10.6876 5.74992 11.0188C5.41647 11.35 4.98633 11.3248 4.63372 10.9469C3.18546 9.39894 1.74221 7.84584 0.303961 6.28766C-0.112843 5.83887 -0.0995057 5.39008 0.334804 4.91976C1.75749 3.38491 3.18296 1.85365 4.61121 0.325988C4.99634 -0.085997 5.46816 -0.105743 5.78409 0.256877C6.10003 0.619495 6.06669 1.12662 5.69073 1.53232C4.50479 2.81106 3.31773 4.0898 2.12956 5.36854C2.07121 5.43227 2.01702 5.49869 1.84947 5.69167Z" fill="#585858"/>
</svg>
