<svg width="6" height="12" viewBox="0 0 6 12" fill="none" xmlns="http://www.w3.org/2000/svg">
<path d="M4.15053 5.80833C3.07768 4.69534 2.02817 3.60838 0.982824 2.51873C0.732742 2.25933 0.482659 1.99635 0.250082 1.72259C-0.0833607 1.33304 -0.0833607 0.812449 0.250082 0.481245C0.583525 0.150041 1.01367 0.175173 1.36628 0.553051C2.81454 2.10106 4.25779 3.65416 5.69604 5.21234C6.11284 5.66113 6.09951 6.10992 5.6652 6.58024C4.24251 8.11509 2.81704 9.64635 1.38879 11.174C1.00366 11.586 0.531842 11.6057 0.215905 11.2431C-0.100032 10.8805 -0.066688 10.3734 0.309269 9.96768C1.49521 8.68894 2.68227 7.4102 3.87044 6.13146C3.92879 6.06773 3.98298 6.00131 4.15053 5.80833Z" fill="#585858"/>
</svg>
