<svg width="16" height="17" viewBox="0 0 16 17" fill="none" xmlns="http://www.w3.org/2000/svg">
<path d="M5.19784 0H10.7047C11.1875 0.0469333 11.6724 0.0846222 12.1537 0.142222C13.9724 0.361955 15.367 1.6 15.7875 3.37422C15.879 3.76106 15.9305 4.15644 15.9978 4.55111V11.3778C15.9674 11.5129 15.9447 11.6497 15.9298 11.7874C15.8082 13.9463 14.2742 15.5883 12.115 15.8613C11.6702 15.9175 11.2225 15.9545 10.7762 16.0035H5.19784C4.73941 15.9573 4.27954 15.9182 3.82183 15.8613C1.76855 15.6153 0.140088 14.0331 0.067855 11.9808C-0.0236879 9.35608 -0.0215424 6.72284 0.067855 4.09813C0.139373 1.97404 1.73279 0.400355 3.8583 0.139377C4.30172 0.0824882 4.75013 0.0462222 5.19784 0ZM7.97702 14.5067C9.15707 14.5067 10.3371 14.5493 11.515 14.4967C13.0884 14.4256 14.1962 13.5964 14.4358 12.0562C14.5261 11.4467 14.5684 10.8311 14.5624 10.2151C14.5574 8.23679 14.5545 6.25777 14.4866 4.2816C14.4387 2.8928 13.589 1.92142 12.2316 1.63271C11.6617 1.51935 11.0813 1.4669 10.5002 1.47627C8.34462 1.48764 6.18836 1.48906 4.03567 1.58151C2.79555 1.63484 1.86367 2.5152 1.5776 3.71484C1.48772 4.07054 1.43971 4.43541 1.43456 4.80213C1.43885 7.08764 1.41811 9.37457 1.49535 11.6587C1.554 13.3852 2.72761 14.4576 4.48051 14.5031C5.64125 14.5308 6.80985 14.5067 7.97702 14.5059V14.5067Z" fill="#092143"/>
<path d="M7.97566 12.0962C5.68709 12.0962 3.82763 10.2473 3.84336 7.98452C3.8428 7.17039 4.08515 6.37439 4.53975 5.69727C4.99435 5.02015 5.64076 4.49234 6.39717 4.18066C7.15358 3.86897 7.98598 3.78742 8.78903 3.94632C9.59207 4.10522 10.3297 4.49742 10.9084 5.0733C11.4872 5.64918 11.8811 6.38284 12.0404 7.18142C12.1996 7.98001 12.117 8.80762 11.8031 9.55951C11.4891 10.3114 10.9578 10.9538 10.2765 11.4053C9.59517 11.8569 8.79445 12.0973 7.97566 12.0962ZM7.95421 10.6668C9.46324 10.6704 10.6662 9.49207 10.6669 8.01012C10.6705 7.48118 10.5164 6.96304 10.224 6.52118C9.93158 6.07932 9.51398 5.73356 9.02398 5.52762C8.53399 5.32167 7.99359 5.26478 7.47109 5.36414C6.94858 5.46349 6.46743 5.71462 6.08843 6.0858C5.70943 6.45698 5.4496 6.93155 5.34178 7.44951C5.23396 7.96748 5.28299 8.50561 5.48267 8.99588C5.68235 9.48615 6.02372 9.90655 6.46363 10.204C6.90354 10.5014 7.42225 10.6625 7.95421 10.6668Z" fill="#092143"/>
<path d="M13.2273 3.7479C13.2256 3.99912 13.1238 4.23941 12.9441 4.41605C12.7644 4.59269 12.5216 4.69125 12.269 4.69012C11.7276 4.6823 11.3249 4.25137 11.3392 3.69101C11.343 3.56761 11.3712 3.44614 11.4221 3.33356C11.4731 3.22098 11.5459 3.11948 11.6363 3.03486C11.7267 2.95023 11.833 2.88415 11.9491 2.84037C12.0652 2.7966 12.1888 2.77599 12.313 2.77973C12.4371 2.78346 12.5592 2.81147 12.6725 2.86215C12.7857 2.91282 12.8878 2.98518 12.9729 3.07508C13.058 3.16498 13.1244 3.27068 13.1685 3.38612C13.2125 3.50156 13.2332 3.62449 13.2295 3.7479H13.2273Z" fill="#092143"/>
</svg>
