<svg width="16" height="16" viewBox="0 0 16 16" fill="none" xmlns="http://www.w3.org/2000/svg">
<path d="M15.9961 15.6894H14.7662C14.6807 13.4213 13.7199 11.625 11.8839 10.3004C10.5943 9.37138 9.12757 8.98758 7.53851 9.08836C4.3954 9.28682 1.39471 11.824 1.23576 15.6484H0C0.193567 12.0827 2.0002 9.67371 5.33412 8.25474C4.42372 7.55046 3.78086 6.69175 3.51923 5.59982C2.93499 3.16305 4.40799 0.798871 6.90981 0.138229C7.06718 0.0965286 7.22455 0.0463337 7.38192 0H8.63106C8.78843 0.0463337 8.94345 0.0965286 9.10121 0.138229C11.6015 0.798484 13.0749 3.15764 12.493 5.59441C12.2329 6.68634 11.5936 7.54622 10.6655 8.2613C10.8229 8.33852 10.9248 8.39606 11.0329 8.442C13.5729 9.51849 15.16 11.3815 15.8147 14.0159C15.8721 14.2476 15.9378 14.4793 16 14.7086L15.9961 15.6894ZM8.03344 1.23055C6.19455 1.21124 4.64523 2.71129 4.63539 4.52024C4.62555 6.30293 6.11744 7.80221 7.9402 7.84082C9.77594 7.87943 11.3394 6.39367 11.3693 4.58163C11.3996 2.77732 9.87745 1.24985 8.03344 1.23055Z" fill="white"/>
</svg>
