<svg width="255" height="78" viewBox="0 0 255 78" fill="none" xmlns="http://www.w3.org/2000/svg">
<path d="M102 25.92C104.96 25.92 107.547 26.5067 109.76 27.68C111.973 28.8533 113.68 30.5067 114.88 32.64C116.107 34.7467 116.72 37.1867 116.72 39.96C116.72 42.7067 116.107 45.1467 114.88 47.28C113.68 49.4133 111.96 51.0667 109.72 52.24C107.507 53.4133 104.933 54 102 54H91.48V25.92H102ZM101.56 48.08C104.147 48.08 106.16 47.3733 107.6 45.96C109.04 44.5467 109.76 42.5467 109.76 39.96C109.76 37.3733 109.04 35.36 107.6 33.92C106.16 32.48 104.147 31.76 101.56 31.76H98.32V48.08H101.56ZM137.543 39.6C139.169 39.9467 140.476 40.76 141.463 42.04C142.449 43.2933 142.943 44.7333 142.943 46.36C142.943 48.7067 142.116 50.5733 140.463 51.96C138.836 53.32 136.556 54 133.623 54H120.543V25.92H133.183C136.036 25.92 138.263 26.5733 139.863 27.88C141.489 29.1867 142.303 30.96 142.303 33.2C142.303 34.8533 141.863 36.2267 140.983 37.32C140.129 38.4133 138.983 39.1733 137.543 39.6ZM127.383 37.28H131.863C132.983 37.28 133.836 37.04 134.423 36.56C135.036 36.0533 135.343 35.32 135.343 34.36C135.343 33.4 135.036 32.6667 134.423 32.16C133.836 31.6533 132.983 31.4 131.863 31.4H127.383V37.28ZM132.423 48.48C133.569 48.48 134.449 48.2267 135.063 47.72C135.703 47.1867 136.023 46.4267 136.023 45.44C136.023 44.4533 135.689 43.68 135.023 43.12C134.383 42.56 133.489 42.28 132.343 42.28H127.383V48.48H132.423Z" fill="#F2672A"/>
<path d="M168.99 26.12V54H165.35V41.36H151.15V54H147.51V26.12H151.15V38.36H165.35V26.12H168.99ZM184.765 54.36C182.712 54.36 180.845 53.8933 179.165 52.96C177.512 52.0267 176.205 50.7067 175.245 49C174.312 47.2667 173.845 45.2667 173.845 43C173.845 40.76 174.325 38.7867 175.285 37.08C176.272 35.3467 177.605 34.0267 179.285 33.12C180.965 32.1867 182.845 31.72 184.925 31.72C187.005 31.72 188.885 32.1867 190.565 33.12C192.245 34.0267 193.565 35.3333 194.525 37.04C195.512 38.7467 196.005 40.7333 196.005 43C196.005 45.2667 195.498 47.2667 194.485 49C193.498 50.7067 192.152 52.0267 190.445 52.96C188.738 53.8933 186.845 54.36 184.765 54.36ZM184.765 51.16C186.072 51.16 187.298 50.8533 188.445 50.24C189.592 49.6267 190.512 48.7067 191.205 47.48C191.925 46.2533 192.285 44.76 192.285 43C192.285 41.24 191.938 39.7467 191.245 38.52C190.552 37.2933 189.645 36.3867 188.525 35.8C187.405 35.1867 186.192 34.88 184.885 34.88C183.552 34.88 182.325 35.1867 181.205 35.8C180.112 36.3867 179.232 37.2933 178.565 38.52C177.898 39.7467 177.565 41.24 177.565 43C177.565 44.7867 177.885 46.2933 178.525 47.52C179.192 48.7467 180.072 49.6667 181.165 50.28C182.258 50.8667 183.458 51.16 184.765 51.16ZM220.231 32.08V54H216.591V50.76C215.898 51.88 214.924 52.76 213.671 53.4C212.444 54.0133 211.084 54.32 209.591 54.32C207.884 54.32 206.351 53.9733 204.991 53.28C203.631 52.56 202.551 51.4933 201.751 50.08C200.978 48.6667 200.591 46.9467 200.591 44.92V32.08H204.191V44.44C204.191 46.6 204.738 48.2667 205.831 49.44C206.924 50.5867 208.418 51.16 210.311 51.16C212.258 51.16 213.791 50.56 214.911 49.36C216.031 48.16 216.591 46.4133 216.591 44.12V32.08H220.231ZM229.097 51H239.857V54H224.937V51L235.577 35.04H225.017V32.08H239.777V35.04L229.097 51Z" fill="#000027"/>
<g clip-path="url(#clip0_9_3)">
<path d="M105.455 21.2725H34.5455C32.5874 21.2725 31 22.8599 31 24.818C31 26.776 32.5874 28.3635 34.5455 28.3635H105.455C107.413 28.3635 109 26.776 109 24.818C109 22.8599 107.413 21.2725 105.455 21.2725Z" fill="#232F3E"/>
<path d="M105.455 35.4541H34.5455C32.5874 35.4541 31 37.0415 31 38.9996C31 40.9577 32.5874 42.5451 34.5455 42.5451H105.455C107.413 42.5451 109 40.9577 109 38.9996C109 37.0415 107.413 35.4541 105.455 35.4541Z" fill="#232F3E"/>
<path d="M105.455 49.6362H34.5455C32.5874 49.6362 31 51.2237 31 53.1817C31 55.1398 32.5874 56.7272 34.5455 56.7272H105.455C107.413 56.7272 109 55.1398 109 53.1817C109 51.2237 107.413 49.6362 105.455 49.6362Z" fill="#232F3E"/>
</g>
<defs>
<clipPath id="clip0_9_3">
<rect width="78" height="78" fill="white"/>
</clipPath>
</defs>
</svg>
