<svg width="19" height="18" viewBox="0 0 19 18" fill="none" xmlns="http://www.w3.org/2000/svg">
<path d="M0.981349 1.97318C1.02802 1.80544 1.06367 1.63419 1.12311 1.4713C1.44008 0.600498 2.24969 0.00969116 3.17816 0.00616922C5.42693 -0.00351613 7.67613 0.000446057 9.92489 0.00308752C10.3709 0.00352776 10.6909 0.321824 10.6914 0.745778C10.6918 1.17149 10.381 1.48539 9.92665 1.48891C8.98981 1.49639 8.05254 1.49155 7.11526 1.49155C5.85616 1.49155 4.59663 1.49243 3.33753 1.49067C3.03332 1.49067 2.75069 1.55979 2.60409 1.84418C2.52 2.00707 2.48258 2.21135 2.48214 2.39669C2.47465 5.27808 2.47686 8.15991 2.47686 11.0413C2.47686 12.5522 2.47818 14.0636 2.47553 15.5745C2.47553 15.8369 2.52528 16.0733 2.73264 16.2555C2.91226 16.4136 3.12754 16.4449 3.35514 16.4449C5.49869 16.444 7.64223 16.444 9.78577 16.4449C9.89672 16.4449 10.0107 16.4422 10.1182 16.4642C10.4792 16.5386 10.7156 16.8763 10.6865 17.2602C10.6597 17.6146 10.37 17.9029 10.0121 17.9302C9.96539 17.9338 9.91829 17.9342 9.87162 17.9342C7.66953 17.9342 5.46743 17.9373 3.26489 17.9333C2.16032 17.9311 1.2882 17.239 1.03594 16.1798C1.01877 16.1072 0.998959 16.0354 0.980469 15.9628C0.981349 11.2997 0.981349 6.63667 0.981349 1.97318Z" fill="#092143"/>
<path d="M16.3968 8.16043C16.3435 8.12389 16.2832 8.09395 16.2379 8.04949C15.2359 7.06334 14.2365 6.07456 13.2345 5.08885C13.0162 4.87401 12.8907 4.63276 12.9629 4.31799C13.0826 3.79498 13.6977 3.56561 14.1273 3.88567C14.1929 3.93454 14.2524 3.99177 14.3105 4.04944C15.7615 5.48111 17.2121 6.91322 18.6623 8.34577C19.0867 8.76488 19.0871 9.17167 18.6632 9.59078C17.2046 11.0313 15.7457 12.4717 14.2863 13.9118C13.9451 14.2486 13.5577 14.2939 13.2314 14.0399C12.9017 13.7832 12.8449 13.3196 13.1051 12.993C13.1562 12.9291 13.2143 12.8706 13.2724 12.8129C14.2642 11.8334 15.2566 10.8543 16.2484 9.87474C16.2894 9.83424 16.3286 9.79153 16.4038 9.71273H16.167C13.3965 9.71273 10.6256 9.71317 7.85519 9.71097C7.72224 9.71097 7.58268 9.70568 7.45765 9.66606C7.13011 9.56217 6.92143 9.21437 6.96722 8.88199C7.01741 8.51659 7.30136 8.24892 7.66104 8.22867C7.7372 8.22427 7.81337 8.22471 7.88953 8.22471C10.6485 8.22471 13.4071 8.22471 16.1661 8.22471C16.2291 8.22471 16.292 8.22471 16.3545 8.22471L16.3968 8.16087V8.16043Z" fill="#092143"/>
</svg>
