<svg width="78" height="78" viewBox="0 0 78 78" fill="none" xmlns="http://www.w3.org/2000/svg">
<g clip-path="url(#clip0_5_286)">
<path d="M105.455 21.2725H34.5455C32.5874 21.2725 31 22.8599 31 24.818C31 26.776 32.5874 28.3635 34.5455 28.3635H105.455C107.413 28.3635 109 26.776 109 24.818C109 22.8599 107.413 21.2725 105.455 21.2725Z" fill="#232F3E"/>
<path d="M105.455 35.4541H34.5455C32.5874 35.4541 31 37.0415 31 38.9996C31 40.9577 32.5874 42.5451 34.5455 42.5451H105.455C107.413 42.5451 109 40.9577 109 38.9996C109 37.0415 107.413 35.4541 105.455 35.4541Z" fill="#232F3E"/>
<path d="M105.455 49.6362H34.5455C32.5874 49.6362 31 51.2237 31 53.1817C31 55.1398 32.5874 56.7272 34.5455 56.7272H105.455C107.413 56.7272 109 55.1398 109 53.1817C109 51.2237 107.413 49.6362 105.455 49.6362Z" fill="#232F3E"/>
</g>
<defs>
<clipPath id="clip0_5_286">
<rect width="78" height="78" fill="white"/>
</clipPath>
</defs>
</svg>
