<svg width="60" height="48" viewBox="0 0 60 48" fill="none" xmlns="http://www.w3.org/2000/svg">
<path d="M0.00470073 15.9208C0.130127 15.4947 0.281203 15.0765 0.457098 14.6685C1.31649 12.9466 2.75194 12.1217 4.65075 12.0841C5.7199 12.0637 6.78906 12.0841 7.90048 12.0841C8.04449 10.7676 8.18381 9.51061 8.32 8.25361C8.47654 6.77903 8.61586 5.30131 8.80057 3.82985C9.09173 1.50526 11.2723 -0.186914 13.7002 0.0165849C20.4491 0.580122 27.198 1.14835 33.9468 1.72128C40.2678 2.24829 46.5899 2.77008 52.913 3.28666C54.0009 3.37745 55.0951 3.44319 56.1752 3.59973C57.2834 3.74417 58.2949 4.30559 59.0036 5.16965C59.7124 6.03371 60.0652 7.13545 59.9901 8.25048C59.8836 10.3152 59.6676 12.3753 59.4938 14.4384C59.2006 17.9397 58.9058 21.4414 58.6094 24.9437C58.3292 28.2701 58.074 31.5981 57.7688 34.923C57.5622 37.1709 55.5773 38.9069 53.2934 38.8959C52.6954 38.8959 52.0974 38.8255 51.4321 38.7817C51.4321 39.9995 51.454 41.1657 51.4227 42.3304C51.4309 42.9924 51.3626 43.6532 51.2192 44.2996C50.9657 45.2069 50.4302 46.01 49.6901 46.5928C48.95 47.1756 48.0437 47.5078 47.1023 47.5415C46.8878 47.5509 46.6734 47.5415 46.4589 47.5415H4.97635C2.3152 47.5415 0.824962 46.416 0.0751447 43.8394C0.0545699 43.7852 0.0294272 43.7328 0 43.6829L0.00470073 15.9208ZM2.35277 28.6004V29.2266C2.35277 33.7192 2.35277 38.2113 2.35277 42.7029C2.35277 44.3763 3.19182 45.2075 4.88399 45.2075H46.5325C48.2466 45.2075 49.0888 44.3701 49.0903 42.6607C49.0903 38.1879 49.0903 33.7156 49.0903 29.2438V28.5863L2.35277 28.6004ZM51.4368 36.4148C52.135 36.4665 52.7361 36.5463 53.3388 36.5479C53.8626 36.5508 54.3686 36.3581 54.7578 36.0074C55.1469 35.6568 55.3912 35.1735 55.4426 34.6522C55.5773 33.2934 55.6806 31.93 55.7948 30.5681C56.086 27.0857 56.3761 23.6027 56.6652 20.1192C56.9939 16.1901 57.3383 12.261 57.653 8.32875C57.7657 6.91991 56.9125 5.98068 55.51 5.85545L36.0084 4.21337L13.6 2.33491C12.2428 2.22221 11.2645 2.96106 11.0954 4.30415C10.8418 6.37672 10.6415 8.45555 10.4207 10.5328C10.3675 11.0259 10.3268 11.5206 10.2767 12.0606H11.1205C22.8786 12.0606 34.6351 12.0606 46.39 12.0606C46.9359 12.0489 47.4813 12.1015 48.0149 12.2172C50.1047 12.7275 51.4165 14.5167 51.418 16.8256C51.4243 23.0955 51.4243 29.3654 51.418 35.6352L51.4368 36.4148ZM2.38408 26.1741H49.0496V21.3668H2.37938L2.38408 26.1741ZM2.36216 18.9624H49.059C49.059 18.0498 49.1232 17.17 49.0418 16.3012C48.9463 15.2963 48.2043 14.6153 47.2025 14.4556C47.009 14.4293 46.8138 14.4178 46.6186 14.4212C32.6731 14.4212 18.7272 14.4212 4.78068 14.4212C4.52702 14.4203 4.27402 14.4471 4.02616 14.501C3.58176 14.5927 3.17936 14.8268 2.87994 15.1677C2.58052 15.5087 2.40039 15.9379 2.36686 16.3905C2.32147 17.2185 2.35277 18.0576 2.35277 18.9499L2.36216 18.9624Z" fill="white"/>
<path d="M38.5131 41.7308C36.7364 41.7308 34.9581 41.7308 33.1814 41.7308C32.1216 41.7308 31.735 41.341 31.7334 40.2797C31.7334 38.013 31.7334 35.7469 31.7334 33.4813C31.7334 32.4325 32.1294 32.0427 33.197 32.0411C36.7525 32.0411 40.3075 32.0411 43.862 32.0411C44.9577 32.0411 45.3506 32.4465 45.3522 33.5267C45.3522 35.7724 45.3522 38.0162 45.3522 40.2578C45.3522 41.3082 44.9452 41.7199 43.9042 41.723C42.1134 41.7339 40.3085 41.7308 38.5131 41.7308ZM34.1049 39.3546H42.9713V34.4283H34.1049V39.3546Z" fill="white"/>
</svg>
