<svg width="19" height="18" viewBox="0 0 19 18" fill="none" xmlns="http://www.w3.org/2000/svg">
<path d="M18.0037 10.0174V12.9006C17.984 12.9472 17.9609 12.9928 17.9456 13.0409C17.8399 13.3699 17.6329 13.6168 17.3245 13.7657C17.2155 13.818 17.1852 13.8756 17.1857 13.9895C17.1905 14.7503 17.19 15.5111 17.1876 16.2719C17.1857 16.8425 16.9825 17.3189 16.5205 17.6734C16.2823 17.8559 16.0046 17.9371 15.7184 18H1.47934C1.46349 17.9928 1.44764 17.9817 1.43131 17.9793C0.61239 17.8804 -0.00191672 17.1715 4.49387e-06 16.2772C0.00672873 13.0601 0.0019257 9.84302 0.00528782 6.62643C0.00528782 6.46409 0.0196969 6.29599 0.0629241 6.14037C0.2781 5.3666 0.873675 4.92136 1.69691 4.91031C2.09508 4.90503 2.49374 4.91464 2.89191 4.90551C2.99133 4.90311 3.09988 4.87333 3.18681 4.82434C3.63541 4.5717 4.07873 4.30897 4.52397 4.05009C6.6887 2.78978 8.8539 1.5309 11.0181 0.268668C11.5138 -0.0204743 12.0234 -0.0934803 12.5623 0.134663C12.9346 0.292683 13.192 0.570778 13.3889 0.915155C14.1233 2.20093 14.8606 3.48525 15.5921 4.77295C15.6531 4.88053 15.7242 4.93673 15.8466 4.95258C16.1266 4.98908 16.3706 5.11396 16.5868 5.29167C17.0104 5.63989 17.1872 6.1005 17.1881 6.63748C17.1896 7.39924 17.1905 8.161 17.1862 8.92276C17.1857 9.02987 17.2136 9.08846 17.3164 9.1365C17.6425 9.28779 17.8476 9.54908 17.9547 9.89009C17.9681 9.93332 17.9873 9.97462 18.0037 10.0169V10.0174ZM16.3557 8.99769C16.3596 8.92997 16.3644 8.88386 16.3644 8.83727C16.3644 8.09904 16.3678 7.36082 16.3639 6.62211C16.361 6.04671 16.032 5.72539 15.4518 5.72539C10.8822 5.72539 6.31262 5.72539 1.74302 5.72539C1.14937 5.72539 0.819401 6.05487 0.81892 6.65093C0.81796 9.85022 0.81796 13.0495 0.81892 16.2488C0.81892 16.8526 1.15033 17.183 1.75551 17.183C6.31358 17.1835 10.8712 17.1835 15.4292 17.183C16.0402 17.183 16.3634 16.8612 16.3644 16.2522C16.3658 15.5375 16.3649 14.8223 16.3644 14.1076C16.3644 14.0457 16.3586 13.9837 16.3553 13.9093C16.2616 13.9093 16.1862 13.9093 16.1108 13.9093C15.3082 13.904 14.5047 13.928 13.704 13.8867C12.557 13.8276 11.6541 12.9342 11.4749 11.7412C11.3159 10.6826 11.9903 9.54187 13.0253 9.1754C13.3279 9.06829 13.6622 9.0145 13.9845 9.00441C14.7679 8.9804 15.5527 8.99673 16.3557 8.99673V8.99769ZM15.2535 13.0807V13.087C15.7395 13.087 16.2261 13.0899 16.7121 13.086C17.0162 13.0836 17.1819 12.9371 17.1848 12.6417C17.1929 11.8507 17.1924 11.0596 17.1852 10.269C17.1828 9.98135 17.0219 9.81708 16.7352 9.81708C15.728 9.81756 14.7203 9.80652 13.7146 9.8459C12.9134 9.87712 12.2324 10.6932 12.2785 11.4933C12.3294 12.3824 12.9615 13.0322 13.8481 13.0769C14.3154 13.1004 14.7852 13.0812 15.2535 13.0812V13.0807ZM4.7478 4.87045L4.75836 4.90887C5.21945 4.90887 5.68054 4.91319 6.14115 4.90551C6.23481 4.90407 6.33904 4.87621 6.42021 4.82914C8.4346 3.66057 10.4466 2.48815 12.4591 1.31573C12.5085 1.28691 12.5561 1.25425 12.6046 1.22351C12.594 1.19805 12.5902 1.18076 12.5811 1.16731C12.326 0.792198 11.8769 0.71583 11.4326 0.974232C9.24775 2.24559 7.06333 3.51743 4.87892 4.78928C4.83473 4.81521 4.7915 4.84307 4.7478 4.86997V4.87045ZM7.98407 4.86997L7.99464 4.90935C8.04988 4.90935 8.10511 4.90935 8.16035 4.90935C8.55852 4.90935 8.95669 4.9156 9.35438 4.90503C9.46485 4.90215 9.58684 4.87141 9.68194 4.81617C10.8827 4.12406 12.0796 3.42522 13.277 2.72782C13.3255 2.69948 13.3716 2.66634 13.4269 2.6308C13.2895 2.39305 13.1593 2.16826 13.0244 1.93388C11.3323 2.91946 9.65841 3.89447 7.98407 4.86949V4.86997ZM11.2242 4.87045L11.2386 4.89782H14.7222C14.4211 4.37045 14.1329 3.86613 13.837 3.34837C12.9571 3.86085 12.0907 4.36565 11.2242 4.87045Z" fill="#092143"/>
<path d="M13.9065 10.6396C14.357 10.6372 14.7269 10.9999 14.7302 11.4475C14.7336 11.8928 14.3642 12.2655 13.9176 12.2683C13.4699 12.2712 13.101 11.9076 13.0958 11.4581C13.0905 11.0114 13.4565 10.642 13.907 10.6392L13.9065 10.6396Z" fill="#092143"/>
</svg>
