<svg width="19" height="21" viewBox="0 0 19 21" fill="none" xmlns="http://www.w3.org/2000/svg">
<path d="M0 10.8413C0 10.3176 0 9.79381 0 9.27012C0.0424531 9.0976 0.101383 8.92744 0.124836 8.75194C0.589891 5.2692 2.30761 2.68755 5.26018 1.13127C6.3365 0.563749 7.58694 0.366248 8.75781 0C9.25255 0 9.74745 0 10.2422 0C10.3825 0.0432082 10.5201 0.106214 10.6632 0.126639C14.0478 0.608057 16.5236 2.48109 17.9973 5.71354C18.499 6.81354 18.6752 8.07977 19 9.27012C19 9.79381 19 10.3176 19 10.8413C18.9575 11.0138 18.8988 11.184 18.875 11.3595C18.3997 14.8705 16.6667 17.4651 13.6729 19.0129C12.6132 19.5606 11.3905 19.7554 10.2422 20.1115C9.74745 20.1115 9.25255 20.1115 8.75781 20.1115C8.61754 20.0682 8.47994 20.0052 8.33684 19.9848C4.95247 19.5026 2.47594 17.6305 1.0024 14.3978C0.500977 13.2978 0.324781 12.0315 0 10.8413ZM9.46868 18.8476C14.0607 18.8559 17.7938 14.943 17.806 10.1085C17.8183 5.24422 14.1277 1.28179 9.56843 1.26388C4.9351 1.24581 1.19745 5.16377 1.19403 10.0422C1.19077 14.8963 4.89606 18.8392 9.46868 18.8476Z" fill="black"/>
<path d="M10.6341 12.7557C9.90007 12.7557 9.29177 12.7557 8.64176 12.7557C8.52049 11.5236 8.75977 10.4563 9.63852 9.61425C10.1509 9.12325 10.6912 8.66382 11.1894 8.15758C12.1247 7.20684 11.8262 5.81443 10.606 5.35909C9.24828 4.85237 8.21886 5.46578 7.44951 7.29278C6.81954 7.21438 6.16789 7.13315 5.46875 7.0461C5.63411 5.7365 6.2151 4.78937 7.20889 4.12663C9.03764 2.90674 11.9398 3.35359 13.2313 5.04233C14.1907 6.29679 14.1475 7.84145 13.0998 9.02049C12.7283 9.43859 12.3404 9.84773 11.9196 10.2082C11.1677 10.8522 10.4822 11.5167 10.6341 12.7557Z" fill="black"/>
<path d="M8.64746 15.973C8.64746 15.2787 8.64746 14.6147 8.64746 13.9082C9.31262 13.9082 9.94082 13.9082 10.6199 13.9082C10.6199 14.595 10.6199 15.2564 10.6199 15.973C9.98372 15.973 9.35478 15.973 8.64746 15.973Z" fill="black"/>
</svg>
