<svg width="100" height="97" viewBox="0 0 100 97" fill="none" xmlns="http://www.w3.org/2000/svg">
<path d="M12.5 69.5554H16.0714V76.6893H12.5V69.5554Z" fill="black"/>
<path d="M0 92.7402H99.9984V96.3072H0V92.7402Z" fill="black"/>
<path d="M0 37.4529H1.78569V89.1733H0V37.4529Z" fill="black"/>
<path d="M19.6309 69.5554H23.2022V76.6893H19.6309V69.5554Z" fill="black"/>
<path d="M12.5 48.1533H16.0714V55.2872H12.5V48.1533Z" fill="black"/>
<path d="M33.9258 48.1533H37.4972V55.2872H33.9258V48.1533Z" fill="black"/>
<path d="M19.6309 48.1533H23.2022V55.2872H19.6309V48.1533Z" fill="black"/>
<path d="M67.8496 17.8345H71.421V21.4014H67.8496V17.8345Z" fill="black"/>
<path d="M19.6309 17.8345H23.2022V21.4014H19.6309V17.8345Z" fill="black"/>
<path d="M25.0064 8.09082L19.7051 14.2677H30.3076L25.0064 8.09082Z" fill="black"/>
<path d="M26.7793 17.8345H30.3507V21.4014H26.7793V17.8345Z" fill="black"/>
<path d="M41.0742 48.1533H44.6456V55.2872H41.0742V48.1533Z" fill="black"/>
<path d="M75.0039 17.8345H78.5753V21.4014H75.0039V17.8345Z" fill="black"/>
<path d="M73.2095 8.09082L67.9082 14.2677H78.5107L73.2095 8.09082Z" fill="black"/>
<path d="M84.6026 0H15.3812L1.0957 28.5354H98.888L84.6026 0ZM36.8686 19.189C36.1193 19.83 34.992 19.7432 34.3503 18.9956L33.9206 18.4948V23.1852C33.9206 23.6581 33.7325 24.1119 33.3976 24.4463C33.0628 24.7807 32.6084 24.9686 32.1349 24.9686H17.8494C16.8633 24.9686 16.0637 24.17 16.0637 23.1852V18.4948L15.634 18.9956C14.9923 19.7432 13.8643 19.83 13.1157 19.189C12.3672 18.5481 12.2803 17.4215 12.922 16.6738L23.6361 4.18961C23.9757 3.7947 24.4708 3.56699 24.9921 3.56699C25.5135 3.56699 26.0085 3.7947 26.3481 4.18961L37.0622 16.6738C37.3699 17.0329 37.523 17.4995 37.4863 17.9716C37.4505 18.443 37.228 18.8809 36.8685 19.189L36.8686 19.189ZM85.0821 19.189C84.3328 19.83 83.2056 19.7432 82.5638 18.9956L82.1341 18.4948V23.1852C82.1341 23.6581 81.946 24.1119 81.6112 24.4463C81.2764 24.7807 80.822 24.9686 80.3484 24.9686H66.0629C65.0768 24.9686 64.2773 24.17 64.2773 23.1852V18.4948L63.8476 18.9956C63.2059 19.7432 62.0778 19.83 61.3292 19.189C60.5807 18.5481 60.4938 17.4215 61.1355 16.6738L71.8497 4.18961C72.1893 3.7947 72.6843 3.56699 73.2056 3.56699C73.727 3.56699 74.2221 3.7947 74.5616 4.18961L85.2758 16.6738C85.5835 17.0329 85.7365 17.4995 85.6999 17.9716C85.664 18.443 85.4416 18.8809 85.0821 19.189L85.0821 19.189Z" fill="black"/>
<path d="M55.3496 48.1533H58.921V55.2872H55.3496V48.1533Z" fill="black"/>
<path d="M0 32.1025H99.9984V33.886H0V32.1025Z" fill="black"/>
<path d="M94.6359 89.1735V37.4531H5.35156V89.1735H30.3512V85.6066C30.3512 84.6217 31.1507 83.8231 32.1369 83.8231V67.772C32.1369 66.7871 32.9364 65.9885 33.9225 65.9885H44.6367C45.1102 65.9885 45.5646 66.1764 45.8994 66.5108C46.2342 66.8452 46.4223 67.2991 46.4223 67.772V83.8231C46.8959 83.8231 47.3503 84.0111 47.6851 84.3454C48.0199 84.6798 48.208 85.1337 48.208 85.6066V89.1735H51.7794V85.6066C51.7794 84.6217 52.579 83.8231 53.5651 83.8231V67.772C53.5651 66.7871 54.3647 65.9885 55.3508 65.9885H66.0649C66.5384 65.9885 66.9928 66.1764 67.3276 66.5108C67.6624 66.8452 67.8506 67.2991 67.8506 67.772V83.8231C68.3241 83.8231 68.7785 84.0111 69.1133 84.3454C69.4481 84.6798 69.6363 85.1337 69.6363 85.6066V89.1735H94.6359ZM26.7798 78.4728C26.7798 78.9457 26.5917 79.3995 26.2568 79.7339C25.922 80.0683 25.4676 80.2562 24.9941 80.2562H10.7086C9.72251 80.2562 8.92293 79.4576 8.92293 78.4728V67.772C8.92293 66.7871 9.72251 65.9885 10.7086 65.9885H24.9941C25.4676 65.9885 25.922 66.1764 26.2568 66.5108C26.5917 66.8452 26.7798 67.2991 26.7798 67.772V78.4728ZM26.7798 57.0712C26.7798 57.5441 26.5917 57.998 26.2568 58.3324C25.922 58.6668 25.4676 58.8547 24.9941 58.8547H10.7086C9.72251 58.8547 8.92293 58.0561 8.92293 57.0712V46.3704C8.92293 45.3856 9.72251 44.587 10.7086 44.587H24.9941C25.4676 44.587 25.922 44.7749 26.2568 45.1093C26.5917 45.4437 26.7798 45.8975 26.7798 46.3704V57.0712ZM48.208 57.0712C48.208 57.5441 48.0199 57.998 47.6851 58.3324C47.3503 58.6668 46.8959 58.8547 46.4223 58.8547H32.1369C31.1507 58.8547 30.3512 58.0561 30.3512 57.0712V46.3704C30.3512 45.3856 31.1507 44.587 32.1369 44.587H46.4223C46.8959 44.587 47.3503 44.7749 47.6851 45.1093C48.0199 45.4437 48.208 45.8975 48.208 46.3704V57.0712ZM73.2076 46.3704C73.2076 45.3856 74.0072 44.587 74.9933 44.587H89.2788C89.7523 44.587 90.2067 44.7749 90.5415 45.1093C90.8763 45.4437 91.0645 45.8975 91.0645 46.3704V57.0712C91.0645 57.5441 90.8764 57.998 90.5415 58.3324C90.2067 58.6668 89.7523 58.8547 89.2788 58.8547H74.9933C74.0072 58.8547 73.2076 58.0561 73.2076 57.0712V46.3704ZM73.2076 67.772C73.2076 66.7871 74.0072 65.9885 74.9933 65.9885H89.2788C89.7523 65.9885 90.2067 66.1764 90.5415 66.5108C90.8763 66.8452 91.0645 67.2991 91.0645 67.772V78.4728C91.0645 78.9457 90.8764 79.3995 90.5415 79.7339C90.2067 80.0683 89.7523 80.2562 89.2788 80.2562H74.9933C74.0072 80.2562 73.2076 79.4576 73.2076 78.4728V67.772ZM67.8506 58.8547H53.5651C52.579 58.8547 51.7794 58.0561 51.7794 57.0712V46.3704C51.7794 45.3856 52.579 44.587 53.5651 44.587H67.8506C68.3241 44.587 68.7785 44.7749 69.1133 45.1093C69.4481 45.4437 69.6363 45.8975 69.6363 46.3704V57.0712C69.6363 57.5441 69.4481 57.998 69.1133 58.3324C68.7785 58.6668 68.3241 58.8547 67.8506 58.8547Z" fill="black"/>
<path d="M55.3496 87.3896H66.0637V89.1731H55.3496V87.3896Z" fill="black"/>
<path d="M57.1387 69.5554H64.2814V83.8231H57.1387V69.5554Z" fill="black"/>
<path d="M98.2129 37.4531H99.9986V89.1735H98.2129V37.4531Z" fill="black"/>
<path d="M62.5 48.1533H66.0714V55.2872H62.5V48.1533Z" fill="black"/>
<path d="M33.9258 87.3896H44.6399V89.1731H33.9258V87.3896Z" fill="black"/>
<path d="M35.7207 69.5554H42.8634V83.8231H35.7207V69.5554Z" fill="black"/>
<path d="M83.9277 69.5554H87.4991V76.6893H83.9277V69.5554Z" fill="black"/>
<path d="M83.9277 48.1533H87.4991V55.2872H83.9277V48.1533Z" fill="black"/>
<path d="M76.7832 48.1533H80.3546V55.2872H76.7832V48.1533Z" fill="black"/>
<path d="M76.7832 69.5554H80.3546V76.6893H76.7832V69.5554Z" fill="black"/>
</svg>
