<svg width="18" height="18" viewBox="0 0 18 18" fill="none" xmlns="http://www.w3.org/2000/svg">
<path d="M18 13.7069C17.9141 14.0538 17.807 14.3913 17.5812 14.679C17.1688 15.2049 16.6295 15.4955 15.9628 15.4965C11.3234 15.5021 6.68371 15.5021 2.04434 15.4976C0.923946 15.4965 0.00572348 14.5779 0.00396241 13.4597C-0.0013208 10.3197 -0.0013208 7.18002 0.00396241 4.04003C0.00572348 2.9221 0.925707 2.00388 2.04504 2.00282C6.67878 1.9986 11.3122 1.99965 15.9459 2.00247C16.9367 2.00318 17.7704 2.70408 17.9644 3.68007C17.9722 3.71881 17.988 3.75615 18 3.79419V13.7069ZM8.98226 14.3747C11.2667 14.3747 13.5512 14.3747 15.8356 14.3747C16.4915 14.3747 16.8747 13.9936 16.8747 13.342C16.8747 10.2844 16.8747 7.22651 16.8747 4.16894C16.8747 3.50396 16.4953 3.12604 15.8282 3.12604C11.2769 3.12604 6.72562 3.12604 2.17431 3.12604C1.50545 3.12604 1.12647 3.50255 1.12647 4.16753C1.12647 7.21947 1.12647 10.2711 1.12647 13.323C1.12647 14.0003 1.50228 14.3751 2.18135 14.3751C4.4482 14.3751 6.71505 14.3751 8.9819 14.3751L8.98226 14.3747Z" fill="#092143"/>
<path d="M5.63136 9.51673C6.14629 9.51673 6.66405 9.48081 7.17511 9.52448C8.18984 9.61077 8.97951 10.4934 8.99923 11.511C9.00205 11.6571 9.00451 11.8037 8.99888 11.9498C8.9869 12.2626 8.73225 12.5067 8.4297 12.501C8.13278 12.4958 7.88905 12.2552 7.87672 11.9509C7.87179 11.8283 7.87672 11.705 7.87496 11.5821C7.86792 11.046 7.49246 10.6371 6.95427 10.6276C6.07057 10.6125 5.18651 10.6132 4.3028 10.6269C3.75758 10.6354 3.38106 11.0464 3.37613 11.5934C3.37507 11.7223 3.38176 11.8516 3.37296 11.9798C3.35253 12.2658 3.11338 12.4912 2.82808 12.501C2.55688 12.5106 2.28602 12.301 2.26067 12.0256C2.20079 11.3715 2.29096 10.7502 2.74179 10.2307C3.16092 9.74778 3.69488 9.50687 4.33204 9.49842C4.76526 9.49278 5.19848 9.49736 5.63171 9.49736V9.51673H5.63136Z" fill="#092143"/>
<path d="M3.75589 6.86665C3.76152 5.83114 4.61529 4.98476 5.63988 4.99921C6.67997 5.014 7.50697 5.85755 7.49676 6.89341C7.48654 7.92364 6.65003 8.75205 5.62192 8.74994C4.58817 8.74782 3.75025 7.90216 3.75589 6.86665ZM6.37214 6.87017C6.37002 6.45596 6.0326 6.1203 5.62121 6.12418C5.20842 6.1277 4.87875 6.46442 4.88051 6.88038C4.88227 7.29423 5.21793 7.62743 5.63108 7.62496C6.04281 7.6225 6.3739 7.28543 6.37214 6.87017Z" fill="#092143"/>
<path d="M13.1323 5.37567C13.7934 5.37567 14.4545 5.37496 15.1156 5.37567C15.4897 5.37602 15.7457 5.60179 15.7489 5.93181C15.7521 6.26923 15.4943 6.49993 15.11 6.49993C13.7762 6.50029 12.442 6.50134 11.1081 6.49958C10.6756 6.49888 10.3963 6.12694 10.5365 5.74549C10.6224 5.51127 10.8218 5.37637 11.0965 5.37602C11.7752 5.37426 12.4539 5.37531 13.1327 5.37531L13.1323 5.37567Z" fill="#092143"/>
<path d="M13.1271 9.49635C12.4368 9.49635 11.7465 9.49917 11.0561 9.49495C10.8036 9.49318 10.5996 9.33539 10.5271 9.10786C10.4563 8.88561 10.5253 8.62533 10.7219 8.49888C10.8293 8.42985 10.9698 8.37878 11.0956 8.37807C12.447 8.36962 13.7985 8.37068 15.1499 8.3742C15.5053 8.37526 15.755 8.62286 15.749 8.94866C15.743 9.26636 15.4958 9.49495 15.1453 9.49671C14.4726 9.49952 13.7999 9.49741 13.1271 9.49741V9.49671V9.49635Z" fill="#092143"/>
<path d="M13.1506 11.3796C13.835 11.3796 14.5197 11.3761 15.2041 11.3814C15.4658 11.3835 15.6725 11.5603 15.7355 11.8104C15.794 12.0425 15.6852 12.3091 15.4647 12.4218C15.3696 12.4704 15.2534 12.4993 15.1463 12.4996C13.8008 12.5049 12.455 12.5042 11.1096 12.5021C10.8091 12.5018 10.5777 12.3285 10.5178 12.0745C10.4573 11.8181 10.5731 11.5473 10.8098 11.4409C10.907 11.3972 11.024 11.3814 11.1321 11.3807C11.8048 11.3754 12.4776 11.3782 13.1503 11.3782V11.3796H13.1506Z" fill="#092143"/>
</svg>
