<svg width="101" height="101" viewBox="0 0 101 101" fill="none" xmlns="http://www.w3.org/2000/svg">
<path d="M61.2609 82.8811H95.0694L61.2609 99.7854V82.8811ZM61.2609 79.2776V64.175L100.9 44.3555V79.2776H61.2609ZM57.6573 39.6384H0.000360158V3.24609C6.29037 9.65303 22.501 21.2159 57.6573 21.6026V39.6384ZM57.6573 43.242V61.2365C22.5352 60.8304 7.15342 48.7641 1.95349 43.242H57.6573ZM61.2609 43.242H95.0694L61.2609 60.1463V43.242ZM61.2609 39.6384V20.9323L100.9 1.11278V39.6384H61.2609ZM59.0353 18.0171C22.9132 17.9206 7.21793 5.59398 1.95313 0H95.0691L59.0353 18.0171ZM0 46.487C6.29217 52.8939 22.506 64.459 57.6569 64.8453V79.2779H0V46.487ZM1.95241 82.8811H57.6562V100.877C22.5269 100.471 7.15054 88.4027 1.95241 82.8811V82.8811Z" fill="black"/>
</svg>
