<svg width="17" height="16" viewBox="0 0 17 16" fill="none" xmlns="http://www.w3.org/2000/svg">
<path d="M8.49539 1.44572C10.0538 0.0729824 11.8116 -0.37659 13.7873 0.332657C17.0091 1.48919 18.0826 5.59481 15.7339 8.04514C13.4481 10.4291 11.0318 12.6918 8.67139 15.006C8.6052 15.0634 8.53594 15.1172 8.46391 15.1673L3.20231 9.9887C2.64048 9.43618 2.06932 8.8928 1.51566 8.33227C0.073784 6.87145 -0.371481 5.14409 0.318565 3.23599C1.00861 1.32789 2.47496 0.250293 4.53228 0.0363752C5.8401 -0.0997543 7.02437 0.276604 8.05828 1.08423C8.20748 1.20091 8.35085 1.32446 8.49539 1.44572ZM8.49539 3.6684C8.08392 3.23942 7.72608 2.8379 7.33793 2.46726C7.02123 2.15746 6.64526 1.91214 6.23163 1.74542C5.818 1.57869 5.37488 1.49385 4.92772 1.49576C4.48057 1.49768 4.03822 1.58631 3.62609 1.75657C3.21396 1.92682 2.84018 2.17535 2.52625 2.48785C1.8887 3.11548 1.53069 3.96558 1.53069 4.85182C1.53069 5.73805 1.8887 6.58815 2.52625 7.21578C4.39746 9.06897 6.27605 10.9145 8.16202 12.7525C8.26576 12.8543 8.38582 12.9424 8.51171 13.0499C10.5119 11.088 12.497 9.16049 14.4564 7.20892C14.7777 6.89675 15.032 6.52449 15.2041 6.11417C15.3763 5.70384 15.4628 5.2638 15.4585 4.82008C15.4543 4.37636 15.3594 3.93798 15.1794 3.5309C14.9995 3.12381 14.7382 2.7563 14.4109 2.4501C13.0122 1.12427 10.8779 1.18146 9.5153 2.58509C9.19476 2.92941 8.86722 3.28175 8.50238 3.6684H8.49539Z" fill="white"/>
</svg>
