<svg width="20" height="20" viewBox="0 0 20 20" fill="none" xmlns="http://www.w3.org/2000/svg">
<path d="M0 16.5146C0 12.6749 0 8.83527 0 4.9956C0.0119973 4.95961 0.0302541 4.92466 0.0349487 4.88815C0.275417 3.07812 1.75787 1.67704 3.5752 1.55498C3.9106 1.53255 4.24862 1.55185 4.60749 1.55185C4.60749 1.28843 4.60645 1.06257 4.60749 0.836703C4.61062 0.355767 4.93142 0.00784504 5.37584 0.000542322C5.82652 -0.00623877 6.16506 0.347421 6.16923 0.833052C6.17132 1.05944 6.16923 1.2853 6.16923 1.52055H13.8272C13.8272 1.28843 13.8261 1.06883 13.8272 0.848701C13.8298 0.356811 14.1542 0.00315044 14.6039 2.06997e-05C15.0556 -0.00310904 15.3853 0.348986 15.3884 0.839312C15.39 1.06517 15.3884 1.29104 15.3884 1.53255C15.6263 1.53255 15.8401 1.53359 16.0535 1.53255C18.3423 1.51846 19.9844 3.32954 19.9912 5.33779C20.0037 8.95576 20.0021 12.5737 19.9912 16.1917C19.986 17.9407 18.7362 19.4748 17.0299 19.8759C16.8479 19.9187 16.6638 19.9516 16.4801 19.9891H3.51521C3.47922 19.9776 3.44375 19.9599 3.4062 19.9552C1.76569 19.7476 0.463201 18.575 0.0933705 16.9684C0.0584217 16.8182 0.0307757 16.6659 0 16.5146ZM1.56174 7.70856C1.56174 7.79358 1.56174 7.85827 1.56174 7.92295C1.56174 10.6296 1.56122 13.3369 1.56174 16.0436C1.56174 17.4207 2.55699 18.4243 3.9346 18.4253C7.97613 18.4284 12.0177 18.4284 16.0592 18.4253C17.4373 18.4243 18.4331 17.4217 18.4336 16.0451C18.4347 13.3384 18.4336 10.6312 18.4336 7.92451V7.70856H1.56174ZM13.8277 3.11046H6.16923C6.16923 3.62008 6.17393 4.11406 6.16767 4.60804C6.16193 5.06654 5.81922 5.40142 5.3748 5.39569C4.94029 5.38995 4.61271 5.05402 4.60854 4.6023C4.60488 4.16622 4.60854 3.73014 4.60697 3.29459C4.60697 3.23252 4.60019 3.17044 4.59654 3.11202C2.29097 2.85173 1.32075 4.42495 1.59304 6.12804H18.4148C18.6835 3.94714 17.2396 2.85643 15.3889 3.1235C15.3889 3.60861 15.4056 4.09632 15.3806 4.58248C15.3712 4.76557 15.3002 4.96743 15.1959 5.11818C15.0123 5.38317 14.6571 5.46089 14.3535 5.35396C14.0405 5.24441 13.834 4.96743 13.8298 4.62734C13.8235 4.12658 13.8282 3.62634 13.8282 3.10994L13.8277 3.11046Z" fill="#092143"/>
<path d="M14.602 11.5548C14.3484 11.5548 14.0949 11.5595 13.8414 11.5537C13.3986 11.5433 13.0585 11.199 13.0606 10.7713C13.0626 10.342 13.4038 9.99982 13.8461 9.99512C14.3531 9.98991 14.8602 9.98991 15.3666 9.99512C15.81 9.9993 16.1533 10.3384 16.1585 10.7666C16.1642 11.199 15.8152 11.5459 15.3614 11.5543C15.1079 11.5589 14.8544 11.5553 14.6009 11.5548H14.602Z" fill="#092143"/>
<path d="M5.39415 9.99377C5.64765 9.99377 5.90116 9.98959 6.15467 9.99481C6.59544 10.0037 6.93711 10.3479 6.93554 10.7762C6.93398 11.1977 6.60014 11.5446 6.16928 11.5524C5.64974 11.5612 5.12916 11.5612 4.60963 11.5524C4.17146 11.5451 3.82771 11.1846 3.8371 10.7616C3.84597 10.3401 4.18398 10.0042 4.61484 9.99481C4.87461 9.98959 5.1349 9.99377 5.39467 9.99377H5.39415Z" fill="#092143"/>
<path d="M10.0051 9.99377C10.2586 9.99377 10.5121 9.98959 10.7656 9.99481C11.2069 10.0042 11.5449 10.35 11.5402 10.7809C11.5361 11.2045 11.2048 11.5456 10.7708 11.5529C10.2513 11.5612 9.73073 11.5618 9.21119 11.5529C8.78085 11.5456 8.44493 11.1972 8.44336 10.7772C8.4418 10.3495 8.78451 10.0042 9.22528 9.99533C9.48505 9.99012 9.74533 9.99429 10.0051 9.99429V9.99377Z" fill="#092143"/>
</svg>
