<svg width="50" height="50" viewBox="0 0 50 50" fill="none" xmlns="http://www.w3.org/2000/svg">
<path d="M41.0406 41.0294C39.9638 41.0294 38.8899 41.0294 37.8146 41.0294C36.4042 41.0294 35.7161 40.3502 35.7161 38.9591C35.7161 33.7924 35.7161 28.6273 35.7161 23.4606C35.7161 22.0889 36.3997 21.4082 37.7714 21.4052C38.8467 21.4037 39.9221 21.4052 41.0421 21.4052C41.3787 15.3717 39.4529 10.3078 34.5335 6.74076C29.1121 2.80878 23.1963 2.36941 17.3207 5.57904C11.1829 8.93164 8.66735 14.4364 8.95182 21.362C9.11119 21.3769 9.25119 21.4023 9.39268 21.4037C10.3772 21.4067 11.3631 21.4023 12.3476 21.4067C13.5615 21.4127 14.2957 22.1365 14.3002 23.3429C14.3062 25.0334 14.3017 26.7253 14.3017 28.4158C14.3017 31.9471 14.3032 35.4769 14.3017 39.0083C14.3017 40.3338 13.5987 41.0279 12.2657 41.0294C10.0346 41.0323 7.805 41.0353 5.5739 41.0294C2.34045 41.0204 0.0348778 38.7104 0.0289202 35.471C0.0229627 32.7573 0.112326 30.0407 0.00509009 27.333C-0.117039 24.2172 1.96661 21.5706 5.38921 21.3755C5.069 14.4692 7.38052 8.65462 12.8212 4.26093C16.6296 1.18386 21.0561 -0.214669 25.9368 0.0266109C31.4758 0.299168 36.1256 2.55708 39.788 6.72586C43.4549 10.9006 44.913 15.8498 44.6181 21.3263C45.2243 21.4499 45.7798 21.5125 46.3011 21.6793C48.492 22.3823 49.968 24.3989 49.9844 26.7328C50.0052 29.7056 50.0052 32.6799 49.9844 35.6527C49.965 38.5287 47.8471 40.7792 44.983 41.0175C44.8922 41.0249 44.7998 41.0323 44.6851 41.0428C44.6166 41.4628 44.5749 41.8858 44.4751 42.2939C43.8883 44.6813 41.8017 46.3494 39.3293 46.3748C36.988 46.3986 34.6452 46.3882 32.3039 46.3748C31.9643 46.3733 31.7945 46.4597 31.6381 46.7858C30.6551 48.8367 29.0019 49.9091 26.7306 49.9404C25.2472 49.9612 23.7444 50.0193 22.2818 49.8257C19.6292 49.4742 17.76 47.0316 17.8792 44.306C17.9954 41.6772 20.1535 39.4104 22.8001 39.2793C24.4101 39.1989 26.0425 39.1855 27.6406 39.3583C29.5083 39.5593 30.8279 40.6868 31.6277 42.3832C31.7722 42.69 31.9122 42.8271 32.2741 42.8241C34.5782 42.8047 36.8837 42.8196 39.1878 42.8122C40.2751 42.8077 40.984 42.13 41.0391 41.0309L41.0406 41.0294ZM10.7093 24.9798C8.84608 24.9798 7.02754 24.95 5.21049 24.9917C4.29899 25.0125 3.60642 25.8019 3.60195 26.7432C3.58855 29.716 3.58855 32.6873 3.60195 35.6601C3.60642 36.6953 4.3675 37.434 5.40858 37.4578C5.98497 37.4712 6.55987 37.4608 7.13626 37.4608C8.31883 37.4608 9.50289 37.4608 10.7093 37.4608V24.9798ZM39.304 37.4608C41.0883 37.4608 42.8145 37.4683 44.5407 37.4578C45.68 37.4519 46.4173 36.7087 46.4203 35.5618C46.4277 32.665 46.4277 29.7666 46.4203 26.8683C46.4173 25.7036 45.6681 24.9753 44.4856 24.9723C42.9068 24.9664 41.3281 24.9708 39.7478 24.9723C39.6063 24.9723 39.4634 24.9932 39.304 25.0051V37.4593V37.4608ZM25.0268 42.8136C24.4325 42.8136 23.8382 42.8032 23.244 42.8166C22.2059 42.839 21.4314 43.6209 21.4418 44.6188C21.4522 45.5884 22.2237 46.3629 23.2335 46.3763C24.4221 46.3941 25.6121 46.3956 26.8006 46.3763C27.8059 46.3599 28.573 45.5735 28.576 44.6024C28.5789 43.6328 27.8104 42.8449 26.811 42.8166C26.2168 42.8002 25.6225 42.8136 25.0282 42.8136H25.0268Z" fill="white"/>
</svg>
