<?xml version="1.0" encoding="utf-8"?>
<!-- Generator: Adobe Illustrator 24.1.1, SVG Export Plug-In . SVG Version: 6.00 Build 0)  -->
<svg version="1.1" id="Layer_1" xmlns="http://www.w3.org/2000/svg" xmlns:xlink="http://www.w3.org/1999/xlink" x="0px" y="0px"
	 viewBox="0 0 24 24" style="enable-background:new 0 0 24 24;" xml:space="preserve">
<style type="text/css">
	.st0{opacity:0.4;fill:#0E578E;}
	.st1{opacity:0.7;fill:#0E578E;}
	.st2{fill:#0E578E;}
</style>
<path className="st0" d="M12,14.2c-0.2,0-0.3,0-0.5-0.1l-9-5.2C2,8.6,1.9,8,2.1,7.5c0.1-0.2,0.2-0.3,0.4-0.4l9-5.2c0.3-0.2,0.7-0.2,1,0
	l9,5.2C22,7.4,22.1,8,21.9,8.5c-0.1,0.2-0.2,0.3-0.4,0.4l-9,5.2C12.3,14.1,12.2,14.2,12,14.2z"/>
<path className="st1" d="M21.5,11.1l-2-1.1l-7,4.1c-0.3,0.2-0.7,0.2-1,0l-7-4.1l-2,1.1C2,11.4,1.9,12,2.1,12.5c0.1,0.2,0.2,0.3,0.4,0.4
	l9,5.2c0.3,0.2,0.7,0.2,1,0l9-5.2c0.5-0.3,0.6-0.9,0.4-1.4C21.8,11.3,21.7,11.2,21.5,11.1z"/>
<path className="st2" d="M21.5,15.1l-2-1.1l-7,4.1c-0.3,0.2-0.7,0.2-1,0l-7-4.1l-2,1.1C2,15.4,1.9,16,2.1,16.5c0.1,0.2,0.2,0.3,0.4,0.4
	l9,5.2c0.3,0.2,0.7,0.2,1,0l9-5.2c0.5-0.3,0.6-0.9,0.4-1.4C21.8,15.3,21.7,15.2,21.5,15.1z"/>
</svg>
