<svg width="134" height="27" viewBox="0 0 134 27" fill="none" xmlns="http://www.w3.org/2000/svg">
<path d="M9.7 0.727999C12.364 0.727999 14.692 1.256 16.684 2.312C18.676 3.368 20.212 4.856 21.292 6.776C22.396 8.672 22.948 10.868 22.948 13.364C22.948 15.836 22.396 18.032 21.292 19.952C20.212 21.872 18.664 23.36 16.648 24.416C14.656 25.472 12.34 26 9.7 26H0.232V0.727999H9.7ZM9.304 20.672C11.632 20.672 13.444 20.036 14.74 18.764C16.036 17.492 16.684 15.692 16.684 13.364C16.684 11.036 16.036 9.224 14.74 7.928C13.444 6.632 11.632 5.984 9.304 5.984H6.388V20.672H9.304ZM41.6883 13.04C43.1523 13.352 44.3283 14.084 45.2163 15.236C46.1043 16.364 46.5483 17.66 46.5483 19.124C46.5483 21.236 45.8043 22.916 44.3163 24.164C42.8523 25.388 40.8003 26 38.1603 26H26.3883V0.727999H37.7643C40.3323 0.727999 42.3363 1.316 43.7763 2.492C45.2403 3.668 45.9723 5.264 45.9723 7.28C45.9723 8.768 45.5763 10.004 44.7843 10.988C44.0163 11.972 42.9843 12.656 41.6883 13.04ZM32.5443 10.952H36.5763C37.5843 10.952 38.3523 10.736 38.8803 10.304C39.4323 9.848 39.7083 9.188 39.7083 8.324C39.7083 7.46 39.4323 6.8 38.8803 6.344C38.3523 5.888 37.5843 5.66 36.5763 5.66H32.5443V10.952ZM37.0803 21.032C38.1123 21.032 38.9043 20.804 39.4563 20.348C40.0323 19.868 40.3203 19.184 40.3203 18.296C40.3203 17.408 40.0203 16.712 39.4203 16.208C38.8443 15.704 38.0403 15.452 37.0083 15.452H32.5443V21.032H37.0803Z" fill="#F2672A"/>
<path d="M69.9907 0.907999V26H66.7147V14.624H53.9347V26H50.6587V0.907999H53.9347V11.924H66.7147V0.907999H69.9907ZM84.1885 26.324C82.3405 26.324 80.6605 25.904 79.1485 25.064C77.6605 24.224 76.4845 23.036 75.6205 21.5C74.7805 19.94 74.3605 18.14 74.3605 16.1C74.3605 14.084 74.7925 12.308 75.6565 10.772C76.5445 9.212 77.7445 8.024 79.2565 7.208C80.7685 6.368 82.4605 5.948 84.3325 5.948C86.2045 5.948 87.8965 6.368 89.4085 7.208C90.9205 8.024 92.1085 9.2 92.9725 10.736C93.8605 12.272 94.3045 14.06 94.3045 16.1C94.3045 18.14 93.8485 19.94 92.9365 21.5C92.0485 23.036 90.8365 24.224 89.3005 25.064C87.7645 25.904 86.0605 26.324 84.1885 26.324ZM84.1885 23.444C85.3645 23.444 86.4685 23.168 87.5005 22.616C88.5325 22.064 89.3605 21.236 89.9845 20.132C90.6325 19.028 90.9565 17.684 90.9565 16.1C90.9565 14.516 90.6445 13.172 90.0205 12.068C89.3965 10.964 88.5805 10.148 87.5725 9.62C86.5645 9.068 85.4725 8.792 84.2965 8.792C83.0965 8.792 81.9925 9.068 80.9845 9.62C80.0005 10.148 79.2085 10.964 78.6085 12.068C78.0085 13.172 77.7085 14.516 77.7085 16.1C77.7085 17.708 77.9965 19.064 78.5725 20.168C79.1725 21.272 79.9645 22.1 80.9485 22.652C81.9325 23.18 83.0125 23.444 84.1885 23.444ZM116.108 6.272V26H112.832V23.084C112.208 24.092 111.332 24.884 110.204 25.46C109.1 26.012 107.876 26.288 106.532 26.288C104.996 26.288 103.616 25.976 102.392 25.352C101.168 24.704 100.196 23.744 99.4758 22.472C98.7798 21.2 98.4318 19.652 98.4318 17.828V6.272H101.672V17.396C101.672 19.34 102.164 20.84 103.148 21.896C104.132 22.928 105.476 23.444 107.18 23.444C108.932 23.444 110.312 22.904 111.32 21.824C112.328 20.744 112.832 19.172 112.832 17.108V6.272H116.108ZM124.087 23.3H133.771V26H120.343V23.3L129.919 8.936H120.415V6.272H133.699V8.936L124.087 23.3Z" fill="#000027"/>
</svg>
