<svg width="16" height="18" viewBox="0 0 16 18" fill="none" xmlns="http://www.w3.org/2000/svg">
<path d="M11.3354 0.0731249L11.2955 0.164783C11.4512 0.232745 11.5788 0.34977 11.6582 0.496723C11.7376 0.643636 11.7643 0.812189 11.7342 0.975513C11.7042 1.13886 11.6191 1.28798 11.492 1.39885C11.3651 1.50962 11.2036 1.57573 11.0334 1.58625C10.9931 1.58824 10.9551 1.58759 10.9136 1.58689C10.8909 1.5865 10.8672 1.58609 10.8414 1.58609H2.98779C2.5733 1.58609 2.22993 1.70708 1.98981 1.94101C1.74935 2.17527 1.62429 2.51125 1.62429 2.9175V15.0816C1.62429 15.4874 1.74964 15.8234 1.99024 16.0577C2.2305 16.2917 2.57395 16.413 2.98827 16.413H3.00382H3.01937H3.03493H3.05048H3.06603H3.08158H3.09713H3.11269H3.12824H3.14379H3.15934H3.17489H3.19045H3.206H3.22155H3.2371H3.25265H3.26821H3.28376H3.29931H3.31486H3.33041H3.34597H3.36152H3.37707H3.39262H3.40817H3.42373H3.43928H3.45483H3.47038H3.48593H3.50149H3.51704H3.53259H3.54814H3.56369H3.57925H3.5948H3.61035H3.6259H3.64145H3.65701H3.67256H3.68811H3.70366H3.71921H3.73477H3.75032H3.76587H3.78142H3.79697H3.81252H3.82808H3.84363H3.85918H3.87473H3.89028H3.90584H3.92139H3.93694H3.95249H3.96804H3.9836H3.99915H4.0147H4.03025H4.0458H4.06135H4.07691H4.09246H4.10801H4.12356H4.13911H4.15467H4.17022H4.18577H4.20132H4.21687H4.23242H4.24798H4.26353H4.27908H4.29463H4.31018H4.32574H4.34129H4.35684H4.37239H4.38794H4.40349H4.41905H4.4346H4.45015H4.4657H4.48125H4.4968H4.51236H4.52791H4.54346H4.55901H4.57456H4.59011H4.60567H4.62122H4.63677H4.65232H4.66787H4.68342H4.69898H4.71453H4.73008H4.74563H4.76118H4.77673H4.79229H4.80784H4.82339H4.83894H4.85449H4.87004H4.8856H4.90115H4.9167H4.93225H4.9478H4.96335H4.97891H4.99446H5.01001H5.02556H5.04111H5.05666H5.07222H5.08777H5.10332H5.11887H5.13442H5.14997H5.16552H5.18108H5.19663H5.21218H5.22773H5.24328H5.25883H5.27439H5.28994H5.30549H5.32104H5.33659H5.35214H5.36769H5.38325H5.3988H5.41435H5.4299H5.44545H5.461H5.47656H5.49211H5.50766H5.52321H5.53876H5.55431H5.56986H5.58542H5.60097H5.61652H5.63207H5.64762H5.66317H5.67872H5.69428H5.70983H5.72538H5.74093H5.75648H5.77203H5.78758H5.80314H5.81869H5.83424H5.84979H5.86534H5.88089H5.89644H5.912H5.92755H5.9431H5.95865H5.9742H5.98975H6.0053H6.02086H6.03641H6.05196H6.06751H6.08306H6.09861H6.11416H6.12971H6.14527H6.16082H6.17637H6.19192H6.20747H6.22302H6.23857H6.25413H6.26968H6.28523H6.30078H6.31633H6.33188H6.34743H6.36298H6.37854H6.39409H6.40964H6.42519H6.44074H6.45629H6.47184H6.48739H6.50295H6.5185H6.53405H6.5496H6.56515H6.5807H6.59625H6.6118H6.62736H6.64291H6.65846H6.67401H6.68956H6.70511H6.72066H6.73621H6.75177H6.76732H6.78287H6.79842H6.81397H6.82952H6.84507H6.86062H6.87617H6.89173H6.90728H6.92283H6.93838H6.95393H6.96948H6.98503H7.00058H7.01614H7.03169H7.04724H7.06279H7.07834H7.09389H7.10944H7.12499H7.14054H7.1561H7.17165H7.1872H7.20275H7.2183H7.23385H7.2494H7.26495H7.2805H7.29605H7.31161H7.32716H7.34271H7.35826H7.37381H7.38936H7.40491H7.42046H7.43601H7.45157H7.46712H7.48267H7.49822H7.51377H7.52932H7.54487H7.56042H7.57597H7.59152H7.60708H7.62263H7.63818H7.65373H7.66928H7.68483H7.70038H7.71593H7.73148H7.74703H7.76259H7.77814H7.79369H7.80924H7.82479H7.84034H7.85589H7.87144H7.88699H7.90254H7.91809H7.93365H7.9492H7.96475H7.9803H7.99585H8.0114H8.02695H8.0425H8.05805H8.0736H8.08915H8.10471H8.12026H8.13581H8.15136H8.16691H8.18246H8.19801H8.21356H8.22911H8.24466H8.26021H8.27576H8.29132H8.30687H8.32242H8.33797H8.35352H8.36907H8.38462H8.40017H8.41572H8.43127H8.44682H8.46237H8.47793H8.49348H8.50903H8.52458H8.54013H8.55568H8.57123H8.58678H8.60233H8.61788H8.63343H8.64898H8.66453H8.68009H8.69564H8.71119H8.72674H8.74229H8.75784H8.77339H8.78894H8.80449H8.82004H8.83559H8.85114H8.86669H8.88225H8.8978H8.91335H8.9289H8.94445H8.96H8.97555H8.9911H9.00665H9.0222H9.03775H9.0533H9.06885H9.0844H9.09995H9.1155H9.13105H9.14661H9.16216H9.17771H9.19326H9.20881H9.22436H9.23991H9.25546H9.27101H9.28656H9.30211H9.31766H9.33321H9.34876H9.36431H9.37986H9.39542H9.41097H9.42652H9.44207H9.45762H9.47317H9.48872H9.50427H9.51982H9.53537H9.55092H9.56647H9.58202H9.59757H9.61312H9.62867H9.64422H9.65977H9.67533H9.69088H9.70643H9.72198H9.73753H9.75308H9.76863H9.78418H9.79973H9.81528H9.83083H9.84638H9.86193H9.87748H9.89303H9.90858H9.92413H9.93968H9.95523H9.97078H9.98633H10.0019H10.0174H10.033H10.0485H10.0641H10.0796H10.0952H10.1107H10.1263H10.1418H10.1574H10.1729H10.1885H10.204H10.2196H10.2351H10.2507H10.2662H10.2818H10.2973H10.3129H10.3284H10.344H10.3595H10.3751H10.3906H10.4062H10.4217H10.4373H10.4528H10.4684H10.4839H10.4995H10.515H10.5306H10.5461H10.5617H10.5772H10.5928H10.6083H10.6239H10.6395H10.655H10.6706H10.6861H10.7017H10.7172H10.7328H10.7483H10.7639H10.7794H10.795H10.8105H10.8261H10.8416H10.8572H10.8727H10.8883H10.9038H10.9194H10.9349H10.9505C11.3647 16.413 11.6804 16.6718 11.7375 17.0219L11.7375 17.022C11.801 17.4095 11.5952 17.7377 11.1872 17.8732L11.1871 17.873L11.1809 17.8756C11.1633 17.8828 11.1462 17.8909 11.1295 17.9H2.56678C2.53597 17.888 2.50436 17.8782 2.47217 17.8704L2.47227 17.87L2.46312 17.8687C1.80856 17.7741 1.21072 17.4526 0.778009 16.9631C0.345335 16.4736 0.10638 15.8486 0.104064 15.2017L0.00406502 15.202M11.3354 0.0731249L11.2956 0.164833C11.2515 0.145686 11.2073 0.128312 11.1611 0.110146C11.153 0.106949 11.1448 0.103727 11.1366 0.100467L2.55845 0.100001C2.52176 0.108241 2.48549 0.116207 2.4495 0.124112C2.36258 0.1432 2.27732 0.161927 2.19184 0.183271L2.19159 0.183333C1.59607 0.330425 1.06783 0.667567 0.689993 1.14114C0.312205 1.61465 0.106188 2.19766 0.104065 2.79821C0.098645 6.93277 0.0986451 11.0673 0.104065 15.2019L0.00406502 15.202M11.3354 0.0731249C11.5114 0.149901 11.6561 0.282322 11.7462 0.4492C11.8363 0.616077 11.8668 0.807765 11.8326 0.993593C11.7984 1.17942 11.7017 1.34865 11.5578 1.4742C11.4139 1.59974 11.2312 1.67436 11.0389 1.68609L11.3354 0.0731249ZM0.00406502 15.202C-0.00135501 11.0673 -0.00135501 6.93266 0.00406502 2.79797M0.00406502 15.202C0.00646794 15.8735 0.25449 16.5218 0.703085 17.0293C1.15168 17.5368 1.77109 17.8697 2.44882 17.9677L0.00406502 2.79797M0.00406502 2.79797C0.00624319 2.17465 0.220072 1.56978 0.611824 1.07877C1.00358 0.587765 1.55095 0.238563 2.16761 0.0862498C2.2545 0.0645542 2.34207 0.0453193 2.4297 0.0260726C2.46892 0.017458 2.50815 0.00884104 2.54733 0L0.00406502 2.79797Z" fill="#F2672A" stroke="white" stroke-width="0.2"/>
<path d="M6.29799 8.25799C6.99505 8.25581 7.69192 8.25653 8.38905 8.25726C8.73773 8.25763 9.08648 8.25799 9.43534 8.25799H13.0451H13.277L13.1178 8.08935C13.0969 8.06721 13.0781 8.04693 13.0606 8.02811C13.0263 7.99111 12.9972 7.95976 12.9678 7.93097C12.7082 7.67633 12.4483 7.42212 12.1884 7.16795C11.6319 6.62354 11.0756 6.07936 10.5224 5.53177C10.0816 5.0951 10.268 4.41155 10.8519 4.26742L10.8519 4.26745L10.8543 4.2668C10.9822 4.23186 11.1174 4.2319 11.2452 4.26692C11.373 4.30193 11.4883 4.37051 11.5788 4.46497L11.5788 4.46502L11.5813 4.46749C11.9548 4.83077 12.3267 5.19498 12.697 5.56014L12.6972 5.56035L15.5882 8.39347C15.5882 8.39347 15.5882 8.39348 15.5882 8.39348C15.8041 8.60508 15.8995 8.80932 15.8995 9.00189C15.8994 9.19448 15.8038 9.39862 15.5882 9.61001C14.2654 10.9066 12.9423 12.2026 11.6188 13.4983C11.2668 13.8424 10.7754 13.8341 10.4768 13.5057L10.4028 13.573L10.4768 13.5057C10.2024 13.204 10.217 12.7719 10.5347 12.4583C11.2003 11.8021 11.8678 11.1477 12.5372 10.4951L12.5373 10.495C12.6649 10.3702 12.7944 10.2476 12.9246 10.1244C12.9826 10.0695 13.0407 10.0145 13.0988 9.95915L13.1594 9.9014L13.1132 9.83157L13.085 9.78892L13.0553 9.74409H13.0016H12.8079H12.7952H12.7826H12.7699H12.7573H12.7447H12.732H12.7194H12.7067H12.6941H12.6814H12.6688H12.6562H12.6435H12.6309H12.6182H12.6056H12.5929H12.5803H12.5677H12.555H12.5424H12.5297H12.5171H12.5044H12.4918H12.4791H12.4665H12.4539H12.4412H12.4286H12.4159H12.4033H12.3906H12.378H12.3654H12.3527H12.3401H12.3274H12.3148H12.3021H12.2895H12.2769H12.2642H12.2516H12.2389H12.2263H12.2136H12.201H12.1884H12.1757H12.1631H12.1504H12.1378H12.1251H12.1125H12.0998H12.0872H12.0746H12.0619H12.0493H12.0366H12.024H12.0113H11.9987H11.9861H11.9734H11.9608H11.9481H11.9355H11.9228H11.9102H11.8976H11.8849H11.8723H11.8596H11.847H11.8343H11.8217H11.8091H11.7964H11.7838H11.7711H11.7585H11.7458H11.7332H11.7206H11.7079H11.6953H11.6826H11.67H11.6573H11.6447H11.6321H11.6194H11.6068H11.5941H11.5815H11.5688H11.5562H11.5436H11.5309H11.5183H11.5056H11.493H11.4803H11.4677H11.4551H11.4424H11.4298H11.4171H11.4045H11.3918H11.3792H11.3665H11.3539H11.3413H11.3286H11.316H11.3033H11.2907H11.278H11.2654H11.2528H11.2401H11.2275H11.2148H11.2022H11.1895H11.1769H11.1643H11.1516H11.139H11.1263H11.1137H11.101H11.0884H11.0758H11.0631H11.0505H11.0378H11.0252H11.0125H10.9999H10.9873H10.9746H10.962H10.9493H10.9367H10.924H10.9114H10.8988H10.8861H10.8735H10.8608H10.8482H10.8355H10.8229H10.8103H10.7976H10.785H10.7723H10.7597H10.747H10.7344H10.7218H10.7091H10.6965H10.6838H10.6712H10.6585H10.6459H10.6333H10.6206H10.608H10.5953H10.5827H10.57H10.5574H10.5448H10.5321H10.5195H10.5068H10.4942H10.4815H10.4689H10.4563H10.4436H10.431H10.4183H10.4057H10.393H10.3804H10.3678H10.3551H10.3425H10.3298H10.3172H10.3046H10.2919H10.2793H10.2666H10.254H10.2413H10.2287H10.2161H10.2034H10.1908H10.1781H10.1655H10.1528H10.1402H10.1276H10.1149H10.1023H10.0896H10.077H10.0643H10.0517H10.0391H10.0264H10.0138H10.0011H9.98848H9.97584H9.9632H9.95056H9.93791H9.92527H9.91263H9.89999H9.88734H9.8747H9.86206H9.84942H9.83677H9.82413H9.81149H9.79885H9.7862H9.77356H9.76092H9.74828H9.73563H9.72299H9.71035H9.69771H9.68506H9.67242H9.65978H9.64714H9.63449H9.62185H9.60921H9.59657H9.58392H9.57128H9.55864H9.546H9.53335H9.52071H9.50807H9.49543H9.48278H9.47014H9.4575H9.44486H9.43221H9.41957H9.40693H9.39429H9.38164H9.369H9.35636H9.34372H9.33107H9.31843H9.30579H9.29315H9.2805H9.26786H9.25522H9.24258H9.22993H9.21729H9.20465H9.19201H9.17937H9.16672H9.15408H9.14144H9.1288H9.11615H9.10351H9.09087H9.07823H9.06558H9.05294H9.0403H9.02766H9.01501H9.00237H8.98973H8.97709H8.96445H8.9518H8.93916H8.92652H8.91388H8.90123H8.88859H8.87595H8.86331H8.85066H8.83802H8.82538H8.81274H8.8001H8.78745H8.77481H8.76217H8.74953H8.73688H8.72424H8.7116H8.69896H8.68632H8.67367H8.66103H8.64839H8.63575H8.6231H8.61046H8.59782H8.58518H8.57254H8.55989H8.54725H8.53461H8.52197H8.50932H8.49668H8.48404H8.4714H8.45876H8.44611H8.43347H8.42083H8.40819H8.39555H8.3829H8.37026H8.35762H8.34498H8.33233H8.31969H8.30705H8.29441H8.28177H8.26912H8.25648H8.24384H8.2312H8.21856H8.20591H8.19327H8.18063H8.16799H8.15535H8.1427H8.13006H8.11742H8.10478H8.09213H8.07949H8.06685H8.05421H8.04157H8.02892H8.01628H8.00364H7.991H7.97836H7.96571H7.95307H7.94043H7.92779H7.91515H7.9025H7.88986H7.87722H7.86458H7.85194H7.83929H7.82665H7.81401H7.80137H7.78873H7.77608H7.76344H7.7508H7.73816H7.72552H7.71288H7.70023H7.68759H7.67495H7.66231H7.64967H7.63702H7.62438H7.61174H7.5991H7.58646H7.57381H7.56117H7.54853H7.53589H7.52325H7.5106H7.49796H7.48532H7.47268H7.46004H7.44739H7.43475H7.42211H7.40947H7.39683H7.38419H7.37154H7.3589H7.34626H7.33362H7.32098H7.30833H7.29569H7.28305H7.27041H7.25777H7.24513H7.23248H7.21984H7.2072H7.19456H7.18192H7.16927H7.15663H7.14399H7.13135H7.11871H7.10607H7.09342H7.08078H7.06814H7.0555H7.04286H7.03022H7.01757H7.00493H6.99229H6.97965H6.96701H6.95436H6.94172H6.92908H6.91644H6.9038H6.89116H6.87851H6.86587H6.85323H6.84059H6.82795H6.81531H6.80266H6.79002H6.77738H6.76474H6.7521H6.73946H6.72681H6.71417H6.70153H6.68889H6.67625H6.66361H6.65096H6.63832H6.62568H6.61304H6.6004H6.58776H6.57511H6.56247H6.54983H6.53719H6.52455H6.51191H6.49926H6.48662H6.47398H6.46134H6.4487H6.43606H6.42342H6.41077H6.39813H6.38549H6.37285H6.36021H6.34757H6.33492C5.88963 9.74409 5.57056 9.47215 5.52167 9.08538M6.29799 8.25799C6.29797 8.25799 6.29795 8.25799 6.29794 8.25799L6.29762 8.15799L6.29806 8.25799C6.29804 8.25799 6.29801 8.25799 6.29799 8.25799ZM6.29799 8.25799C5.81734 8.26013 5.46717 8.64966 5.52167 9.08538M5.52167 9.08538C5.52166 9.08535 5.52166 9.08533 5.52166 9.0853L5.42265 9.09781L5.52167 9.08542C5.52167 9.08541 5.52167 9.08539 5.52167 9.08538ZM13.0451 8.15799L12.9724 8.22663C12.9478 8.20064 12.9275 8.17872 12.9096 8.15944C12.9092 8.15895 12.9087 8.15847 12.9083 8.15799H13.0451ZM13.0451 8.15799V8.05799H12.9518C12.9623 8.06918 12.9733 8.08102 12.9851 8.09377C13.0028 8.11285 13.0224 8.13397 13.0451 8.15799Z" fill="#F2672A" stroke="white" stroke-width="0.2"/>
</svg>
