<svg width="15" height="18" viewBox="0 0 15 18" fill="none" xmlns="http://www.w3.org/2000/svg">
<path d="M7.5 17.1428C8.68259 17.1428 9.64185 16.1835 9.64185 15H5.35815C5.35815 16.1835 6.31741 17.1428 7.5 17.1428ZM14.7117 12.1302C14.0648 11.4351 12.8544 10.3895 12.8544 6.96426C12.8544 4.36271 11.0303 2.28013 8.57076 1.76919V1.07143C8.57076 0.479798 8.09129 0 7.5 0C6.90871 0 6.42924 0.479798 6.42924 1.07143V1.76919C3.96965 2.28013 2.14555 4.36271 2.14555 6.96426C2.14555 10.3895 0.935177 11.4351 0.288304 12.1302C0.0874113 12.3462 -0.00165095 12.6043 2.31491e-05 12.8571C0.00370617 13.4062 0.43462 13.9285 1.0748 13.9285H13.9252C14.5654 13.9285 14.9966 13.4062 15 12.8571C15.0017 12.6043 14.9126 12.3458 14.7117 12.1302Z" fill="white"/>
</svg>
