<svg width="50" height="63" viewBox="0 0 50 63" fill="none" xmlns="http://www.w3.org/2000/svg">
<path d="M9.12522 62.9449C8.28288 62.7108 7.41744 62.5383 6.60282 62.2319C2.26945 60.5965 -0.379235 56.22 0.0442462 51.6325C0.455408 47.1667 0.766474 42.6932 1.12374 38.2228C1.47484 33.834 1.82903 29.4452 2.18167 25.0564C2.40034 22.3215 2.63595 19.5865 2.82844 16.8501C3.01631 14.1675 4.82727 12.4274 7.51291 12.4135C9.25458 12.4058 10.9978 12.412 12.798 12.412C12.8827 8.24649 14.4873 4.84632 17.8382 2.35779C20.1989 0.603807 22.8814 -0.15076 25.8165 0.0247926C31.6221 0.372817 37.1812 5.1697 37.2505 12.4105C37.8157 12.4105 38.3824 12.4105 38.9491 12.4105C40.1595 12.4105 41.3714 12.4012 42.5818 12.412C45.1889 12.4351 47.006 14.1952 47.2031 16.7854C47.6189 22.2368 48.0747 27.6866 48.509 33.1364C48.8585 37.5252 49.1989 41.9156 49.5423 46.3044C49.7024 48.3463 49.9457 50.3852 49.9965 52.4287C50.129 57.6737 46.4362 62.0086 41.242 62.8247C41.1281 62.8432 41.0187 62.9033 40.9079 62.9433H9.12522V62.9449ZM12.8241 16.1001C10.9593 16.1001 9.19452 16.1017 7.42976 16.1001C6.85074 16.1001 6.57202 16.3835 6.5289 16.9548C6.40416 18.6503 6.26711 20.3442 6.13006 22.0397C5.73583 26.9397 5.33853 31.8398 4.94739 36.7398C4.54393 41.7831 4.17126 46.8279 3.73392 51.8681C3.38744 55.8596 6.25633 59.2321 10.2032 59.2444C20.0788 59.2767 29.9543 59.2752 39.8299 59.2444C43.5227 59.2336 46.3854 56.2415 46.3161 52.5488C46.2961 51.4647 46.1683 50.3836 46.082 49.3011C45.7818 45.482 45.4799 41.6645 45.1766 37.8455C44.8224 33.3951 44.4667 28.9432 44.1109 24.4928C43.9092 21.9611 43.7028 19.4295 43.5011 16.8978C43.4657 16.4543 43.2593 16.1202 42.7958 16.1155C40.9541 16.094 39.1123 16.1063 37.212 16.1063C37.212 17.6093 37.2213 19.0583 37.209 20.5074C37.1982 21.6547 36.419 22.477 35.3703 22.4801C34.317 22.4832 33.5347 21.6639 33.5193 20.5213C33.5085 19.6404 33.5162 18.7596 33.5162 17.8772C33.5162 17.292 33.5162 16.7069 33.5162 16.1309H16.5184C16.5184 16.3635 16.5184 16.5637 16.5184 16.7654C16.5184 18.0358 16.5277 19.3063 16.5138 20.5767C16.5046 21.4191 16.0518 22.0782 15.3327 22.3538C14.11 22.8235 12.8519 21.9457 12.8303 20.5736C12.8057 19.103 12.8241 17.6324 12.8241 16.0986V16.1001ZM33.5254 12.3781C33.4608 9.18123 32.2042 6.64804 29.4954 4.98953C26.4972 3.15393 23.3973 3.18011 20.4299 5.05729C17.7904 6.72658 16.5646 9.23358 16.5123 12.3781H33.5254V12.3781Z" fill="white"/>
<path d="M22.4739 39.4936C25.1473 36.8264 27.7713 34.2054 30.3969 31.5891C30.5847 31.4012 30.7757 31.2103 30.9928 31.0594C31.7397 30.5404 32.7299 30.642 33.3535 31.2811C33.988 31.9325 34.0588 32.8965 33.5152 33.6403C33.3705 33.8374 33.1965 34.013 33.0225 34.187C30.0504 37.156 27.0783 40.1234 24.1032 43.0908C22.9513 44.2396 22.0135 44.2443 20.8739 43.1093C19.5096 41.7496 18.1452 40.3898 16.787 39.0239C16.2634 38.4957 16.0108 37.8766 16.2403 37.1252C16.4574 36.4152 16.9394 35.9779 17.6586 35.827C18.3654 35.6776 18.9413 35.9548 19.4326 36.4476C20.4304 37.4485 21.4283 38.448 22.4755 39.4951L22.4739 39.4936Z" fill="white"/>
</svg>
