<svg width="50" height="50" viewBox="0 0 50 50" fill="none" xmlns="http://www.w3.org/2000/svg">
<path d="M49.9987 27.8323V35.8402C49.9441 35.9693 49.8801 36.0972 49.8375 36.2304C49.5432 37.1453 48.9679 37.8325 48.1076 38.244C47.7999 38.3905 47.7254 38.5583 47.7267 38.8699C47.7387 40.9528 47.7413 43.0356 47.7267 45.1185C47.7227 45.5859 47.6921 46.0694 47.5709 46.5168C46.9729 48.7289 45.2723 49.9967 42.931 49.998C30.2208 50.0007 17.5105 50.0007 4.80027 49.9927C4.34881 49.9927 3.88269 49.9568 3.44987 49.8382C1.27778 49.2483 0.00196201 47.5303 0.00196201 45.221C-0.000701494 36.2863 -0.00203325 27.3516 0.00728903 18.4168C0.00728903 17.9654 0.0472416 17.4992 0.167099 17.0664C0.763725 14.9183 2.4191 13.6798 4.70439 13.6491C5.79509 13.6345 6.8858 13.6638 7.97517 13.6345C8.28148 13.6265 8.62107 13.5399 8.88476 13.3855C13.9641 10.4449 19.0127 7.45249 24.1147 4.5506C26.8581 2.98979 29.4324 1.11468 32.4208 0H33.5928C35.5678 0.31163 36.6931 1.60876 37.6094 3.27212C39.4618 6.62947 41.4075 9.93622 43.3013 13.2709C43.4717 13.5706 43.6728 13.7224 44.0098 13.7663C44.7862 13.8702 45.464 14.2151 46.0647 14.7092C47.2406 15.6761 47.7307 16.9559 47.7333 18.4475C47.736 20.5623 47.74 22.6771 47.728 24.7919C47.7267 25.0889 47.8346 25.2234 48.0836 25.3926C48.559 25.7148 49.0318 26.0837 49.3887 26.5272C49.6804 26.8908 49.8029 27.3915 50 27.831L49.9987 27.8323ZM45.4201 38.6422C45.1218 38.6422 44.8501 38.6435 44.5784 38.6422C42.3664 38.6249 40.1477 38.7048 37.9423 38.5689C34.2467 38.3412 31.3501 34.6842 31.8602 31.0458C32.3636 27.4541 35.1629 25.013 38.8026 25.001C40.8362 24.9944 42.8711 25.001 44.9047 25.001C45.0765 25.001 45.2483 25.001 45.4214 25.001C45.4214 22.6012 45.4214 20.276 45.4188 17.9507C45.4188 17.8229 45.3895 17.6924 45.3548 17.5685C45.0539 16.5018 44.1829 15.9158 42.8951 15.9158C30.2354 15.9158 17.5758 15.9158 4.91613 15.9158C3.15955 15.9158 2.26861 16.8014 2.26861 18.5527C2.26861 27.3888 2.26861 36.2237 2.26861 45.0599C2.26861 46.8418 3.15955 47.7354 4.93611 47.7354C17.5638 47.7354 30.1902 47.7354 42.8178 47.7354C44.5518 47.7354 45.4454 46.8524 45.4481 45.1345C45.4521 43.1488 45.4494 41.1645 45.4481 39.1789C45.4481 39.0204 45.4334 38.8619 45.4214 38.6448L45.4201 38.6422ZM42.373 36.3369V36.3569C43.6742 36.3569 44.9766 36.3595 46.2777 36.3569C47.3112 36.3542 47.7307 35.9387 47.7333 34.9119C47.7373 32.8451 47.7373 30.7795 47.7333 28.7126C47.7307 27.6991 47.2925 27.2677 46.2684 27.2663C43.8113 27.2623 41.3542 27.2357 38.8985 27.2836C38.198 27.297 37.4535 27.4142 36.8143 27.6858C34.834 28.5288 33.8005 30.5891 34.1841 32.7185C34.5383 34.6869 36.3002 36.225 38.4191 36.3249C39.7335 36.3875 41.0533 36.3369 42.3717 36.3369H42.373ZM13.185 13.5266L13.205 13.6465C14.4835 13.6465 15.7606 13.6585 17.0391 13.6372C17.3001 13.6332 17.5904 13.5626 17.8155 13.4321C23.4248 10.1786 29.0262 6.91313 34.6289 3.64901C34.7607 3.57176 34.8873 3.4852 35.0164 3.40263C34.256 2.22403 33.0481 1.96434 31.8002 2.69014C27.1351 5.40159 22.474 8.11837 17.8115 10.8338C16.2693 11.7314 14.7272 12.629 13.185 13.5266ZM22.169 13.5373L22.2156 13.6465C23.4675 13.6465 24.7193 13.6625 25.9698 13.6358C26.2761 13.6292 26.6157 13.5439 26.8808 13.3921C30.2155 11.4704 33.5408 9.53003 36.8662 7.59233C37.0021 7.51376 37.1299 7.42186 37.2857 7.32198C36.9062 6.66276 36.5453 6.03817 36.1684 5.38561C31.4713 8.12103 26.8195 10.8298 22.169 13.5386V13.5373ZM38.4257 9.31162C35.966 10.7446 33.5648 12.1443 31.0598 13.6039H40.8801C40.0478 12.1483 39.2527 10.7566 38.4271 9.31162H38.4257Z" fill="white"/>
<path d="M38.6134 34.0839C37.3749 34.0746 36.3494 33.0319 36.3654 31.7973C36.3827 30.5455 37.4042 29.5493 38.6574 29.5626C39.9105 29.5759 40.924 30.6014 40.9067 31.8413C40.8907 33.0851 39.8586 34.0933 38.6134 34.0839Z" fill="white"/>
</svg>
