<svg width="12" height="12" viewBox="0 0 12 12" fill="none" xmlns="http://www.w3.org/2000/svg">
<path d="M12 6.11842C11.9302 6.2899 11.8861 6.47849 11.785 6.62883C11.5651 6.95599 11.2287 7.07556 10.843 7.0753C9.69081 7.07449 8.53836 7.07503 7.38618 7.0753C7.12916 7.0753 7.07219 7.13308 7.07219 7.3931C7.07219 8.54552 7.07219 9.69767 7.07219 10.8501C7.07219 11.1529 6.99944 11.4325 6.78254 11.6548C6.46079 11.9846 6.07646 12.0782 5.6365 11.9351C5.26876 11.8155 4.97402 11.4458 4.94166 11.0579C4.9315 10.9376 4.92535 10.8164 4.92535 10.6957C4.92401 9.5904 4.92481 8.48479 4.92454 7.37945C4.92454 7.13763 4.8625 7.07556 4.62018 7.07556C3.46399 7.07556 2.30779 7.07556 1.15159 7.07556C0.848568 7.07556 0.56908 7.00334 0.34656 6.78692C0.0159885 6.46565 -0.0781548 6.08151 0.0643974 5.64119C0.183681 5.27283 0.554103 4.97697 0.940304 4.94487C1.06066 4.93497 1.18181 4.92855 1.30243 4.92828C2.40782 4.92695 3.5132 4.92775 4.61858 4.92748C4.86196 4.92748 4.92428 4.86595 4.92428 4.62466C4.92428 3.4685 4.92428 2.31233 4.92454 1.15617C4.92454 0.880098 4.98472 0.622757 5.16552 0.403668C5.34177 0.189663 5.56376 0.058049 5.8387 0.0171205C5.85341 0.0149804 5.86678 0.00588516 5.88095 0C5.95905 0 6.03715 0 6.11551 0C6.12968 0.00588516 6.14306 0.0149804 6.15777 0.0171205C6.43271 0.058049 6.65469 0.189663 6.83095 0.403401C7.01148 0.622489 7.07192 0.879563 7.07192 1.15563C7.07245 2.30752 7.07192 3.4594 7.07219 4.61156C7.07219 4.86943 7.13022 4.92775 7.38778 4.92775C8.5397 4.92775 9.69162 4.92828 10.8435 4.92775C11.2289 4.92775 11.5651 5.04732 11.785 5.37449C11.8861 5.52482 11.9299 5.71342 11.9997 5.88489V6.11923L12 6.11842Z" fill="white"/>
</svg>
