<svg width="55" height="55" viewBox="0 0 55 55" fill="none" xmlns="http://www.w3.org/2000/svg">
<g clip-path="url(#clip0_521_52)">
<path d="M55 13.3203C54.6577 14.3229 54.006 14.9574 52.8516 15.0563C52.8516 15.251 52.8516 15.4415 52.8516 15.632C52.8516 18.299 52.8602 20.9659 52.8458 23.6328C52.8401 24.7701 52.0022 25.6681 50.9079 25.7727C49.8309 25.8758 48.8569 25.1697 48.612 24.0911C48.5619 23.8677 48.5576 23.6299 48.5576 23.3993C48.5533 20.8212 48.5547 18.2445 48.5547 15.6664V15.0648H6.44531C6.44531 15.2453 6.44531 15.4329 6.44531 15.6206C6.44531 25.8056 6.44531 35.9906 6.44531 46.1742C6.44531 48.8641 8.27435 50.6988 10.957 50.7003C15.3957 50.7046 19.8344 50.6974 24.2745 50.7031C25.946 50.706 26.9958 52.2729 26.3355 53.7382C26.0319 54.4128 25.4633 54.7494 24.8145 54.9971H9.77539C9.71237 54.9685 9.65221 54.9241 9.58633 54.9126C5.05885 54.1449 2.14987 50.7132 2.14844 46.1298C2.14844 35.9806 2.14844 25.8314 2.14844 15.6822V15.0534C0.992578 14.956 0.34375 14.3201 0 13.3174V5.58594C0.0372396 5.47135 0.0859375 5.3582 0.110286 5.24076C0.515625 3.34297 1.51966 1.84909 3.21263 0.902344C3.9431 0.492708 4.79102 0.29362 5.58594 0C20.1953 0 34.8047 0 49.4141 0C49.5286 0.0372396 49.6418 0.0859375 49.7592 0.110286C51.6585 0.51276 53.1523 1.51823 54.0991 3.21263C54.5073 3.9431 54.7064 4.79102 55.0014 5.58594V13.3203H55ZM4.30404 10.7035H50.6673C50.6831 10.6305 50.6974 10.5975 50.6974 10.5632C50.7003 9.32852 50.7017 8.09245 50.7031 6.85781C50.7031 5.10182 49.901 4.29688 48.1508 4.29688C34.3836 4.29688 20.6164 4.29688 6.84922 4.29688C6.67018 4.29688 6.49115 4.29115 6.31211 4.3026C5.25221 4.36992 4.34701 5.20924 4.31406 6.26628C4.26966 7.73151 4.3026 9.19818 4.3026 10.7035H4.30404Z" fill="white"/>
<path d="M54.9996 43.0765C54.8793 43.5234 54.7661 43.9732 54.6372 44.4172C52.7523 50.8883 46.7424 55.178 39.9849 54.8801C33.3806 54.5879 27.7288 49.6751 26.4555 43.1195C24.8413 34.8094 30.7867 26.8286 39.22 25.9707C41.0047 25.7888 42.7578 25.922 44.4823 26.3975C45.7398 26.7441 46.4073 27.8298 46.1094 29.0029C45.8014 30.2117 44.6828 30.872 43.4066 30.5397C38.5354 29.2707 33.9564 31.5466 31.8538 35.3393C29.9273 38.8155 29.9517 42.3618 32.0457 45.7392C34.1626 49.1538 37.3624 50.7723 41.3756 50.5631C45.9661 50.3239 49.7703 46.9466 50.7013 42.432C51.0393 40.7978 52.5862 40.0157 53.9311 40.7906C54.4983 41.1172 54.7719 41.6443 54.9982 42.2172V43.0765H54.9996Z" fill="white"/>
<path d="M40.8987 40.7663C42.712 38.8857 44.5166 36.9951 46.3414 35.126C47.4041 34.0374 48.4956 32.9775 49.5812 31.909C50.5566 30.9494 51.8514 30.8978 52.738 31.7744C53.6418 32.6667 53.5931 33.9801 52.5976 34.9684C49.5483 37.9948 46.4975 41.0213 43.4353 44.0348C41.8268 45.6161 39.5752 45.6017 37.9653 44.0205C36.957 43.0293 35.9573 42.0282 34.9647 41.0198C34.0452 40.086 34.0222 38.7668 34.8916 37.9017C35.761 37.0352 37.0644 37.0681 38.0112 37.992C38.8949 38.8542 39.7657 39.7293 40.6437 40.5973C40.6552 40.6088 40.6752 40.6088 40.6924 40.6145L40.8987 40.7663Z" fill="white"/>
<path d="M27.4499 19.3362C28.9882 19.3362 30.5251 19.3334 32.0634 19.3362C33.4126 19.3391 34.3751 20.24 34.3736 21.4875C34.3722 22.7336 33.4097 23.6302 32.0562 23.6317C28.9453 23.636 25.8329 23.636 22.7219 23.6317C21.3742 23.6302 20.4102 22.7265 20.4131 21.4804C20.416 20.2343 21.377 19.3405 22.7291 19.3377C24.3032 19.3334 25.8759 19.3377 27.4499 19.3377V19.3362Z" fill="white"/>
</g>
<defs>
<clipPath id="clip0_521_52">
<rect width="55" height="55" fill="white"/>
</clipPath>
</defs>
</svg>
