<svg width="64" height="50" viewBox="0 0 64 50" fill="none" xmlns="http://www.w3.org/2000/svg">
<path d="M63.7403 31.4729C63.4831 32.5329 63.3131 33.6241 62.9546 34.6499C60.9904 40.2446 56.0192 43.869 50.0768 44.0249C47.4657 44.0935 44.8499 44.0405 42.2357 44.042C42.136 44.042 42.0378 44.0218 41.9037 44.0062V40.0607C42.1297 40.0607 42.348 40.0607 42.5662 40.0607C44.931 40.0607 47.2958 40.07 49.6606 40.0591C55.4471 40.0326 59.8369 35.5478 59.7449 29.769C59.6732 25.3278 56.2375 21.2249 51.8945 20.3878C51.5297 20.3176 51.1587 20.2506 50.8079 20.1306C49.9412 19.836 49.6029 19.1298 49.419 18.2974C48.6816 14.9817 47.1508 12.0853 44.7736 9.65345C41.8273 6.64016 38.2622 4.81005 34.0735 4.35798C27.6931 3.67052 22.3524 5.80305 18.1793 10.662C15.6337 13.6254 14.2806 17.1282 14.067 21.0488C14.0483 21.3808 14.0281 21.7113 14 22.0418C13.88 23.4291 13.1894 24.0776 11.8067 24.1384C9.17532 24.2538 7.03032 25.3481 5.52757 27.5103C3.74891 30.0715 3.52287 32.8478 4.90715 35.6366C6.28051 38.4052 8.62036 39.9219 11.7069 40.0279C14.8776 40.1371 18.0531 40.0576 21.2269 40.0607C21.4498 40.0607 21.6727 40.0607 21.9268 40.0607V44.0436C21.7195 44.0436 21.52 44.0436 21.3204 44.0436C18.2916 44.0436 15.2642 44.0498 12.2354 44.0436C6.15268 44.028 1.43555 40.162 0.21496 34.2056C-1.00875 28.2304 3.1316 21.822 9.08958 20.5359C9.81913 20.3784 10.0623 20.1072 10.1434 19.3527C11.1114 10.397 17.8052 2.69779 26.566 0.671268C34.8826 -1.25237 42.0736 0.978364 47.9957 7.10626C50.3933 9.58798 51.9942 12.5841 52.9062 15.9248C53.0356 16.3987 53.2709 16.6169 53.7417 16.7712C59.4035 18.6216 62.6803 22.5172 63.6249 28.3895C63.6514 28.55 63.7029 28.7059 63.7434 28.8649V31.4791L63.7403 31.4729Z" fill="#A8ABB0"/>
<path d="M33.9267 49.9984H29.9438V31.0177C28.4036 32.589 26.9477 34.0731 25.5213 35.5275C24.4644 34.4737 23.5447 33.5555 22.5938 32.6062C23.872 31.331 25.1768 30.0309 26.48 28.7293C27.7567 27.4541 29.0272 26.1743 30.3086 24.9038C31.3624 23.8578 32.4598 23.8547 33.512 24.9038C35.9953 27.3762 38.4692 29.8579 40.9463 32.3365C41.046 32.4363 41.1349 32.5485 41.1988 32.6202C40.2728 33.5431 39.364 34.4472 38.4256 35.3825C37.0164 33.964 35.5495 32.4862 34.0826 31.0099L33.9283 31.0894V50L33.9267 49.9984Z" fill="#A8ABB0"/>
</svg>
