<svg width="11" height="13" viewBox="0 0 11 13" fill="none" xmlns="http://www.w3.org/2000/svg">
<path d="M9.09907 5.06501C9.20771 5.09526 9.28512 5.12138 9.36394 5.13787C10.1003 5.29665 10.547 5.7888 10.5526 6.51602C10.5654 8.20004 10.5661 9.88474 10.5526 11.5688C10.5455 12.4334 9.92989 12.9978 9.03658 12.9985C6.52708 13.0005 4.01758 13.0005 1.50808 12.9985C0.638921 12.9978 0.0182921 12.4293 0.010481 11.5866C-0.00443114 9.90261 -0.00230084 8.21791 0.00977089 6.53389C0.0147416 5.78467 0.460685 5.29184 1.21623 5.13581C1.2844 5.12138 1.35186 5.10282 1.45412 5.07739C1.45412 4.53713 1.47755 4.0003 1.44986 3.46623C1.34476 1.46053 3.00853 -0.0970153 5.02309 0.00471314C5.58691 0.0328947 6.16919 0.0184602 6.70887 0.153182C8.06658 0.492734 9.02664 1.68048 9.09268 3.03594C9.12605 3.70955 9.09836 4.38522 9.09836 5.06433L9.09907 5.06501ZM5.28014 6.03968C4.06161 6.03968 2.84308 6.03831 1.62454 6.03968C1.10901 6.03968 0.969118 6.17234 0.968408 6.66861C0.966277 8.26052 0.965567 9.85175 0.968408 11.4437C0.969118 11.9324 1.12037 12.0767 1.62738 12.0767C4.06445 12.0788 6.50152 12.0788 8.93787 12.0767C9.44489 12.0767 9.5933 11.9317 9.59401 11.4402C9.59614 9.84831 9.59614 8.25708 9.59401 6.66517C9.5933 6.16822 9.45625 6.04037 8.93575 6.03968C7.71721 6.03831 6.49868 6.03968 5.28014 6.03968ZM2.41346 5.07945H8.15534C8.15534 4.44914 8.15818 3.84427 8.15534 3.2394C8.14895 2.07571 7.27553 1.09211 6.07688 0.966321C5.5301 0.909271 4.96486 0.916832 4.41737 0.975944C3.37281 1.08936 2.49086 1.98292 2.42199 2.99814C2.37583 3.67999 2.41346 4.36735 2.41346 5.07876V5.07945Z" fill="#96A0B1"/>
<path d="M4.27832 8.3673C4.32022 7.95626 4.59361 7.60296 4.99481 7.47992C5.40667 7.35345 5.84267 7.50329 6.08127 7.85316C6.30424 8.18034 6.32128 8.64087 6.0273 8.90275C5.75107 9.14882 5.73119 9.41826 5.74823 9.72963C5.75746 9.90078 5.75888 10.074 5.74468 10.2445C5.72267 10.5118 5.56573 10.6637 5.28524 10.6672C5.00475 10.6706 4.84214 10.5235 4.81374 10.2568C4.79669 10.0981 4.80522 9.93653 4.80806 9.77637C4.81445 9.44782 4.84853 9.13095 4.51407 8.88419C4.37844 8.78452 4.35359 8.54395 4.27832 8.36799V8.3673Z" fill="#96A0B1"/>
</svg>
