<svg width="12" height="13" viewBox="0 0 12 13" fill="none" xmlns="http://www.w3.org/2000/svg">
<g clip-path="url(#clip0_521_308)">
<path d="M3.45999 8.96185C2.8029 8.30425 2.12707 7.62792 1.45605 6.95665C3.14676 5.26594 4.84355 3.56889 6.53426 1.87793C7.20351 2.54717 7.87731 3.22098 8.53946 3.88339C6.85078 5.57182 5.15197 7.27013 3.45974 8.96185H3.45999Z" fill="#96A0B1"/>
<path d="M11.0181 11.6133V12.9996H0V11.6133H11.0181Z" fill="#96A0B1"/>
<path d="M8.43031 0C9.09626 0.666206 9.76905 1.33899 10.4353 2.0052C9.92832 2.51163 9.41328 3.02616 8.90989 3.52904C8.24723 2.86511 7.57318 2.18954 6.90723 1.52232C7.40201 1.0278 7.91958 0.510479 8.43031 0V0Z" fill="#96A0B1"/>
<path d="M3.17564 9.26717C2.19596 9.59179 1.19551 9.92325 0.167969 10.2638C0.506516 9.24134 0.837973 8.2409 1.16437 7.25488C1.83513 7.9259 2.50539 8.59666 3.17539 9.26717H3.17564Z" fill="#96A0B1"/>
</g>
<defs>
<clipPath id="clip0_521_308">
<rect width="11.0181" height="13" fill="white"/>
</clipPath>
</defs>
</svg>
