<svg width="13" height="11" viewBox="0 0 13 11" fill="none" xmlns="http://www.w3.org/2000/svg">
<path d="M12.9999 10.5917C12.803 10.9029 12.5258 11.0019 12.1568 11C9.73747 10.9865 7.31718 10.9942 4.89688 10.9923C4.24019 10.9923 4.08534 10.8319 4.08247 10.169C4.0796 9.46488 4.07673 8.75978 4.08438 8.05563C4.08916 7.6147 4.33387 7.33132 4.68085 7.33612C5.01732 7.34092 5.25916 7.64064 5.26298 8.071C5.26776 8.62817 5.26394 9.18438 5.26394 9.77132H11.7611V1.21689H5.2649C5.2649 1.77118 5.26681 2.32258 5.2649 2.87494C5.26298 3.34565 5.03262 3.65113 4.68181 3.65786C4.31284 3.66458 4.0882 3.38504 4.08438 2.89127C4.07865 2.15447 4.07578 1.41862 4.08534 0.68182C4.09203 0.209189 4.28607 0.0064954 4.7535 0.00553476C7.26938 -0.000229029 9.78526 -0.00791409 12.3002 0.0199443C12.5353 0.0228261 12.7667 0.269709 12.9999 0.403237V10.5917Z" fill="#96A0B1"/>
<path d="M0 5.30518C0.665294 4.62025 1.3239 3.92859 1.99971 3.25519C2.26162 2.9939 2.58853 2.97853 2.85331 3.2427C3.11809 3.50688 3.11426 3.82677 2.83897 4.0919C2.60096 4.32149 2.3314 4.51842 2.07522 4.7288L2.1775 4.87962C2.32662 4.8873 2.47573 4.90267 2.62485 4.90267C4.69434 4.9046 6.76382 4.90267 8.83331 4.9046C8.99199 4.9046 9.1975 4.86137 9.29882 4.94206C9.47853 5.08616 9.70794 5.30902 9.70794 5.49923C9.70794 5.68847 9.48044 5.91806 9.29596 6.05255C9.17743 6.13901 8.95757 6.09098 8.78265 6.09098C6.5889 6.0929 4.39515 6.09194 2.07713 6.09194C2.36007 6.38781 2.57419 6.60588 2.78066 6.83066C3.10279 7.18033 3.12669 7.49158 2.85904 7.76056C2.61529 8.00552 2.2339 7.98246 1.92897 7.67506C1.27993 7.01991 0.642353 6.35227 0 5.68943V5.30518H0Z" fill="#96A0B1"/>
</svg>
