<svg width="13" height="13" viewBox="0 0 13 13" fill="none" xmlns="http://www.w3.org/2000/svg">
<path d="M6.55454 12.9991C5.32673 12.98 4.07586 12.8321 2.88032 12.3686C2.36555 12.1691 1.88306 11.9122 1.50285 11.4986C1.21906 11.1896 1.07192 10.8307 1.08366 10.4063C1.1239 8.94746 1.64789 7.69185 2.66863 6.64322C2.8908 6.415 3.19849 6.39793 3.40724 6.59824C3.61894 6.80106 3.61726 7.1034 3.39131 7.33453C2.70552 8.03459 2.28465 8.86541 2.13793 9.832C2.11236 10.0015 2.10942 10.1743 2.08888 10.3447C2.05828 10.5924 2.1656 10.7769 2.34417 10.9335C2.64347 11.1963 2.99769 11.3625 3.36826 11.4937C4.60949 11.9326 5.89515 12.0405 7.2001 11.9813C8.1022 11.9405 8.99131 11.8135 9.83933 11.4924C10.1441 11.377 10.4354 11.2171 10.7175 11.0522C11.0399 10.864 11.1594 10.5787 11.1237 10.1947C11.0198 9.08447 10.6018 8.12538 9.81418 7.32953C9.6901 7.20418 9.61339 7.06217 9.63645 6.8831C9.66243 6.67987 9.77436 6.53661 9.9697 6.46789C10.173 6.39626 10.3503 6.4504 10.5008 6.59866C11.0315 7.12173 11.439 7.72725 11.7219 8.41523C11.9781 9.03783 12.1042 9.68708 12.1315 10.3592C12.1524 10.8698 11.9571 11.2804 11.5911 11.6215C11.1304 12.0504 10.5704 12.3032 9.98144 12.4977C8.88399 12.86 7.7505 12.9875 6.55538 12.9995L6.55454 12.9991Z" fill="#96A0B1"/>
<path d="M6.6059 7.47103e-07C8.56562 0.00125011 10.1208 1.56878 10.1204 3.54152C10.1196 5.42722 8.52412 7.00058 6.6147 6.99808C4.65958 6.99558 3.08803 5.42597 3.0918 3.47905C3.09516 1.56462 4.67677 -0.00124861 6.6059 7.47103e-07ZM6.60715 0.999905C5.23849 0.994907 4.10122 2.11517 4.09577 3.47447C4.0899 4.85709 5.20286 5.99026 6.5732 5.99818C7.97791 6.00567 9.11141 4.89582 9.1156 3.5082C9.12021 2.12641 7.99887 1.00574 6.60715 1.00032V0.999905Z" fill="#96A0B1"/>
</svg>
