<svg width="13" height="13" viewBox="0 0 13 13" fill="none" xmlns="http://www.w3.org/2000/svg">
<path d="M4.40937 2.69206C4.54797 2.69206 4.68734 2.69206 4.82594 2.69206C6.93033 2.69206 9.03472 2.69129 11.1391 2.69206C12.3526 2.69283 12.9994 3.33574 12.9994 4.54129C13.0002 6.74091 13.0002 8.93976 12.9994 11.1394C12.9994 12.3426 12.3449 12.9987 11.143 12.9994C8.05067 13.0002 4.95838 13.0002 1.86531 12.9994C0.65873 12.9994 0.00192498 12.3473 0.00115499 11.1494C-0.000384997 8.79544 -0.000384997 6.44223 0.00115499 4.08824C0.00115499 3.10266 0.443902 2.53461 1.39638 2.28301C4.19377 1.54748 6.98962 0.811187 9.78547 0.0733476C10.7764 -0.188292 11.3678 0.258579 11.3724 1.27735C11.374 1.54517 11.3724 1.81298 11.3724 2.10472H10.3152V1.04736C8.31401 1.57604 6.36361 2.09083 4.41399 2.60562L4.41014 2.69129L4.40937 2.69206ZM6.47295 11.9243C8.06299 11.9243 9.6538 11.9266 11.2438 11.9228C11.7235 11.922 11.9245 11.7221 11.9253 11.2436C11.9284 8.98067 11.9284 6.71853 11.9253 4.45562C11.9253 3.95781 11.7228 3.75714 11.2207 3.75637C8.07839 3.75328 4.93605 3.75405 1.7937 3.75637C1.26856 3.75637 1.0753 3.95395 1.0753 4.47877C1.07376 6.71544 1.07376 8.95288 1.0753 11.1896C1.0753 11.7429 1.25778 11.9228 1.81757 11.9228C3.36988 11.9243 4.92142 11.9228 6.47372 11.9228L6.47295 11.9243Z" fill="#96A0B1"/>
<path d="M10.0185 8.64007C9.56341 8.64239 9.22615 8.3028 9.22461 7.84203C9.22307 7.37895 9.5534 7.04785 10.0177 7.04785C10.4674 7.04785 10.8216 7.39593 10.8247 7.84126C10.8277 8.28041 10.4666 8.63776 10.0185 8.64007Z" fill="#96A0B1"/>
</svg>
